<?xml version="1.0" encoding="UTF-8" standalone="no"?>
<!DOCTYPE svg PUBLIC "-//W3C//DTD SVG 1.1//EN"
 "http://www.w3.org/Graphics/SVG/1.1/DTD/svg11.dtd">
<!-- Generated by graphviz version 2.50.0 (20211204.2007)
 -->
<!-- Title: library_dependencies Pages: 1 -->
<svg width="432pt" height="225pt"
 viewBox="0.00 0.00 432.00 225.46" xmlns="http://www.w3.org/2000/svg" xmlns:xlink="http://www.w3.org/1999/xlink">
<g id="graph0" class="graph" transform="scale(0.58 0.58) rotate(0) translate(4 382.73)">
<title>library_dependencies</title>
<polygon fill="white" stroke="transparent" points="-4,4 -4,-382.73 737,-382.73 737,4 -4,4"/>
<!-- QuanticsTCI -->
<g id="node1" class="node">
<title>QuanticsTCI</title>
<path fill="none" stroke="black" d="M141,-351.57C141,-351.57 12,-351.57 12,-351.57 6,-351.57 0,-345.57 0,-339.57 0,-339.57 0,-313.57 0,-313.57 0,-307.57 6,-301.57 12,-301.57 12,-301.57 141,-301.57 141,-301.57 147,-301.57 153,-307.57 153,-313.57 153,-313.57 153,-339.57 153,-339.57 153,-345.57 147,-351.57 141,-351.57"/>
<text text-anchor="start" x="41" y="-328.97" font-family="Arial" font-weight="bold" font-size="12.00">QuanticsTCI</text>
<text text-anchor="start" x="14" y="-318.57" font-family="Arial" font-size="10.00">Sugar coating for TCI + QTT</text>
</g>
<!-- TensorCrossInterpolation -->
<g id="node4" class="node">
<title>TensorCrossInterpolation</title>
<path fill="none" stroke="black" d="M329.5,-349.72C329.5,-349.72 178.5,-349.72 178.5,-349.72 172.5,-349.72 166.5,-343.72 166.5,-337.72 166.5,-337.72 166.5,-311.72 166.5,-311.72 166.5,-305.72 172.5,-299.72 178.5,-299.72 178.5,-299.72 329.5,-299.72 329.5,-299.72 335.5,-299.72 341.5,-305.72 341.5,-311.72 341.5,-311.72 341.5,-337.72 341.5,-337.72 341.5,-343.72 335.5,-349.72 329.5,-349.72"/>
<text text-anchor="start" x="180.5" y="-327.12" font-family="Arial" font-weight="bold" font-size="12.00">TensorCrossInterpolation</text>
<text text-anchor="start" x="231" y="-316.72" font-family="Arial" font-size="10.00">TCI for TT</text>
</g>
<!-- QuanticsTCI&#45;&gt;TensorCrossInterpolation -->
<g id="edge1" class="edge">
<title>QuanticsTCI&#45;&gt;TensorCrossInterpolation</title>
<path fill="none" stroke="black" d="M153.07,-325.77C154.03,-325.76 155,-325.75 155.97,-325.74"/>
<polygon fill="black" stroke="black" points="156.41,-329.24 166.37,-325.63 156.34,-322.24 156.41,-329.24"/>
</g>
<!-- QuanticsGrids -->
<g id="node8" class="node">
<title>QuanticsGrids</title>
<path fill="none" stroke="black" d="M111.54,-161.4C111.54,-161.4 25.54,-161.4 25.54,-161.4 19.54,-161.4 13.54,-155.4 13.54,-149.4 13.54,-149.4 13.54,-123.4 13.54,-123.4 13.54,-117.4 19.54,-111.4 25.54,-111.4 25.54,-111.4 111.54,-111.4 111.54,-111.4 117.54,-111.4 123.54,-117.4 123.54,-123.4 123.54,-123.4 123.54,-149.4 123.54,-149.4 123.54,-155.4 117.54,-161.4 111.54,-161.4"/>
<text text-anchor="start" x="27.54" y="-138.8" font-family="Arial" font-weight="bold" font-size="12.00">QuanticsGrids</text>
<text text-anchor="start" x="36.54" y="-128.4" font-family="Arial" font-size="10.00">Quantics grids</text>
</g>
<!-- QuanticsTCI&#45;&gt;QuanticsGrids -->
<g id="edge2" class="edge">
<title>QuanticsTCI&#45;&gt;QuanticsGrids</title>
<path fill="none" stroke="black" d="M75.44,-301.32C74.05,-267.98 71.58,-209.11 70.01,-171.47"/>
<polygon fill="black" stroke="black" points="73.51,-171.3 69.59,-161.46 66.51,-171.6 73.51,-171.3"/>
</g>
<!-- ITensors -->
<g id="node2" class="node">
<title>ITensors</title>
<path fill="none" stroke="black" d="M460.55,-248.26C460.55,-248.26 321.55,-248.26 321.55,-248.26 315.55,-248.26 309.55,-242.26 309.55,-236.26 309.55,-236.26 309.55,-210.26 309.55,-210.26 309.55,-204.26 315.55,-198.26 321.55,-198.26 321.55,-198.26 460.55,-198.26 460.55,-198.26 466.55,-198.26 472.55,-204.26 472.55,-210.26 472.55,-210.26 472.55,-236.26 472.55,-236.26 472.55,-242.26 466.55,-248.26 460.55,-248.26"/>
<text text-anchor="start" x="366.05" y="-225.66" font-family="Arial" font-weight="bold" font-size="12.00">ITensors</text>
<text text-anchor="start" x="323.55" y="-215.26" font-family="Arial" font-size="10.00">Indexed tensor and contraction</text>
</g>
<!-- NDTensors -->
<g id="node10" class="node">
<title>NDTensors</title>
<path fill="none" stroke="black" d="M446.74,-126C446.74,-126 377.74,-126 377.74,-126 371.74,-126 365.74,-120 365.74,-114 365.74,-114 365.74,-88 365.74,-88 365.74,-82 371.74,-76 377.74,-76 377.74,-76 446.74,-76 446.74,-76 452.74,-76 458.74,-82 458.74,-88 458.74,-88 458.74,-114 458.74,-114 458.74,-120 452.74,-126 446.74,-126"/>
<text text-anchor="start" x="379.74" y="-103.4" font-family="Arial" font-weight="bold" font-size="12.00">NDTensors</text>
<text text-anchor="start" x="383.24" y="-93" font-family="Arial" font-size="10.00">NDTensors.jl</text>
</g>
<!-- ITensors&#45;&gt;NDTensors -->
<g id="edge3" class="edge">
<title>ITensors&#45;&gt;NDTensors</title>
<path fill="none" stroke="black" d="M395.39,-198.23C398.51,-180.26 402.74,-155.81 406.19,-135.93"/>
<polygon fill="black" stroke="black" points="409.65,-136.45 407.91,-126 402.75,-135.26 409.65,-136.45"/>
</g>
<!-- PatchedTCI -->
<g id="node3" class="node">
<title>PatchedTCI</title>
<path fill="none" stroke="black" d="M297.68,-156.1C297.68,-156.1 187.68,-156.1 187.68,-156.1 181.68,-156.1 175.68,-150.1 175.68,-144.1 175.68,-144.1 175.68,-118.1 175.68,-118.1 175.68,-112.1 181.68,-106.1 187.68,-106.1 187.68,-106.1 297.68,-106.1 297.68,-106.1 303.68,-106.1 309.68,-112.1 309.68,-118.1 309.68,-118.1 309.68,-144.1 309.68,-144.1 309.68,-150.1 303.68,-156.1 297.68,-156.1"/>
<text text-anchor="start" x="209.18" y="-133.5" font-family="Arial" font-weight="bold" font-size="12.00">PatchedTCI</text>
<text text-anchor="start" x="189.68" y="-123.1" font-family="Arial" font-size="10.00">Adaptive patching + TCI</text>
</g>
<!-- PatchedTCI&#45;&gt;ITensors -->
<g id="edge4" class="edge">
<title>PatchedTCI&#45;&gt;ITensors</title>
<path fill="none" stroke="black" d="M283.22,-156.29C301.38,-167.56 322.94,-180.96 342,-192.8"/>
<polygon fill="black" stroke="black" points="340.22,-195.81 350.56,-198.11 343.91,-189.86 340.22,-195.81"/>
</g>
<!-- PatchedTCI&#45;&gt;TensorCrossInterpolation -->
<g id="edge5" class="edge">
<title>PatchedTCI&#45;&gt;TensorCrossInterpolation</title>
<path fill="none" stroke="black" d="M244.16,-156.42C246.15,-190.43 249.69,-251.04 251.94,-289.5"/>
<polygon fill="black" stroke="black" points="248.46,-289.93 252.54,-299.71 255.45,-289.53 248.46,-289.93"/>
</g>
<!-- TensorNetworks -->
<g id="node6" class="node">
<title>TensorNetworks</title>
<path fill="none" stroke="black" d="M465.13,-376.71C465.13,-376.71 367.13,-376.71 367.13,-376.71 361.13,-376.71 355.13,-370.71 355.13,-364.71 355.13,-364.71 355.13,-338.71 355.13,-338.71 355.13,-332.71 361.13,-326.71 367.13,-326.71 367.13,-326.71 465.13,-326.71 465.13,-326.71 471.13,-326.71 477.13,-332.71 477.13,-338.71 477.13,-338.71 477.13,-364.71 477.13,-364.71 477.13,-370.71 471.13,-376.71 465.13,-376.71"/>
<text text-anchor="start" x="369.13" y="-354.11" font-family="Arial" font-weight="bold" font-size="12.00">TensorNetworks</text>
<text text-anchor="start" x="392.13" y="-343.71" font-family="Arial" font-size="10.00">MPS/MPO</text>
</g>
<!-- PatchedTCI&#45;&gt;TensorNetworks -->
<g id="edge6" class="edge">
<title>PatchedTCI&#45;&gt;TensorNetworks</title>
<path fill="none" stroke="black" d="M253.06,-156.57C264.12,-182.02 283.2,-221.55 306.35,-251.46 326.19,-277.1 352.98,-301.7 375.13,-320.12"/>
<polygon fill="black" stroke="black" points="373.11,-322.99 383.06,-326.62 377.54,-317.57 373.11,-322.99"/>
</g>
<!-- Quantics -->
<g id="node9" class="node">
<title>Quantics</title>
<path fill="none" stroke="black" d="M655.4,-259.76C655.4,-259.76 503.4,-259.76 503.4,-259.76 497.4,-259.76 491.4,-253.76 491.4,-247.76 491.4,-247.76 491.4,-221.76 491.4,-221.76 491.4,-215.76 497.4,-209.76 503.4,-209.76 503.4,-209.76 655.4,-209.76 655.4,-209.76 661.4,-209.76 667.4,-215.76 667.4,-221.76 667.4,-221.76 667.4,-247.76 667.4,-247.76 667.4,-253.76 661.4,-259.76 655.4,-259.76"/>
<text text-anchor="start" x="553.4" y="-237.16" font-family="Arial" font-weight="bold" font-size="12.00">Quantics</text>
<text text-anchor="start" x="505.4" y="-226.76" font-family="Arial" font-size="10.00">Quantics&#45;related utilities and misc</text>
</g>
<!-- PatchedTCI&#45;&gt;Quantics -->
<g id="edge7" class="edge">
<title>PatchedTCI&#45;&gt;Quantics</title>
<path fill="none" stroke="black" d="M309.76,-147.65C356.61,-159.66 420.43,-176.93 475.75,-195.06 486.06,-198.44 496.84,-202.25 507.39,-206.14"/>
<polygon fill="black" stroke="black" points="506.4,-209.51 517,-209.73 508.85,-202.95 506.4,-209.51"/>
</g>
<!-- TensorCrossInterpolation&#45;&gt;ITensors -->
<g id="edge8" class="edge">
<title>TensorCrossInterpolation&#45;&gt;ITensors</title>
<path fill="none" stroke="gray" stroke-dasharray="5,2" d="M287.88,-299.64C306.33,-285.99 329.33,-268.96 348.92,-254.45"/>
<polygon fill="gray" stroke="gray" points="351.14,-257.17 357.09,-248.41 346.97,-251.54 351.14,-257.17"/>
</g>
<!-- TensorCrossInterpolation&#45;&gt;TensorNetworks -->
<g id="edge9" class="edge">
<title>TensorCrossInterpolation&#45;&gt;TensorNetworks</title>
<path fill="none" stroke="gray" stroke-dasharray="5,2" d="M341.71,-339.32C342.83,-339.51 343.95,-339.7 345.06,-339.88"/>
<polygon fill="gray" stroke="gray" points="344.57,-343.35 355.01,-341.54 345.72,-336.44 344.57,-343.35"/>
</g>
<!-- FastMPOContractions -->
<g id="node5" class="node">
<title>FastMPOContractions</title>
<path fill="none" stroke="black" d="M721,-50C721,-50 544,-50 544,-50 538,-50 532,-44 532,-38 532,-38 532,-12 532,-12 532,-6 538,0 544,0 544,0 721,0 721,0 727,0 733,-6 733,-12 733,-12 733,-38 733,-38 733,-44 727,-50 721,-50"/>
<text text-anchor="start" x="569" y="-27.4" font-family="Arial" font-weight="bold" font-size="12.00">FastMPOContractions</text>
<text text-anchor="start" x="546" y="-17" font-family="Arial" font-size="10.00">Additional MPO contractions algorithms</text>
</g>
<!-- TensorNetworks&#45;&gt;ITensors -->
<g id="edge10" class="edge">
<title>TensorNetworks&#45;&gt;ITensors</title>
<path fill="none" stroke="black" d="M411.24,-326.64C407.44,-307.19 402.13,-279.99 397.91,-258.38"/>
<polygon fill="black" stroke="black" points="401.29,-257.42 395.94,-248.27 394.42,-258.76 401.29,-257.42"/>
</g>
<!-- TensorNetworkContractions -->
<g id="node7" class="node">
<title>TensorNetworkContractions</title>
<path fill="none" stroke="black" d="M682.54,-378.73C682.54,-378.73 516.54,-378.73 516.54,-378.73 510.54,-378.73 504.54,-372.73 504.54,-366.73 504.54,-366.73 504.54,-340.73 504.54,-340.73 504.54,-334.73 510.54,-328.73 516.54,-328.73 516.54,-328.73 682.54,-328.73 682.54,-328.73 688.54,-328.73 694.54,-334.73 694.54,-340.73 694.54,-340.73 694.54,-366.73 694.54,-366.73 694.54,-372.73 688.54,-378.73 682.54,-378.73"/>
<text text-anchor="start" x="518.54" y="-356.13" font-family="Arial" font-weight="bold" font-size="12.00">TensorNetworkContractions</text>
<text text-anchor="start" x="547.54" y="-345.73" font-family="Arial" font-size="10.00">Contractions algorithms</text>
</g>
<!-- TensorNetworkContractions&#45;&gt;ITensors -->
<g id="edge11" class="edge">
<title>TensorNetworkContractions&#45;&gt;ITensors</title>
<path fill="none" stroke="black" d="M559.34,-328.57C525.16,-307.19 475.99,-276.41 439.62,-253.65"/>
<polygon fill="black" stroke="black" points="441.46,-250.68 431.13,-248.34 437.75,-256.61 441.46,-250.68"/>
</g>
<!-- TensorNetworkContractions&#45;&gt;TensorNetworks -->
<g id="edge12" class="edge">
<title>TensorNetworkContractions&#45;&gt;TensorNetworks</title>
<path fill="none" stroke="black" d="M504.35,-352.68C498.82,-352.62 493.31,-352.56 487.89,-352.5"/>
<polygon fill="black" stroke="black" points="487.66,-349 477.62,-352.39 487.59,-356 487.66,-349"/>
</g>
<!-- Quantics&#45;&gt;ITensors -->
<g id="edge13" class="edge">
<title>Quantics&#45;&gt;ITensors</title>
<path fill="none" stroke="black" d="M491.29,-229.38C488.47,-229.21 485.65,-229.04 482.82,-228.86"/>
<polygon fill="black" stroke="black" points="482.82,-225.36 472.63,-228.24 482.39,-232.34 482.82,-225.36"/>
</g>
<!-- Quantics&#45;&gt;TensorNetworks -->
<g id="edge14" class="edge">
<title>Quantics&#45;&gt;TensorNetworks</title>
<path fill="none" stroke="black" d="M544.38,-259.84C519.52,-277.65 485.99,-301.67 459.45,-320.68"/>
<polygon fill="black" stroke="black" points="457.19,-317.99 451.1,-326.66 461.27,-323.68 457.19,-317.99"/>
</g>
<!-- Quantics&#45;&gt;TensorNetworkContractions -->
<g id="edge15" class="edge">
<title>Quantics&#45;&gt;TensorNetworkContractions</title>
<path fill="none" stroke="black" d="M583.67,-259.99C586.56,-277.02 590.4,-299.74 593.59,-318.55"/>
<polygon fill="black" stroke="black" points="590.16,-319.26 595.28,-328.53 597.06,-318.09 590.16,-319.26"/>
</g>
<!-- ProjMPSs -->
<g id="node11" class="node">
<title>ProjMPSs</title>
<path fill="none" stroke="black" d="M674.45,-135C674.45,-135 522.45,-135 522.45,-135 516.45,-135 510.45,-129 510.45,-123 510.45,-123 510.45,-97 510.45,-97 510.45,-91 516.45,-85 522.45,-85 522.45,-85 674.45,-85 674.45,-85 680.45,-85 686.45,-91 686.45,-97 686.45,-97 686.45,-123 686.45,-123 686.45,-129 680.45,-135 674.45,-135"/>
<text text-anchor="start" x="569.95" y="-112.4" font-family="Arial" font-weight="bold" font-size="12.00">ProjMPSs</text>
<text text-anchor="start" x="524.45" y="-102" font-family="Arial" font-size="10.00">Adaptive patching + multiplication</text>
</g>
<!-- ProjMPSs&#45;&gt;ITensors -->
<g id="edge16" class="edge">
<title>ProjMPSs&#45;&gt;ITensors</title>
<path fill="none" stroke="black" d="M552.42,-135.14C521.01,-152.29 479.24,-175.11 446.07,-193.22"/>
<polygon fill="black" stroke="black" points="444.05,-190.33 436.95,-198.2 447.41,-196.48 444.05,-190.33"/>
</g>
<!-- ProjMPSs&#45;&gt;TensorNetworks -->
<g id="edge17" class="edge">
<title>ProjMPSs&#45;&gt;TensorNetworks</title>
<path fill="none" stroke="black" d="M559.83,-135.02C535.92,-152.4 506.41,-177.58 488.2,-206.56 477.18,-224.09 483.88,-232.42 475.75,-251.46 465.87,-274.62 451.53,-298.92 439.39,-317.8"/>
<polygon fill="black" stroke="black" points="436.35,-316.05 433.81,-326.33 442.21,-319.88 436.35,-316.05"/>
</g>
</g>
</svg>
