<?xml version="1.0" encoding="UTF-8" standalone="no"?>
<!DOCTYPE svg PUBLIC "-//W3C//DTD SVG 1.1//EN"
 "http://www.w3.org/Graphics/SVG/1.1/DTD/svg11.dtd">
<!-- Generated by graphviz version 2.50.0 (20211204.2007)
 -->
<!-- Title: library_dependencies Pages: 1 -->
<svg width="605pt" height="443pt"
 viewBox="14.40 14.40 590.40 428.79" xmlns="http://www.w3.org/2000/svg" xmlns:xlink="http://www.w3.org/1999/xlink">
<g id="graph0" class="graph" transform="scale(0.39 0.39) rotate(0) translate(72.58 1053.29)">
<title>library_dependencies</title>
<polygon fill="white" stroke="transparent" points="-36,36 -36,-1016.71 1427.27,-1016.71 1427.27,36 -36,36"/>
<!-- T4ATensorTrain -->
<g id="node1" class="node">
<title>T4ATensorTrain</title>
<path fill="none" stroke="black" d="M1019.97,-980.71C1019.97,-980.71 641.97,-980.71 641.97,-980.71 635.97,-980.71 629.97,-974.71 629.97,-968.71 629.97,-968.71 629.97,-956.71 629.97,-956.71 629.97,-950.71 635.97,-944.71 641.97,-944.71 641.97,-944.71 1019.97,-944.71 1019.97,-944.71 1025.97,-944.71 1031.97,-950.71 1031.97,-956.71 1031.97,-956.71 1031.97,-968.71 1031.97,-968.71 1031.97,-974.71 1025.97,-980.71 1019.97,-980.71"/>
<text text-anchor="start" x="785.47" y="-965.11" font-family="Arial" font-weight="bold" font-size="12.00">T4ATensorTrain</text>
<text text-anchor="start" x="633.97" y="-954.71" font-family="Arial" font-size="10.00">Core Tensor Train (TT) data structures and operations (ITensors integration via extensions)</text>
</g>
<!-- T4AMatrixCI -->
<g id="node2" class="node">
<title>T4AMatrixCI</title>
<path fill="none" stroke="black" d="M578.67,-959.47C578.67,-959.47 329.67,-959.47 329.67,-959.47 323.67,-959.47 317.67,-953.47 317.67,-947.47 317.67,-947.47 317.67,-935.47 317.67,-935.47 317.67,-929.47 323.67,-923.47 329.67,-923.47 329.67,-923.47 578.67,-923.47 578.67,-923.47 584.67,-923.47 590.67,-929.47 590.67,-935.47 590.67,-935.47 590.67,-947.47 590.67,-947.47 590.67,-953.47 584.67,-959.47 578.67,-959.47"/>
<text text-anchor="start" x="419.17" y="-943.87" font-family="Arial" font-weight="bold" font-size="12.00">T4AMatrixCI</text>
<text text-anchor="start" x="321.67" y="-933.47" font-family="Arial" font-size="10.00">Matrix cross interpolation + LU&#45;based low&#45;rank factorizations</text>
</g>
<!-- T4ATensorTrain&#45;&gt;T4AMatrixCI -->
<g id="edge1" class="edge">
<title>T4ATensorTrain&#45;&gt;T4AMatrixCI</title>
<path fill="none" stroke="black" d="M629.88,-951.38C620.16,-950.83 610.48,-950.28 600.96,-949.75"/>
<polygon fill="black" stroke="black" points="600.86,-946.24 590.68,-949.17 600.47,-953.22 600.86,-946.24"/>
</g>
<!-- ITensors -->
<g id="node4" class="node">
<title>ITensors</title>
<path fill="none" stroke="red" stroke-width="3" d="M132,-832.88C132,-832.88 12,-832.88 12,-832.88 6,-832.88 0,-826.88 0,-820.88 0,-820.88 0,-808.88 0,-808.88 0,-802.88 6,-796.88 12,-796.88 12,-796.88 132,-796.88 132,-796.88 138,-796.88 144,-802.88 144,-808.88 144,-808.88 144,-820.88 144,-820.88 144,-826.88 138,-832.88 132,-832.88"/>
<text text-anchor="start" x="47" y="-817.28" font-family="Arial" font-weight="bold" font-size="12.00">ITensors</text>
<text text-anchor="start" x="4" y="-806.88" font-family="Arial" font-size="10.00">Indexing and contraction library</text>
</g>
<!-- T4ATensorTrain&#45;&gt;ITensors -->
<g id="edge2" class="edge">
<title>T4ATensorTrain&#45;&gt;ITensors</title>
<path fill="none" stroke="gray" stroke-dasharray="5,2" d="M738.28,-944.66C588.74,-915.53 296.61,-858.63 154.11,-830.88"/>
<polygon fill="gray" stroke="gray" points="154.6,-827.41 144.12,-828.93 153.26,-834.28 154.6,-827.41"/>
</g>
<!-- T4AITensorCompat -->
<g id="node5" class="node">
<title>T4AITensorCompat</title>
<path fill="none" stroke="red" stroke-width="3" d="M486.02,-496.6C486.02,-496.6 390.02,-496.6 390.02,-496.6 384.02,-496.6 378.02,-490.6 378.02,-484.6 378.02,-484.6 378.02,-472.6 378.02,-472.6 378.02,-466.6 384.02,-460.6 390.02,-460.6 390.02,-460.6 486.02,-460.6 486.02,-460.6 492.02,-460.6 498.02,-466.6 498.02,-472.6 498.02,-472.6 498.02,-484.6 498.02,-484.6 498.02,-490.6 492.02,-496.6 486.02,-496.6"/>
<text text-anchor="start" x="382.02" y="-481" font-family="Arial" font-weight="bold" font-size="12.00">T4AITensorCompat</text>
<text text-anchor="start" x="386.52" y="-470.6" font-family="Arial" font-size="10.00">ITensor&#45;like tensor train</text>
</g>
<!-- T4ATensorTrain&#45;&gt;T4AITensorCompat -->
<g id="edge3" class="edge">
<title>T4ATensorTrain&#45;&gt;T4AITensorCompat</title>
<path fill="none" stroke="gray" stroke-dasharray="5,2" d="M816.28,-944.62C756.28,-870.7 529.65,-591.49 459.11,-504.58"/>
<polygon fill="gray" stroke="gray" points="461.8,-502.34 452.78,-496.78 456.36,-506.75 461.8,-502.34"/>
</g>
<!-- ITensorMPS -->
<g id="node10" class="node">
<title>ITensorMPS</title>
<path fill="none" stroke="red" stroke-width="3" d="M1314.46,-934.84C1314.46,-934.84 1204.46,-934.84 1204.46,-934.84 1198.46,-934.84 1192.46,-928.84 1192.46,-922.84 1192.46,-922.84 1192.46,-910.84 1192.46,-910.84 1192.46,-904.84 1198.46,-898.84 1204.46,-898.84 1204.46,-898.84 1314.46,-898.84 1314.46,-898.84 1320.46,-898.84 1326.46,-904.84 1326.46,-910.84 1326.46,-910.84 1326.46,-922.84 1326.46,-922.84 1326.46,-928.84 1320.46,-934.84 1314.46,-934.84"/>
<text text-anchor="start" x="1224.46" y="-919.24" font-family="Arial" font-weight="bold" font-size="12.00">ITensorMPS</text>
<text text-anchor="start" x="1196.46" y="-908.84" font-family="Arial" font-size="10.00">ITensors MPS/TT algorithms</text>
</g>
<!-- T4ATensorTrain&#45;&gt;ITensorMPS -->
<g id="edge4" class="edge">
<title>T4ATensorTrain&#45;&gt;ITensorMPS</title>
<path fill="none" stroke="gray" stroke-dasharray="5,2" d="M999.4,-944.68C1062.67,-937.91 1131.53,-930.54 1182.49,-925.08"/>
<polygon fill="gray" stroke="gray" points="1182.87,-928.56 1192.44,-924.02 1182.12,-921.6 1182.87,-928.56"/>
</g>
<!-- T4AAdaptivePatchedTCI -->
<g id="node3" class="node">
<title>T4AAdaptivePatchedTCI</title>
<path fill="none" stroke="black" d="M905.29,-275.29C905.29,-275.29 779.29,-275.29 779.29,-275.29 773.29,-275.29 767.29,-269.29 767.29,-263.29 767.29,-263.29 767.29,-251.29 767.29,-251.29 767.29,-245.29 773.29,-239.29 779.29,-239.29 779.29,-239.29 905.29,-239.29 905.29,-239.29 911.29,-239.29 917.29,-245.29 917.29,-251.29 917.29,-251.29 917.29,-263.29 917.29,-263.29 917.29,-269.29 911.29,-275.29 905.29,-275.29"/>
<text text-anchor="start" x="771.29" y="-259.69" font-family="Arial" font-weight="bold" font-size="12.00">T4AAdaptivePatchedTCI</text>
<text text-anchor="start" x="789.29" y="-249.29" font-family="Arial" font-size="10.00">Adaptive patching + TCI</text>
</g>
<!-- T4AAdaptivePatchedTCI&#45;&gt;T4AITensorCompat -->
<g id="edge5" class="edge">
<title>T4AAdaptivePatchedTCI&#45;&gt;T4AITensorCompat</title>
<path fill="none" stroke="gray" stroke-dasharray="5,2" d="M809.21,-275.4C736.03,-315.46 560.56,-411.52 479.88,-455.68"/>
<polygon fill="gray" stroke="gray" points="478.08,-452.68 470.99,-460.55 481.44,-458.82 478.08,-452.68"/>
</g>
<!-- T4ATensorCI -->
<g id="node7" class="node">
<title>T4ATensorCI</title>
<path fill="none" stroke="black" d="M852.35,-617.41C852.35,-617.41 794.35,-617.41 794.35,-617.41 788.35,-617.41 782.35,-611.41 782.35,-605.41 782.35,-605.41 782.35,-593.41 782.35,-593.41 782.35,-587.41 788.35,-581.41 794.35,-581.41 794.35,-581.41 852.35,-581.41 852.35,-581.41 858.35,-581.41 864.35,-587.41 864.35,-593.41 864.35,-593.41 864.35,-605.41 864.35,-605.41 864.35,-611.41 858.35,-617.41 852.35,-617.41"/>
<text text-anchor="start" x="786.35" y="-601.81" font-family="Arial" font-weight="bold" font-size="12.00">T4ATensorCI</text>
<text text-anchor="start" x="800.35" y="-591.41" font-family="Arial" font-size="10.00">TCI for TT</text>
</g>
<!-- T4AAdaptivePatchedTCI&#45;&gt;T4ATensorCI -->
<g id="edge6" class="edge">
<title>T4AAdaptivePatchedTCI&#45;&gt;T4ATensorCI</title>
<path fill="none" stroke="black" d="M841.27,-275.68C838.15,-332.09 828.69,-502.89 824.92,-570.96"/>
<polygon fill="black" stroke="black" points="821.41,-571.16 824.35,-581.34 828.4,-571.54 821.41,-571.16"/>
</g>
<!-- QuanticsGrids -->
<g id="node8" class="node">
<title>QuanticsGrids</title>
<path fill="none" stroke="black" d="M1246.79,-59.4C1246.79,-59.4 1180.79,-59.4 1180.79,-59.4 1174.79,-59.4 1168.79,-53.4 1168.79,-47.4 1168.79,-47.4 1168.79,-35.4 1168.79,-35.4 1168.79,-29.4 1174.79,-23.4 1180.79,-23.4 1180.79,-23.4 1246.79,-23.4 1246.79,-23.4 1252.79,-23.4 1258.79,-29.4 1258.79,-35.4 1258.79,-35.4 1258.79,-47.4 1258.79,-47.4 1258.79,-53.4 1252.79,-59.4 1246.79,-59.4"/>
<text text-anchor="start" x="1172.79" y="-43.8" font-family="Arial" font-weight="bold" font-size="12.00">QuanticsGrids</text>
<text text-anchor="start" x="1181.79" y="-33.4" font-family="Arial" font-size="10.00">Quantics grids</text>
</g>
<!-- T4AAdaptivePatchedTCI&#45;&gt;QuanticsGrids -->
<g id="edge7" class="edge">
<title>T4AAdaptivePatchedTCI&#45;&gt;QuanticsGrids</title>
<path fill="none" stroke="black" d="M873.32,-239.25C940.52,-200.2 1099.42,-107.86 1173.92,-64.57"/>
<polygon fill="black" stroke="black" points="1175.69,-67.59 1182.58,-59.54 1172.18,-61.53 1175.69,-67.59"/>
</g>
<!-- T4APartitionedTT -->
<g id="node11" class="node">
<title>T4APartitionedTT</title>
<path fill="none" stroke="red" stroke-width="3" d="M145.29,-165.87C145.29,-165.87 57.29,-165.87 57.29,-165.87 51.29,-165.87 45.29,-159.87 45.29,-153.87 45.29,-153.87 45.29,-141.87 45.29,-141.87 45.29,-135.87 51.29,-129.87 57.29,-129.87 57.29,-129.87 145.29,-129.87 145.29,-129.87 151.29,-129.87 157.29,-135.87 157.29,-141.87 157.29,-141.87 157.29,-153.87 157.29,-153.87 157.29,-159.87 151.29,-165.87 145.29,-165.87"/>
<text text-anchor="start" x="50.79" y="-150.27" font-family="Arial" font-weight="bold" font-size="12.00">T4APartitionedTT</text>
<text text-anchor="start" x="49.29" y="-139.87" font-family="Arial" font-size="10.00">Partitioned tensor trains</text>
</g>
<!-- T4AAdaptivePatchedTCI&#45;&gt;T4APartitionedTT -->
<g id="edge8" class="edge">
<title>T4AAdaptivePatchedTCI&#45;&gt;T4APartitionedTT</title>
<path fill="none" stroke="gray" stroke-dasharray="5,2" d="M767.16,-246.2C621.96,-224.76 305.02,-177.96 167.34,-157.63"/>
<polygon fill="gray" stroke="gray" points="167.75,-154.15 157.34,-156.15 166.72,-161.07 167.75,-154.15"/>
</g>
<!-- T4AITensorCompat&#45;&gt;ITensors -->
<g id="edge9" class="edge">
<title>T4AITensorCompat&#45;&gt;ITensors</title>
<path fill="none" stroke="black" d="M418.34,-496.68C357.14,-552.9 170.07,-724.78 99.41,-789.7"/>
<polygon fill="black" stroke="black" points="96.77,-787.37 91.78,-796.71 101.51,-792.53 96.77,-787.37"/>
</g>
<!-- T4AQuanticsTCI -->
<g id="node6" class="node">
<title>T4AQuanticsTCI</title>
<path fill="none" stroke="black" d="M1379.27,-493.25C1379.27,-493.25 1159.27,-493.25 1159.27,-493.25 1153.27,-493.25 1147.27,-487.25 1147.27,-481.25 1147.27,-481.25 1147.27,-465.25 1147.27,-465.25 1147.27,-459.25 1153.27,-453.25 1159.27,-453.25 1159.27,-453.25 1379.27,-453.25 1379.27,-453.25 1385.27,-453.25 1391.27,-459.25 1391.27,-465.25 1391.27,-465.25 1391.27,-481.25 1391.27,-481.25 1391.27,-487.25 1385.27,-493.25 1379.27,-493.25"/>
<text text-anchor="start" x="1222.27" y="-480.65" font-family="Arial" font-weight="bold" font-size="12.00">T4AQuanticsTCI</text>
<text text-anchor="start" x="1151.27" y="-470.25" font-family="Arial" font-size="10.00">Quanticscrossinterpolate, Quantics Fourier Transform </text>
<text text-anchor="start" x="1166.77" y="-460.25" font-family="Arial" font-size="10.00">(to be implemented: quantics transform MPOs)</text>
</g>
<!-- T4AQuanticsTCI&#45;&gt;T4ATensorCI -->
<g id="edge10" class="edge">
<title>T4AQuanticsTCI&#45;&gt;T4ATensorCI</title>
<path fill="none" stroke="black" d="M1198.12,-493.38C1107.69,-518.96 953.81,-562.5 874.29,-585"/>
<polygon fill="black" stroke="black" points="873.17,-581.67 864.5,-587.76 875.08,-588.41 873.17,-581.67"/>
</g>
<!-- T4AQuanticsTCI&#45;&gt;QuanticsGrids -->
<g id="edge11" class="edge">
<title>T4AQuanticsTCI&#45;&gt;QuanticsGrids</title>
<path fill="none" stroke="black" d="M1266.67,-453C1257.67,-382.94 1227.83,-150.71 1217.42,-69.63"/>
<polygon fill="black" stroke="black" points="1220.88,-69.12 1216.13,-59.65 1213.94,-70.02 1220.88,-69.12"/>
</g>
<!-- T4ATensorCI&#45;&gt;T4ATensorTrain -->
<g id="edge12" class="edge">
<title>T4ATensorCI&#45;&gt;T4ATensorTrain</title>
<path fill="none" stroke="black" d="M823.73,-617.42C824.96,-676.25 828.88,-863.05 830.38,-934.52"/>
<polygon fill="black" stroke="black" points="826.88,-934.66 830.59,-944.59 833.88,-934.52 826.88,-934.66"/>
</g>
<!-- T4ATensorCI&#45;&gt;ITensors -->
<g id="edge13" class="edge">
<title>T4ATensorCI&#45;&gt;ITensors</title>
<path fill="none" stroke="gray" stroke-dasharray="5,2" d="M782.15,-611.22C660.29,-646.17 300.39,-749.38 144.91,-793.98"/>
<polygon fill="gray" stroke="gray" points="143.61,-790.71 134.96,-796.83 145.54,-797.43 143.61,-790.71"/>
</g>
<!-- T4ATensorCI&#45;&gt;T4AITensorCompat -->
<g id="edge14" class="edge">
<title>T4ATensorCI&#45;&gt;T4AITensorCompat</title>
<path fill="none" stroke="gray" stroke-dasharray="5,2" d="M782.11,-586.48C715.92,-565.73 585.32,-524.78 505.43,-499.73"/>
<polygon fill="gray" stroke="gray" points="506.05,-496.26 495.47,-496.61 503.96,-502.94 506.05,-496.26"/>
</g>
<!-- T4ATensorCI&#45;&gt;ITensorMPS -->
<g id="edge15" class="edge">
<title>T4ATensorCI&#45;&gt;ITensorMPS</title>
<path fill="none" stroke="gray" stroke-dasharray="5,2" d="M848.36,-617.61C922.73,-671.74 1142.5,-831.71 1226.4,-892.78"/>
<polygon fill="gray" stroke="gray" points="1224.41,-895.65 1234.55,-898.71 1228.52,-889.99 1224.41,-895.65"/>
</g>
<!-- T4AQuantics -->
<g id="node9" class="node">
<title>T4AQuantics</title>
<path fill="none" stroke="red" stroke-width="3" d="M684.56,-40C684.56,-40 472.56,-40 472.56,-40 466.56,-40 460.56,-34 460.56,-28 460.56,-28 460.56,-12 460.56,-12 460.56,-6 466.56,0 472.56,0 472.56,0 684.56,0 684.56,0 690.56,0 696.56,-6 696.56,-12 696.56,-12 696.56,-28 696.56,-28 696.56,-34 690.56,-40 684.56,-40"/>
<text text-anchor="start" x="541.06" y="-27.4" font-family="Arial" font-weight="bold" font-size="12.00">T4AQuantics</text>
<text text-anchor="start" x="522.56" y="-17" font-family="Arial" font-size="10.00">Useful experimental code</text>
<text text-anchor="start" x="464.56" y="-7" font-family="Arial" font-size="10.00"> for quantics tensor networks + Quantics transforms</text>
</g>
<!-- T4AQuantics&#45;&gt;QuanticsGrids -->
<g id="edge16" class="edge">
<title>T4AQuantics&#45;&gt;QuanticsGrids</title>
<path fill="none" stroke="black" d="M696.93,-23.99C834.52,-28.62 1055.81,-36.08 1158.34,-39.53"/>
<polygon fill="black" stroke="black" points="1158.36,-43.03 1168.48,-39.87 1158.6,-36.04 1158.36,-43.03"/>
</g>
<!-- T4AQuantics&#45;&gt;T4APartitionedTT -->
<g id="edge17" class="edge">
<title>T4AQuantics&#45;&gt;T4APartitionedTT</title>
<path fill="none" stroke="black" d="M503.73,-40.05C411.27,-64.82 255.43,-106.58 167.26,-130.2"/>
<polygon fill="black" stroke="black" points="166.13,-126.88 157.38,-132.85 167.94,-133.64 166.13,-126.88"/>
</g>
<!-- T4APartitionedTT&#45;&gt;T4AITensorCompat -->
<g id="edge18" class="edge">
<title>T4APartitionedTT&#45;&gt;T4AITensorCompat</title>
<path fill="none" stroke="black" d="M119.87,-166.13C176.45,-221.69 346.67,-388.88 412.05,-453.1"/>
<polygon fill="black" stroke="black" points="409.9,-455.89 419.49,-460.4 414.81,-450.9 409.9,-455.89"/>
</g>
</g>
</svg>
