<?xml version="1.0" encoding="UTF-8" standalone="no"?>
<!DOCTYPE svg PUBLIC "-//W3C//DTD SVG 1.1//EN"
 "http://www.w3.org/Graphics/SVG/1.1/DTD/svg11.dtd">
<!-- Generated by graphviz version 2.50.0 (20211204.2007)
 -->
<!-- Title: library_dependencies Pages: 1 -->
<svg width="432pt" height="183pt"
 viewBox="0.00 0.00 432.00 182.63" xmlns="http://www.w3.org/2000/svg" xmlns:xlink="http://www.w3.org/1999/xlink">
<g id="graph0" class="graph" transform="scale(0.47 0.47) rotate(0) translate(4 384.9)">
<title>library_dependencies</title>
<polygon fill="white" stroke="transparent" points="-4,4 -4,-384.9 915.92,-384.9 915.92,4 -4,4"/>
<!-- QuanticsTCI -->
<g id="node1" class="node">
<title>QuanticsTCI</title>
<path fill="none" stroke="black" d="M147.39,-82.62C147.39,-82.62 18.39,-82.62 18.39,-82.62 12.39,-82.62 6.39,-76.62 6.39,-70.62 6.39,-70.62 6.39,-44.62 6.39,-44.62 6.39,-38.62 12.39,-32.62 18.39,-32.62 18.39,-32.62 147.39,-32.62 147.39,-32.62 153.39,-32.62 159.39,-38.62 159.39,-44.62 159.39,-44.62 159.39,-70.62 159.39,-70.62 159.39,-76.62 153.39,-82.62 147.39,-82.62"/>
<text text-anchor="start" x="47.39" y="-60.02" font-family="Arial" font-weight="bold" font-size="12.00">QuanticsTCI</text>
<text text-anchor="start" x="20.39" y="-49.62" font-family="Arial" font-size="10.00">Sugar coating for TCI + QTT</text>
</g>
<!-- TensorCrossInterpolation -->
<g id="node3" class="node">
<title>TensorCrossInterpolation</title>
<path fill="none" stroke="black" d="M377.6,-206.72C377.6,-206.72 226.6,-206.72 226.6,-206.72 220.6,-206.72 214.6,-200.72 214.6,-194.72 214.6,-194.72 214.6,-168.72 214.6,-168.72 214.6,-162.72 220.6,-156.72 226.6,-156.72 226.6,-156.72 377.6,-156.72 377.6,-156.72 383.6,-156.72 389.6,-162.72 389.6,-168.72 389.6,-168.72 389.6,-194.72 389.6,-194.72 389.6,-200.72 383.6,-206.72 377.6,-206.72"/>
<text text-anchor="start" x="228.6" y="-184.12" font-family="Arial" font-weight="bold" font-size="12.00">TensorCrossInterpolation</text>
<text text-anchor="start" x="279.1" y="-173.72" font-family="Arial" font-size="10.00">TCI for TT</text>
</g>
<!-- QuanticsTCI&#45;&gt;TensorCrossInterpolation -->
<g id="edge1" class="edge">
<title>QuanticsTCI&#45;&gt;TensorCrossInterpolation</title>
<path fill="none" stroke="black" d="M127.25,-82.74C162.46,-102.67 211.79,-130.6 249.08,-151.71"/>
<polygon fill="black" stroke="black" points="247.38,-154.76 257.81,-156.65 250.83,-148.67 247.38,-154.76"/>
</g>
<!-- QuanticsGrids -->
<g id="node5" class="node">
<title>QuanticsGrids</title>
<path fill="none" stroke="black" d="M98,-333.17C98,-333.17 12,-333.17 12,-333.17 6,-333.17 0,-327.17 0,-321.17 0,-321.17 0,-295.17 0,-295.17 0,-289.17 6,-283.17 12,-283.17 12,-283.17 98,-283.17 98,-283.17 104,-283.17 110,-289.17 110,-295.17 110,-295.17 110,-321.17 110,-321.17 110,-327.17 104,-333.17 98,-333.17"/>
<text text-anchor="start" x="14" y="-310.57" font-family="Arial" font-weight="bold" font-size="12.00">QuanticsGrids</text>
<text text-anchor="start" x="23" y="-300.17" font-family="Arial" font-size="10.00">Quantics grids</text>
</g>
<!-- QuanticsTCI&#45;&gt;QuanticsGrids -->
<g id="edge2" class="edge">
<title>QuanticsTCI&#45;&gt;QuanticsGrids</title>
<path fill="none" stroke="black" d="M80.07,-83.03C75.06,-127.98 64.64,-221.6 58.94,-272.82"/>
<polygon fill="black" stroke="black" points="55.42,-272.75 57.79,-283.07 62.38,-273.52 55.42,-272.75"/>
</g>
<!-- ITensors -->
<g id="node2" class="node">
<title>ITensors</title>
<path fill="none" stroke="black" d="M621.32,-208.3C621.32,-208.3 482.32,-208.3 482.32,-208.3 476.32,-208.3 470.32,-202.3 470.32,-196.3 470.32,-196.3 470.32,-170.3 470.32,-170.3 470.32,-164.3 476.32,-158.3 482.32,-158.3 482.32,-158.3 621.32,-158.3 621.32,-158.3 627.32,-158.3 633.32,-164.3 633.32,-170.3 633.32,-170.3 633.32,-196.3 633.32,-196.3 633.32,-202.3 627.32,-208.3 621.32,-208.3"/>
<text text-anchor="start" x="526.82" y="-185.7" font-family="Arial" font-weight="bold" font-size="12.00">ITensors</text>
<text text-anchor="start" x="484.32" y="-175.3" font-family="Arial" font-size="10.00">Indexed tensor and contraction</text>
</g>
<!-- NDTensors -->
<g id="node8" class="node">
<title>NDTensors</title>
<path fill="none" stroke="black" d="M843.48,-91.2C843.48,-91.2 774.48,-91.2 774.48,-91.2 768.48,-91.2 762.48,-85.2 762.48,-79.2 762.48,-79.2 762.48,-53.2 762.48,-53.2 762.48,-47.2 768.48,-41.2 774.48,-41.2 774.48,-41.2 843.48,-41.2 843.48,-41.2 849.48,-41.2 855.48,-47.2 855.48,-53.2 855.48,-53.2 855.48,-79.2 855.48,-79.2 855.48,-85.2 849.48,-91.2 843.48,-91.2"/>
<text text-anchor="start" x="776.48" y="-68.6" font-family="Arial" font-weight="bold" font-size="12.00">NDTensors</text>
<text text-anchor="start" x="779.98" y="-58.2" font-family="Arial" font-size="10.00">NDTensors.jl</text>
</g>
<!-- ITensors&#45;&gt;NDTensors -->
<g id="edge3" class="edge">
<title>ITensors&#45;&gt;NDTensors</title>
<path fill="none" stroke="black" d="M606.99,-158.18C650.02,-138.58 709.56,-111.47 752.84,-91.77"/>
<polygon fill="black" stroke="black" points="754.44,-94.88 762.09,-87.55 751.54,-88.51 754.44,-94.88"/>
</g>
<!-- TensorCrossInterpolation&#45;&gt;ITensors -->
<g id="edge4" class="edge">
<title>TensorCrossInterpolation&#45;&gt;ITensors</title>
<path fill="none" stroke="gray" stroke-dasharray="5,2" d="M389.79,-182.28C412.56,-182.42 437.15,-182.58 460.12,-182.72"/>
<polygon fill="gray" stroke="gray" points="460.18,-186.22 470.2,-182.78 460.22,-179.22 460.18,-186.22"/>
</g>
<!-- ITensorMPS -->
<g id="node7" class="node">
<title>ITensorMPS</title>
<path fill="none" stroke="black" d="M475.93,-365.17C475.93,-365.17 401.93,-365.17 401.93,-365.17 395.93,-365.17 389.93,-359.17 389.93,-353.17 389.93,-353.17 389.93,-327.17 389.93,-327.17 389.93,-321.17 395.93,-315.17 401.93,-315.17 401.93,-315.17 475.93,-315.17 475.93,-315.17 481.93,-315.17 487.93,-321.17 487.93,-327.17 487.93,-327.17 487.93,-353.17 487.93,-353.17 487.93,-359.17 481.93,-365.17 475.93,-365.17"/>
<text text-anchor="start" x="403.93" y="-342.57" font-family="Arial" font-weight="bold" font-size="12.00">ITensorMPS</text>
<text text-anchor="start" x="414.93" y="-332.17" font-family="Arial" font-size="10.00">MPS/MPO</text>
</g>
<!-- TensorCrossInterpolation&#45;&gt;ITensorMPS -->
<g id="edge5" class="edge">
<title>TensorCrossInterpolation&#45;&gt;ITensorMPS</title>
<path fill="none" stroke="gray" stroke-dasharray="5,2" d="M323.78,-206.83C347.23,-233.98 384.71,-277.39 410.51,-307.25"/>
<polygon fill="gray" stroke="gray" points="407.94,-309.64 417.13,-314.92 413.24,-305.06 407.94,-309.64"/>
</g>
<!-- FastMPOContractions -->
<g id="node4" class="node">
<title>FastMPOContractions</title>
<path fill="none" stroke="black" d="M708.34,-375.94C708.34,-375.94 531.34,-375.94 531.34,-375.94 525.34,-375.94 519.34,-369.94 519.34,-363.94 519.34,-363.94 519.34,-337.94 519.34,-337.94 519.34,-331.94 525.34,-325.94 531.34,-325.94 531.34,-325.94 708.34,-325.94 708.34,-325.94 714.34,-325.94 720.34,-331.94 720.34,-337.94 720.34,-337.94 720.34,-363.94 720.34,-363.94 720.34,-369.94 714.34,-375.94 708.34,-375.94"/>
<text text-anchor="start" x="556.34" y="-353.34" font-family="Arial" font-weight="bold" font-size="12.00">FastMPOContractions</text>
<text text-anchor="start" x="533.34" y="-342.94" font-family="Arial" font-size="10.00">Additional MPO contractions algorithms</text>
</g>
<!-- FastMPOContractions&#45;&gt;ITensors -->
<g id="edge6" class="edge">
<title>FastMPOContractions&#45;&gt;ITensors</title>
<path fill="none" stroke="black" d="M609.66,-325.84C598.04,-297.2 578.96,-250.18 565.91,-218.03"/>
<polygon fill="black" stroke="black" points="569.08,-216.52 562.07,-208.57 562.59,-219.15 569.08,-216.52"/>
</g>
<!-- FastMPOContractions&#45;&gt;ITensorMPS -->
<g id="edge7" class="edge">
<title>FastMPOContractions&#45;&gt;ITensorMPS</title>
<path fill="none" stroke="black" d="M519.34,-344.96C512.29,-344.54 505.33,-344.12 498.62,-343.72"/>
<polygon fill="black" stroke="black" points="498.51,-340.21 488.32,-343.11 498.09,-347.2 498.51,-340.21"/>
</g>
<!-- Quantics -->
<g id="node6" class="node">
<title>Quantics</title>
<path fill="none" stroke="black" d="M899.92,-337.36C899.92,-337.36 747.92,-337.36 747.92,-337.36 741.92,-337.36 735.92,-331.36 735.92,-325.36 735.92,-325.36 735.92,-299.36 735.92,-299.36 735.92,-293.36 741.92,-287.36 747.92,-287.36 747.92,-287.36 899.92,-287.36 899.92,-287.36 905.92,-287.36 911.92,-293.36 911.92,-299.36 911.92,-299.36 911.92,-325.36 911.92,-325.36 911.92,-331.36 905.92,-337.36 899.92,-337.36"/>
<text text-anchor="start" x="797.92" y="-314.76" font-family="Arial" font-weight="bold" font-size="12.00">Quantics</text>
<text text-anchor="start" x="749.92" y="-304.36" font-family="Arial" font-size="10.00">Quantics&#45;related utilities and misc</text>
</g>
<!-- Quantics&#45;&gt;ITensors -->
<g id="edge8" class="edge">
<title>Quantics&#45;&gt;ITensors</title>
<path fill="none" stroke="black" d="M771.14,-287.32C726.22,-266.02 661.63,-235.38 614.18,-212.88"/>
<polygon fill="black" stroke="black" points="615.46,-209.61 604.93,-208.49 612.46,-215.94 615.46,-209.61"/>
</g>
<!-- Quantics&#45;&gt;FastMPOContractions -->
<g id="edge9" class="edge">
<title>Quantics&#45;&gt;FastMPOContractions</title>
<path fill="none" stroke="black" d="M735.89,-329C734.15,-329.33 732.4,-329.66 730.65,-329.99"/>
<polygon fill="black" stroke="black" points="729.77,-326.6 720.59,-331.89 731.07,-333.48 729.77,-326.6"/>
</g>
<!-- Quantics&#45;&gt;ITensorMPS -->
<g id="edge10" class="edge">
<title>Quantics&#45;&gt;ITensorMPS</title>
<path fill="none" stroke="black" d="M735.68,-310.95C673.95,-311.03 589.72,-313.28 516.14,-322.74 510.29,-323.49 504.23,-324.48 498.2,-325.61"/>
<polygon fill="black" stroke="black" points="497.24,-322.23 488.11,-327.62 498.6,-329.1 497.24,-322.23"/>
</g>
<!-- ITensorMPS&#45;&gt;ITensors -->
<g id="edge11" class="edge">
<title>ITensorMPS&#45;&gt;ITensors</title>
<path fill="none" stroke="black" d="M457.07,-314.96C476.24,-288.32 506.58,-246.16 527.75,-216.75"/>
<polygon fill="black" stroke="black" points="530.73,-218.6 533.73,-208.44 525.05,-214.51 530.73,-218.6"/>
</g>
<!-- ProjMPSs -->
<g id="node9" class="node">
<title>ProjMPSs</title>
<path fill="none" stroke="black" d="M336.92,-380.9C336.92,-380.9 184.92,-380.9 184.92,-380.9 178.92,-380.9 172.92,-374.9 172.92,-368.9 172.92,-368.9 172.92,-342.9 172.92,-342.9 172.92,-336.9 178.92,-330.9 184.92,-330.9 184.92,-330.9 336.92,-330.9 336.92,-330.9 342.92,-330.9 348.92,-336.9 348.92,-342.9 348.92,-342.9 348.92,-368.9 348.92,-368.9 348.92,-374.9 342.92,-380.9 336.92,-380.9"/>
<text text-anchor="start" x="232.42" y="-358.3" font-family="Arial" font-weight="bold" font-size="12.00">ProjMPSs</text>
<text text-anchor="start" x="186.92" y="-347.9" font-family="Arial" font-size="10.00">Adaptive patching + multiplication</text>
</g>
<!-- ProjMPSs&#45;&gt;ITensors -->
<g id="edge12" class="edge">
<title>ProjMPSs&#45;&gt;ITensors</title>
<path fill="none" stroke="black" d="M303.22,-330.8C355.57,-299.74 444.66,-246.89 500.76,-213.6"/>
<polygon fill="black" stroke="black" points="502.66,-216.54 509.47,-208.43 499.09,-210.52 502.66,-216.54"/>
</g>
<!-- ProjMPSs&#45;&gt;ITensorMPS -->
<g id="edge13" class="edge">
<title>ProjMPSs&#45;&gt;ITensorMPS</title>
<path fill="none" stroke="black" d="M349.15,-348.1C359.53,-347.19 369.92,-346.27 379.77,-345.4"/>
<polygon fill="black" stroke="black" points="380.15,-348.88 389.8,-344.51 379.54,-341.9 380.15,-348.88"/>
</g>
<!-- TCIAlgorithms -->
<g id="node10" class="node">
<title>TCIAlgorithms</title>
<path fill="none" stroke="black" d="M630.08,-50C630.08,-50 520.08,-50 520.08,-50 514.08,-50 508.08,-44 508.08,-38 508.08,-38 508.08,-12 508.08,-12 508.08,-6 514.08,0 520.08,0 520.08,0 630.08,0 630.08,0 636.08,0 642.08,-6 642.08,-12 642.08,-12 642.08,-38 642.08,-38 642.08,-44 636.08,-50 630.08,-50"/>
<text text-anchor="start" x="533.58" y="-27.4" font-family="Arial" font-weight="bold" font-size="12.00">TCIAlgorithms</text>
<text text-anchor="start" x="522.08" y="-17" font-family="Arial" font-size="10.00">Adaptive patching + TCI</text>
</g>
<!-- TCIAlgorithms&#45;&gt;ITensors -->
<g id="edge14" class="edge">
<title>TCIAlgorithms&#45;&gt;ITensors</title>
<path fill="none" stroke="black" d="M571.4,-50.08C567.51,-76.52 561.36,-118.37 556.99,-148.11"/>
<polygon fill="black" stroke="black" points="553.52,-147.67 555.53,-158.07 560.45,-148.69 553.52,-147.67"/>
</g>
<!-- TCIAlgorithms&#45;&gt;TensorCrossInterpolation -->
<g id="edge15" class="edge">
<title>TCIAlgorithms&#45;&gt;TensorCrossInterpolation</title>
<path fill="none" stroke="black" d="M531.53,-50.01C483.53,-77.56 406.33,-121.88 354.92,-151.39"/>
<polygon fill="black" stroke="black" points="352.88,-148.53 345.95,-156.54 356.37,-154.6 352.88,-148.53"/>
</g>
<!-- TCIAlgorithms&#45;&gt;Quantics -->
<g id="edge16" class="edge">
<title>TCIAlgorithms&#45;&gt;Quantics</title>
<path fill="none" stroke="black" d="M596.95,-50.25C642.03,-102.31 745.28,-221.54 795.48,-279.51"/>
<polygon fill="black" stroke="black" points="793.01,-282 802.2,-287.27 798.3,-277.42 793.01,-282"/>
</g>
<!-- TCIAlgorithms&#45;&gt;ITensorMPS -->
<g id="edge17" class="edge">
<title>TCIAlgorithms&#45;&gt;ITensorMPS</title>
<path fill="none" stroke="black" d="M546.63,-50.39C521.4,-74.66 485.75,-113.6 467.12,-155.1 445.22,-203.89 439.83,-266.41 438.77,-304.86"/>
<polygon fill="black" stroke="black" points="435.27,-304.97 438.58,-315.03 442.27,-305.1 435.27,-304.97"/>
</g>
<!-- TCIItensorConversion -->
<g id="node11" class="node">
<title>TCIItensorConversion</title>
<path fill="none" stroke="black" d="M439.3,-52.6C439.3,-52.6 272.3,-52.6 272.3,-52.6 266.3,-52.6 260.3,-46.6 260.3,-40.6 260.3,-40.6 260.3,-14.6 260.3,-14.6 260.3,-8.6 266.3,-2.6 272.3,-2.6 272.3,-2.6 439.3,-2.6 439.3,-2.6 445.3,-2.6 451.3,-8.6 451.3,-14.6 451.3,-14.6 451.3,-40.6 451.3,-40.6 451.3,-46.6 445.3,-52.6 439.3,-52.6"/>
<text text-anchor="start" x="292.3" y="-30" font-family="Arial" font-weight="bold" font-size="12.00">TCIItensorConversion</text>
<text text-anchor="start" x="274.3" y="-19.6" font-family="Arial" font-size="10.00">Conversion between ITensor and TCI</text>
</g>
<!-- TCIAlgorithms&#45;&gt;TCIItensorConversion -->
<g id="edge18" class="edge">
<title>TCIAlgorithms&#45;&gt;TCIItensorConversion</title>
<path fill="none" stroke="black" d="M507.8,-25.8C493.24,-25.97 477.5,-26.16 461.86,-26.34"/>
<polygon fill="black" stroke="black" points="461.56,-22.85 451.61,-26.47 461.65,-29.85 461.56,-22.85"/>
</g>
<!-- TCIItensorConversion&#45;&gt;ITensors -->
<g id="edge19" class="edge">
<title>TCIItensorConversion&#45;&gt;ITensors</title>
<path fill="none" stroke="black" d="M387.29,-52.62C421.2,-79.55 475.22,-122.46 512.04,-151.7"/>
<polygon fill="black" stroke="black" points="510.07,-154.61 520.08,-158.09 514.43,-149.13 510.07,-154.61"/>
</g>
<!-- TCIItensorConversion&#45;&gt;TensorCrossInterpolation -->
<g id="edge20" class="edge">
<title>TCIItensorConversion&#45;&gt;TensorCrossInterpolation</title>
<path fill="none" stroke="black" d="M347.05,-52.71C338.12,-78.34 324.18,-118.34 314.2,-147"/>
<polygon fill="black" stroke="black" points="310.83,-146.03 310.84,-156.63 317.44,-148.33 310.83,-146.03"/>
</g>
<!-- TCIItensorConversion&#45;&gt;ITensorMPS -->
<g id="edge21" class="edge">
<title>TCIItensorConversion&#45;&gt;ITensorMPS</title>
<path fill="none" stroke="black" d="M363.64,-53.07C371.36,-78.44 383.34,-118.55 392.8,-153.52 407.01,-206.09 421.85,-267.47 430.74,-305.07"/>
<polygon fill="black" stroke="black" points="427.38,-306.09 433.08,-315.02 434.2,-304.48 427.38,-306.09"/>
</g>
</g>
</svg>
