<?xml version="1.0" encoding="UTF-8" standalone="no"?>
<!DOCTYPE svg PUBLIC "-//W3C//DTD SVG 1.1//EN"
 "http://www.w3.org/Graphics/SVG/1.1/DTD/svg11.dtd">
<!-- Generated by graphviz version 2.50.0 (20211204.2007)
 -->
<!-- Title: library_dependencies Pages: 1 -->
<svg width="576pt" height="322pt"
 viewBox="0.00 0.00 576.00 322.00" xmlns="http://www.w3.org/2000/svg" xmlns:xlink="http://www.w3.org/1999/xlink">
<g id="graph0" class="graph" transform="scale(0.59 0.59) rotate(0) translate(4 540.37)">
<title>library_dependencies</title>
<polygon fill="white" stroke="transparent" points="-4,4 -4,-540.37 969.79,-540.37 969.79,4 -4,4"/>
<!-- ParallelMPOContractions -->
<g id="node1" class="node">
<title>ParallelMPOContractions</title>
<path fill="none" stroke="black" d="M389.9,-64.04C389.9,-64.04 241.9,-64.04 241.9,-64.04 235.9,-64.04 229.9,-58.04 229.9,-52.04 229.9,-52.04 229.9,-26.04 229.9,-26.04 229.9,-20.04 235.9,-14.04 241.9,-14.04 241.9,-14.04 389.9,-14.04 389.9,-14.04 395.9,-14.04 401.9,-20.04 401.9,-26.04 401.9,-26.04 401.9,-52.04 401.9,-52.04 401.9,-58.04 395.9,-64.04 389.9,-64.04"/>
<text text-anchor="start" x="243.9" y="-41.44" font-family="Arial" font-weight="bold" font-size="12.00">ParallelMPOContractions</text>
<text text-anchor="start" x="249.4" y="-31.04" font-family="Arial" font-size="10.00">Parallelized MPO contractions</text>
</g>
<!-- MPI -->
<g id="node3" class="node">
<title>MPI</title>
<path fill="none" stroke="black" d="M527.43,-54.6C527.43,-54.6 497.43,-54.6 497.43,-54.6 491.43,-54.6 485.43,-48.6 485.43,-42.6 485.43,-42.6 485.43,-16.6 485.43,-16.6 485.43,-10.6 491.43,-4.6 497.43,-4.6 497.43,-4.6 527.43,-4.6 527.43,-4.6 533.43,-4.6 539.43,-10.6 539.43,-16.6 539.43,-16.6 539.43,-42.6 539.43,-42.6 539.43,-48.6 533.43,-54.6 527.43,-54.6"/>
<text text-anchor="start" x="501.43" y="-32" font-family="Arial" font-weight="bold" font-size="12.00">MPI</text>
<text text-anchor="start" x="502.93" y="-21.6" font-family="Arial" font-size="10.00">MPI</text>
</g>
<!-- ParallelMPOContractions&#45;&gt;MPI -->
<g id="edge1" class="edge">
<title>ParallelMPOContractions&#45;&gt;MPI</title>
<path fill="none" stroke="black" d="M402.1,-34.9C427.57,-33.67 454.14,-32.4 474.82,-31.4"/>
<polygon fill="black" stroke="black" points="475.24,-34.89 485.06,-30.91 474.9,-27.89 475.24,-34.89"/>
</g>
<!-- TensorNetworks -->
<g id="node11" class="node">
<title>TensorNetworks</title>
<path fill="none" stroke="red" stroke-width="3" d="M474.37,-374.55C474.37,-374.55 335.37,-374.55 335.37,-374.55 329.37,-374.55 323.37,-368.55 323.37,-362.55 323.37,-362.55 323.37,-336.55 323.37,-336.55 323.37,-330.55 329.37,-324.55 335.37,-324.55 335.37,-324.55 474.37,-324.55 474.37,-324.55 480.37,-324.55 486.37,-330.55 486.37,-336.55 486.37,-336.55 486.37,-362.55 486.37,-362.55 486.37,-368.55 480.37,-374.55 474.37,-374.55"/>
<text text-anchor="start" x="357.87" y="-351.95" font-family="Arial" font-weight="bold" font-size="12.00">TensorNetworks</text>
<text text-anchor="start" x="337.37" y="-341.55" font-family="Arial" font-size="10.00">ITensor&#45;based tensor networks</text>
</g>
<!-- ParallelMPOContractions&#45;&gt;TensorNetworks -->
<g id="edge2" class="edge">
<title>ParallelMPOContractions&#45;&gt;TensorNetworks</title>
<path fill="none" stroke="gray" stroke-dasharray="5,2" d="M320.55,-64.32C327.51,-100.77 341.68,-170 358.99,-227.55 367.99,-257.45 380.61,-290.56 390.34,-314.74"/>
<polygon fill="gray" stroke="gray" points="387.18,-316.24 394.18,-324.19 393.66,-313.61 387.18,-316.24"/>
</g>
<!-- TreeTCI -->
<g id="node2" class="node">
<title>TreeTCI</title>
<path fill="none" stroke="black" d="M938.87,-88.68C938.87,-88.68 848.87,-88.68 848.87,-88.68 842.87,-88.68 836.87,-82.68 836.87,-76.68 836.87,-76.68 836.87,-50.68 836.87,-50.68 836.87,-44.68 842.87,-38.68 848.87,-38.68 848.87,-38.68 938.87,-38.68 938.87,-38.68 944.87,-38.68 950.87,-44.68 950.87,-50.68 950.87,-50.68 950.87,-76.68 950.87,-76.68 950.87,-82.68 944.87,-88.68 938.87,-88.68"/>
<text text-anchor="start" x="871.37" y="-66.08" font-family="Arial" font-weight="bold" font-size="12.00">TreeTCI</text>
<text text-anchor="start" x="850.87" y="-55.68" font-family="Arial" font-size="10.00">TCI for tree tensors</text>
</g>
<!-- SimpleTensorNetworks -->
<g id="node5" class="node">
<title>SimpleTensorNetworks</title>
<path fill="none" stroke="black" d="M953.79,-306.07C953.79,-306.07 769.79,-306.07 769.79,-306.07 763.79,-306.07 757.79,-300.07 757.79,-294.07 757.79,-294.07 757.79,-268.07 757.79,-268.07 757.79,-262.07 763.79,-256.07 769.79,-256.07 769.79,-256.07 953.79,-256.07 953.79,-256.07 959.79,-256.07 965.79,-262.07 965.79,-268.07 965.79,-268.07 965.79,-294.07 965.79,-294.07 965.79,-300.07 959.79,-306.07 953.79,-306.07"/>
<text text-anchor="start" x="795.29" y="-283.47" font-family="Arial" font-weight="bold" font-size="12.00">SimpleTensorNetworks</text>
<text text-anchor="start" x="771.79" y="-273.07" font-family="Arial" font-size="10.00">Simple tensor trains/tree tensor networks</text>
</g>
<!-- TreeTCI&#45;&gt;SimpleTensorNetworks -->
<g id="edge3" class="edge">
<title>TreeTCI&#45;&gt;SimpleTensorNetworks</title>
<path fill="none" stroke="black" d="M890.13,-89.05C884.41,-127.82 873.47,-201.97 866.98,-245.91"/>
<polygon fill="black" stroke="black" points="863.51,-245.46 865.51,-255.87 870.43,-246.49 863.51,-245.46"/>
</g>
<!-- TCICore -->
<g id="node16" class="node">
<title>TCICore</title>
<path fill="none" stroke="black" d="M758.46,-219.78C758.46,-219.78 557.46,-219.78 557.46,-219.78 551.46,-219.78 545.46,-213.78 545.46,-207.78 545.46,-207.78 545.46,-181.78 545.46,-181.78 545.46,-175.78 551.46,-169.78 557.46,-169.78 557.46,-169.78 758.46,-169.78 758.46,-169.78 764.46,-169.78 770.46,-175.78 770.46,-181.78 770.46,-181.78 770.46,-207.78 770.46,-207.78 770.46,-213.78 764.46,-219.78 758.46,-219.78"/>
<text text-anchor="start" x="633.96" y="-197.18" font-family="Arial" font-weight="bold" font-size="12.00">TCICore</text>
<text text-anchor="start" x="559.46" y="-186.78" font-family="Arial" font-size="10.00">TCI core algorithms (LU decomposition, etc.)</text>
</g>
<!-- TreeTCI&#45;&gt;TCICore -->
<g id="edge4" class="edge">
<title>TreeTCI&#45;&gt;TCICore</title>
<path fill="none" stroke="black" d="M848.66,-88.81C809.65,-110.49 753.22,-141.85 711.86,-164.83"/>
<polygon fill="black" stroke="black" points="710.05,-161.83 703.01,-169.75 713.45,-167.95 710.05,-161.83"/>
</g>
<!-- QuanticsTCI -->
<g id="node4" class="node">
<title>QuanticsTCI</title>
<path fill="none" stroke="black" d="M749.45,-523.09C749.45,-523.09 620.45,-523.09 620.45,-523.09 614.45,-523.09 608.45,-517.09 608.45,-511.09 608.45,-511.09 608.45,-485.09 608.45,-485.09 608.45,-479.09 614.45,-473.09 620.45,-473.09 620.45,-473.09 749.45,-473.09 749.45,-473.09 755.45,-473.09 761.45,-479.09 761.45,-485.09 761.45,-485.09 761.45,-511.09 761.45,-511.09 761.45,-517.09 755.45,-523.09 749.45,-523.09"/>
<text text-anchor="start" x="649.45" y="-500.49" font-family="Arial" font-weight="bold" font-size="12.00">QuanticsTCI</text>
<text text-anchor="start" x="622.45" y="-490.09" font-family="Arial" font-size="10.00">Sugar coating for TCI + QTT</text>
</g>
<!-- TensorCrossInterpolation -->
<g id="node8" class="node">
<title>TensorCrossInterpolation</title>
<path fill="none" stroke="black" d="M525.19,-224.35C525.19,-224.35 374.19,-224.35 374.19,-224.35 368.19,-224.35 362.19,-218.35 362.19,-212.35 362.19,-212.35 362.19,-186.35 362.19,-186.35 362.19,-180.35 368.19,-174.35 374.19,-174.35 374.19,-174.35 525.19,-174.35 525.19,-174.35 531.19,-174.35 537.19,-180.35 537.19,-186.35 537.19,-186.35 537.19,-212.35 537.19,-212.35 537.19,-218.35 531.19,-224.35 525.19,-224.35"/>
<text text-anchor="start" x="376.19" y="-201.75" font-family="Arial" font-weight="bold" font-size="12.00">TensorCrossInterpolation</text>
<text text-anchor="start" x="426.69" y="-191.35" font-family="Arial" font-size="10.00">TCI for TT</text>
</g>
<!-- QuanticsTCI&#45;&gt;TensorCrossInterpolation -->
<g id="edge5" class="edge">
<title>QuanticsTCI&#45;&gt;TensorCrossInterpolation</title>
<path fill="none" stroke="black" d="M646.34,-473C611.81,-449.02 561.63,-410.15 528.17,-366.66 496.51,-325.52 473.52,-269.56 460.89,-233.94"/>
<polygon fill="black" stroke="black" points="464.19,-232.76 457.61,-224.46 457.58,-235.05 464.19,-232.76"/>
</g>
<!-- QuanticsGrids -->
<g id="node13" class="node">
<title>QuanticsGrids</title>
<path fill="none" stroke="black" d="M931.27,-511.36C931.27,-511.36 845.27,-511.36 845.27,-511.36 839.27,-511.36 833.27,-505.36 833.27,-499.36 833.27,-499.36 833.27,-473.36 833.27,-473.36 833.27,-467.36 839.27,-461.36 845.27,-461.36 845.27,-461.36 931.27,-461.36 931.27,-461.36 937.27,-461.36 943.27,-467.36 943.27,-473.36 943.27,-473.36 943.27,-499.36 943.27,-499.36 943.27,-505.36 937.27,-511.36 931.27,-511.36"/>
<text text-anchor="start" x="847.27" y="-488.76" font-family="Arial" font-weight="bold" font-size="12.00">QuanticsGrids</text>
<text text-anchor="start" x="856.27" y="-478.36" font-family="Arial" font-size="10.00">Quantics grids</text>
</g>
<!-- QuanticsTCI&#45;&gt;QuanticsGrids -->
<g id="edge6" class="edge">
<title>QuanticsTCI&#45;&gt;QuanticsGrids</title>
<path fill="none" stroke="black" d="M761.53,-493.67C781.75,-492.5 803.39,-491.25 822.96,-490.12"/>
<polygon fill="black" stroke="black" points="823.21,-493.62 832.99,-489.54 822.8,-486.63 823.21,-493.62"/>
</g>
<!-- ITensors -->
<g id="node6" class="node">
<title>ITensors</title>
<path fill="none" stroke="red" stroke-width="3" d="M561.97,-536.37C561.97,-536.37 422.97,-536.37 422.97,-536.37 416.97,-536.37 410.97,-530.37 410.97,-524.37 410.97,-524.37 410.97,-498.37 410.97,-498.37 410.97,-492.37 416.97,-486.37 422.97,-486.37 422.97,-486.37 561.97,-486.37 561.97,-486.37 567.97,-486.37 573.97,-492.37 573.97,-498.37 573.97,-498.37 573.97,-524.37 573.97,-524.37 573.97,-530.37 567.97,-536.37 561.97,-536.37"/>
<text text-anchor="start" x="467.47" y="-513.77" font-family="Arial" font-weight="bold" font-size="12.00">ITensors</text>
<text text-anchor="start" x="424.97" y="-503.37" font-family="Arial" font-size="10.00">Indexed tensor and contraction</text>
</g>
<!-- PatchedTCI -->
<g id="node7" class="node">
<title>PatchedTCI</title>
<path fill="none" stroke="red" stroke-width="3" d="M285.47,-284.44C285.47,-284.44 175.47,-284.44 175.47,-284.44 169.47,-284.44 163.47,-278.44 163.47,-272.44 163.47,-272.44 163.47,-246.44 163.47,-246.44 163.47,-240.44 169.47,-234.44 175.47,-234.44 175.47,-234.44 285.47,-234.44 285.47,-234.44 291.47,-234.44 297.47,-240.44 297.47,-246.44 297.47,-246.44 297.47,-272.44 297.47,-272.44 297.47,-278.44 291.47,-284.44 285.47,-284.44"/>
<text text-anchor="start" x="196.97" y="-261.84" font-family="Arial" font-weight="bold" font-size="12.00">PatchedTCI</text>
<text text-anchor="start" x="177.47" y="-251.44" font-family="Arial" font-size="10.00">Adaptive patching + TCI</text>
</g>
<!-- PatchedTCI&#45;&gt;TensorCrossInterpolation -->
<g id="edge7" class="edge">
<title>PatchedTCI&#45;&gt;TensorCrossInterpolation</title>
<path fill="none" stroke="black" d="M297.74,-241.01C314.91,-236.3 333.73,-231.14 352.09,-226.11"/>
<polygon fill="black" stroke="black" points="353.22,-229.43 361.93,-223.41 351.36,-222.68 353.22,-229.43"/>
</g>
<!-- TensorNetworkOperations -->
<g id="node9" class="node">
<title>TensorNetworkOperations</title>
<path fill="none" stroke="red" stroke-width="3" d="M180.12,-108.07C180.12,-108.07 25.12,-108.07 25.12,-108.07 19.12,-108.07 13.12,-102.07 13.12,-96.07 13.12,-96.07 13.12,-70.07 13.12,-70.07 13.12,-64.07 19.12,-58.07 25.12,-58.07 25.12,-58.07 180.12,-58.07 180.12,-58.07 186.12,-58.07 192.12,-64.07 192.12,-70.07 192.12,-70.07 192.12,-96.07 192.12,-96.07 192.12,-102.07 186.12,-108.07 180.12,-108.07"/>
<text text-anchor="start" x="27.12" y="-85.47" font-family="Arial" font-weight="bold" font-size="12.00">TensorNetworkOperations</text>
<text text-anchor="start" x="28.12" y="-75.07" font-family="Arial" font-size="10.00">Quantics.jl &#45; QuanticsTransofms.jl</text>
</g>
<!-- PatchedTCI&#45;&gt;TensorNetworkOperations -->
<g id="edge8" class="edge">
<title>PatchedTCI&#45;&gt;TensorNetworkOperations</title>
<path fill="none" stroke="black" d="M212.16,-234.17C189.75,-203.27 151.75,-150.84 126.92,-116.59"/>
<polygon fill="black" stroke="black" points="129.61,-114.34 120.91,-108.29 123.94,-118.45 129.61,-114.34"/>
</g>
<!-- TensorCrossInterpolation&#45;&gt;SimpleTensorNetworks -->
<g id="edge9" class="edge">
<title>TensorCrossInterpolation&#45;&gt;SimpleTensorNetworks</title>
<path fill="none" stroke="black" d="M537.36,-221.9C539,-222.27 540.64,-222.63 542.26,-222.98 609.96,-237.76 686.31,-251.74 747.4,-262.28"/>
<polygon fill="black" stroke="black" points="747,-265.76 757.45,-264 748.19,-258.86 747,-265.76"/>
</g>
<!-- TensorCrossInterpolation&#45;&gt;ITensors -->
<g id="edge10" class="edge">
<title>TensorCrossInterpolation&#45;&gt;ITensors</title>
<path fill="none" stroke="gray" stroke-dasharray="5,2" d="M460.38,-224.49C470.11,-248.78 483.8,-286.84 489.57,-321.35 498.49,-374.75 497.17,-437.75 495.07,-476.12"/>
<polygon fill="gray" stroke="gray" points="491.56,-476.07 494.46,-486.26 498.55,-476.48 491.56,-476.07"/>
</g>
<!-- TensorCrossInterpolation&#45;&gt;TensorNetworks -->
<g id="edge11" class="edge">
<title>TensorCrossInterpolation&#45;&gt;TensorNetworks</title>
<path fill="none" stroke="gray" stroke-dasharray="5,2" d="M442.19,-224.49C434.82,-249.18 423.52,-287.07 415.28,-314.67"/>
<polygon fill="gray" stroke="gray" points="411.9,-313.75 412.39,-324.33 418.61,-315.75 411.9,-313.75"/>
</g>
<!-- TensorCrossInterpolation&#45;&gt;TCICore -->
<g id="edge12" class="edge">
<title>TensorCrossInterpolation&#45;&gt;TCICore</title>
<path fill="none" stroke="black" d="M537.41,-197.43C537.5,-197.43 537.58,-197.42 537.66,-197.42"/>
<polygon fill="black" stroke="black" points="535.53,-200.97 545.45,-197.25 535.38,-193.97 535.53,-200.97"/>
</g>
<!-- TensorNetworkContractions -->
<g id="node12" class="node">
<title>TensorNetworkContractions</title>
<path fill="none" stroke="red" stroke-width="3" d="M178,-465.17C178,-465.17 12,-465.17 12,-465.17 6,-465.17 0,-459.17 0,-453.17 0,-453.17 0,-427.17 0,-427.17 0,-421.17 6,-415.17 12,-415.17 12,-415.17 178,-415.17 178,-415.17 184,-415.17 190,-421.17 190,-427.17 190,-427.17 190,-453.17 190,-453.17 190,-459.17 184,-465.17 178,-465.17"/>
<text text-anchor="start" x="14" y="-442.57" font-family="Arial" font-weight="bold" font-size="12.00">TensorNetworkContractions</text>
<text text-anchor="start" x="43" y="-432.17" font-family="Arial" font-size="10.00">Contractions algorithms</text>
</g>
<!-- TensorNetworkOperations&#45;&gt;TensorNetworkContractions -->
<g id="edge13" class="edge">
<title>TensorNetworkOperations&#45;&gt;TensorNetworkContractions</title>
<path fill="none" stroke="black" d="M102.09,-108.18C100.76,-170.55 97.3,-332.65 95.76,-404.73"/>
<polygon fill="black" stroke="black" points="92.25,-405.02 95.54,-415.09 99.25,-405.17 92.25,-405.02"/>
</g>
<!-- ParallelTCI -->
<g id="node10" class="node">
<title>ParallelTCI</title>
<path fill="none" stroke="black" d="M735.79,-50C735.79,-50 661.79,-50 661.79,-50 655.79,-50 649.79,-44 649.79,-38 649.79,-38 649.79,-12 649.79,-12 649.79,-6 655.79,0 661.79,0 661.79,0 735.79,0 735.79,0 741.79,0 747.79,-6 747.79,-12 747.79,-12 747.79,-38 747.79,-38 747.79,-44 741.79,-50 735.79,-50"/>
<text text-anchor="start" x="667.79" y="-27.4" font-family="Arial" font-weight="bold" font-size="12.00">ParallelTCI</text>
<text text-anchor="start" x="663.79" y="-17" font-family="Arial" font-size="10.00">Parallelized TCI</text>
</g>
<!-- ParallelTCI&#45;&gt;MPI -->
<g id="edge14" class="edge">
<title>ParallelTCI&#45;&gt;MPI</title>
<path fill="none" stroke="black" d="M649.33,-26.22C618.03,-26.99 578.2,-27.97 549.59,-28.68"/>
<polygon fill="black" stroke="black" points="549.5,-25.18 539.59,-28.93 549.67,-32.18 549.5,-25.18"/>
</g>
<!-- ParallelTCI&#45;&gt;SimpleTensorNetworks -->
<g id="edge15" class="edge">
<title>ParallelTCI&#45;&gt;SimpleTensorNetworks</title>
<path fill="none" stroke="black" d="M714.71,-50.02C744.17,-96.3 807.18,-195.28 840.36,-247.39"/>
<polygon fill="black" stroke="black" points="837.48,-249.39 845.8,-255.95 843.38,-245.63 837.48,-249.39"/>
</g>
<!-- ParallelTCI&#45;&gt;TCICore -->
<g id="edge16" class="edge">
<title>ParallelTCI&#45;&gt;TCICore</title>
<path fill="none" stroke="black" d="M692.76,-50.05C685.8,-79.02 674.28,-126.9 666.42,-159.59"/>
<polygon fill="black" stroke="black" points="662.94,-159.09 664.01,-169.63 669.75,-160.73 662.94,-159.09"/>
</g>
<!-- TensorNetworks&#45;&gt;ITensors -->
<g id="edge17" class="edge">
<title>TensorNetworks&#45;&gt;ITensors</title>
<path fill="none" stroke="black" d="M418.55,-374.84C433.47,-402.39 457.41,-446.62 473.99,-477.23"/>
<polygon fill="black" stroke="black" points="471.04,-479.14 478.88,-486.27 477.19,-475.81 471.04,-479.14"/>
</g>
<!-- TensorNetworkContractions&#45;&gt;TensorNetworks -->
<g id="edge18" class="edge">
<title>TensorNetworkContractions&#45;&gt;TensorNetworks</title>
<path fill="none" stroke="black" d="M180.49,-415.17C221.79,-403.09 271.39,-388.59 313.44,-376.29"/>
<polygon fill="black" stroke="black" points="314.51,-379.62 323.12,-373.46 312.54,-372.91 314.51,-379.62"/>
</g>
<!-- QuanticsTransforms -->
<g id="node14" class="node">
<title>QuanticsTransforms</title>
<path fill="none" stroke="black" d="M664.37,-363.46C664.37,-363.46 543.37,-363.46 543.37,-363.46 537.37,-363.46 531.37,-357.46 531.37,-351.46 531.37,-351.46 531.37,-325.46 531.37,-325.46 531.37,-319.46 537.37,-313.46 543.37,-313.46 543.37,-313.46 664.37,-313.46 664.37,-313.46 670.37,-313.46 676.37,-319.46 676.37,-325.46 676.37,-325.46 676.37,-351.46 676.37,-351.46 676.37,-357.46 670.37,-363.46 664.37,-363.46"/>
<text text-anchor="start" x="545.37" y="-340.86" font-family="Arial" font-weight="bold" font-size="12.00">QuanticsTransforms</text>
<text text-anchor="start" x="559.37" y="-330.46" font-family="Arial" font-size="10.00">Quantics transforms</text>
</g>
<!-- QuanticsTransforms&#45;&gt;SimpleTensorNetworks -->
<g id="edge19" class="edge">
<title>QuanticsTransforms&#45;&gt;SimpleTensorNetworks</title>
<path fill="none" stroke="black" d="M676.4,-322.32C698.53,-317.4 723.42,-311.86 747.62,-306.47"/>
<polygon fill="black" stroke="black" points="748.56,-309.85 757.56,-304.26 747.04,-303.02 748.56,-309.85"/>
</g>
<!-- QuanticsTransforms&#45;&gt;TensorNetworks -->
<g id="edge20" class="edge">
<title>QuanticsTransforms&#45;&gt;TensorNetworks</title>
<path fill="none" stroke="gray" stroke-dasharray="5,2" d="M531.18,-342.51C519.93,-343.14 508.18,-343.79 496.58,-344.44"/>
<polygon fill="gray" stroke="gray" points="496.23,-340.95 486.44,-345.01 496.62,-347.94 496.23,-340.95"/>
</g>
<!-- QuanticsTransforms&#45;&gt;QuanticsGrids -->
<g id="edge21" class="edge">
<title>QuanticsTransforms&#45;&gt;QuanticsGrids</title>
<path fill="none" stroke="black" d="M652.11,-363.55C701.45,-389.2 778.09,-429.06 830.6,-456.37"/>
<polygon fill="black" stroke="black" points="829.3,-459.64 839.79,-461.14 832.53,-453.42 829.3,-459.64"/>
</g>
<!-- ProjMPSs -->
<g id="node15" class="node">
<title>ProjMPSs</title>
<path fill="none" stroke="red" stroke-width="3" d="M364.69,-529.95C364.69,-529.95 212.69,-529.95 212.69,-529.95 206.69,-529.95 200.69,-523.95 200.69,-517.95 200.69,-517.95 200.69,-491.95 200.69,-491.95 200.69,-485.95 206.69,-479.95 212.69,-479.95 212.69,-479.95 364.69,-479.95 364.69,-479.95 370.69,-479.95 376.69,-485.95 376.69,-491.95 376.69,-491.95 376.69,-517.95 376.69,-517.95 376.69,-523.95 370.69,-529.95 364.69,-529.95"/>
<text text-anchor="start" x="260.19" y="-507.35" font-family="Arial" font-weight="bold" font-size="12.00">ProjMPSs</text>
<text text-anchor="start" x="214.69" y="-496.95" font-family="Arial" font-size="10.00">Adaptive patching + multiplication</text>
</g>
<!-- ProjMPSs&#45;&gt;TensorNetworks -->
<g id="edge22" class="edge">
<title>ProjMPSs&#45;&gt;TensorNetworks</title>
<path fill="none" stroke="black" d="M307.61,-479.64C327.34,-453.26 358.33,-411.8 380.01,-382.79"/>
<polygon fill="black" stroke="black" points="382.96,-384.7 386.14,-374.6 377.35,-380.51 382.96,-384.7"/>
</g>
</g>
</svg>
