<?xml version="1.0" encoding="UTF-8" standalone="no"?>
<!DOCTYPE svg PUBLIC "-//W3C//DTD SVG 1.1//EN"
 "http://www.w3.org/Graphics/SVG/1.1/DTD/svg11.dtd">
<!-- Generated by graphviz version 2.50.0 (20211204.2007)
 -->
<!-- Title: library_dependencies Pages: 1 -->
<svg width="576pt" height="288pt"
 viewBox="0.00 0.00 576.00 288.07" xmlns="http://www.w3.org/2000/svg" xmlns:xlink="http://www.w3.org/1999/xlink">
<g id="graph0" class="graph" transform="scale(0.75 0.75) rotate(0) translate(4 378.25)">
<title>library_dependencies</title>
<polygon fill="white" stroke="transparent" points="-4,4 -4,-378.25 760.33,-378.25 760.33,4 -4,4"/>
<!-- T4APartitionedTT -->
<g id="node1" class="node">
<title>T4APartitionedTT</title>
<path fill="none" stroke="red" stroke-width="3" d="M168.69,-82.55C168.69,-82.55 60.69,-82.55 60.69,-82.55 54.69,-82.55 48.69,-76.55 48.69,-70.55 48.69,-70.55 48.69,-44.55 48.69,-44.55 48.69,-38.55 54.69,-32.55 60.69,-32.55 60.69,-32.55 168.69,-32.55 168.69,-32.55 174.69,-32.55 180.69,-38.55 180.69,-44.55 180.69,-44.55 180.69,-70.55 180.69,-70.55 180.69,-76.55 174.69,-82.55 168.69,-82.55"/>
<text text-anchor="start" x="64.19" y="-59.95" font-family="Arial" font-weight="bold" font-size="12.00">T4APartitionedTT</text>
<text text-anchor="start" x="62.69" y="-49.55" font-family="Arial" font-size="10.00">Partitioned tensor trains</text>
</g>
<!-- T4AITensorCompat -->
<g id="node8" class="node">
<title>T4AITensorCompat</title>
<path fill="none" stroke="red" stroke-width="3" d="M356.28,-93.73C356.28,-93.73 240.28,-93.73 240.28,-93.73 234.28,-93.73 228.28,-87.73 228.28,-81.73 228.28,-81.73 228.28,-55.73 228.28,-55.73 228.28,-49.73 234.28,-43.73 240.28,-43.73 240.28,-43.73 356.28,-43.73 356.28,-43.73 362.28,-43.73 368.28,-49.73 368.28,-55.73 368.28,-55.73 368.28,-81.73 368.28,-81.73 368.28,-87.73 362.28,-93.73 356.28,-93.73"/>
<text text-anchor="start" x="242.28" y="-71.13" font-family="Arial" font-weight="bold" font-size="12.00">T4AITensorCompat</text>
<text text-anchor="start" x="246.78" y="-60.73" font-family="Arial" font-size="10.00">ITensor&#45;like tensor train</text>
</g>
<!-- T4APartitionedTT&#45;&gt;T4AITensorCompat -->
<g id="edge1" class="edge">
<title>T4APartitionedTT&#45;&gt;T4AITensorCompat</title>
<path fill="none" stroke="black" d="M180.71,-61.57C192.76,-62.3 205.45,-63.08 217.86,-63.83"/>
<polygon fill="black" stroke="black" points="218,-67.35 228.2,-64.46 218.43,-60.36 218,-67.35"/>
</g>
<!-- T4ATensorCI -->
<g id="node2" class="node">
<title>T4ATensorCI</title>
<path fill="none" stroke="black" d="M691.38,-99.56C691.38,-99.56 613.38,-99.56 613.38,-99.56 607.38,-99.56 601.38,-93.56 601.38,-87.56 601.38,-87.56 601.38,-61.56 601.38,-61.56 601.38,-55.56 607.38,-49.56 613.38,-49.56 613.38,-49.56 691.38,-49.56 691.38,-49.56 697.38,-49.56 703.38,-55.56 703.38,-61.56 703.38,-61.56 703.38,-87.56 703.38,-87.56 703.38,-93.56 697.38,-99.56 691.38,-99.56"/>
<text text-anchor="start" x="615.38" y="-76.96" font-family="Arial" font-weight="bold" font-size="12.00">T4ATensorCI</text>
<text text-anchor="start" x="629.38" y="-66.56" font-family="Arial" font-size="10.00">TCI for TT</text>
</g>
<!-- T4ATensorCI&#45;&gt;T4AITensorCompat -->
<g id="edge2" class="edge">
<title>T4ATensorCI&#45;&gt;T4AITensorCompat</title>
<path fill="none" stroke="gray" stroke-dasharray="5,2" d="M601.27,-73.72C542.98,-72.76 446.91,-71.18 378.59,-70.05"/>
<polygon fill="gray" stroke="gray" points="378.35,-66.55 368.3,-69.88 378.24,-73.55 378.35,-66.55"/>
</g>
<!-- QuanticsGrids -->
<g id="node3" class="node">
<title>QuanticsGrids</title>
<path fill="none" stroke="black" d="M396.73,-374.25C396.73,-374.25 310.73,-374.25 310.73,-374.25 304.73,-374.25 298.73,-368.25 298.73,-362.25 298.73,-362.25 298.73,-336.25 298.73,-336.25 298.73,-330.25 304.73,-324.25 310.73,-324.25 310.73,-324.25 396.73,-324.25 396.73,-324.25 402.73,-324.25 408.73,-330.25 408.73,-336.25 408.73,-336.25 408.73,-362.25 408.73,-362.25 408.73,-368.25 402.73,-374.25 396.73,-374.25"/>
<text text-anchor="start" x="312.73" y="-351.65" font-family="Arial" font-weight="bold" font-size="12.00">QuanticsGrids</text>
<text text-anchor="start" x="321.73" y="-341.25" font-family="Arial" font-size="10.00">Quantics grids</text>
</g>
<!-- T4AQuantics -->
<g id="node4" class="node">
<title>T4AQuantics</title>
<path fill="none" stroke="red" stroke-width="3" d="M244,-330.96C244,-330.96 12,-330.96 12,-330.96 6,-330.96 0,-324.96 0,-318.96 0,-318.96 0,-282.96 0,-282.96 0,-276.96 6,-270.96 12,-270.96 12,-270.96 244,-270.96 244,-270.96 250,-270.96 256,-276.96 256,-282.96 256,-282.96 256,-318.96 256,-318.96 256,-324.96 250,-330.96 244,-330.96"/>
<text text-anchor="start" x="90.5" y="-308.36" font-family="Arial" font-weight="bold" font-size="12.00">T4AQuantics</text>
<text text-anchor="start" x="72" y="-297.96" font-family="Arial" font-size="10.00">Useful experimental code</text>
<text text-anchor="start" x="14" y="-287.96" font-family="Arial" font-size="10.00"> for quantics tensor networks + Quantics transforms</text>
</g>
<!-- T4AQuantics&#45;&gt;T4APartitionedTT -->
<g id="edge3" class="edge">
<title>T4AQuantics&#45;&gt;T4APartitionedTT</title>
<path fill="none" stroke="black" d="M126.34,-270.63C123.87,-225.49 119.24,-140.82 116.62,-92.92"/>
<polygon fill="black" stroke="black" points="120.1,-92.51 116.06,-82.72 113.11,-92.9 120.1,-92.51"/>
</g>
<!-- T4AQuantics&#45;&gt;QuanticsGrids -->
<g id="edge4" class="edge">
<title>T4AQuantics&#45;&gt;QuanticsGrids</title>
<path fill="none" stroke="black" d="M256.03,-328.35C267.34,-330.77 278.45,-333.15 288.88,-335.38"/>
<polygon fill="black" stroke="black" points="288.15,-338.8 298.66,-337.47 289.61,-331.96 288.15,-338.8"/>
</g>
<!-- T4AAdaptivePatchedTCI -->
<g id="node5" class="node">
<title>T4AAdaptivePatchedTCI</title>
<path fill="none" stroke="black" d="M499.74,-233.93C499.74,-233.93 353.74,-233.93 353.74,-233.93 347.74,-233.93 341.74,-227.93 341.74,-221.93 341.74,-221.93 341.74,-195.93 341.74,-195.93 341.74,-189.93 347.74,-183.93 353.74,-183.93 353.74,-183.93 499.74,-183.93 499.74,-183.93 505.74,-183.93 511.74,-189.93 511.74,-195.93 511.74,-195.93 511.74,-221.93 511.74,-221.93 511.74,-227.93 505.74,-233.93 499.74,-233.93"/>
<text text-anchor="start" x="355.74" y="-211.33" font-family="Arial" font-weight="bold" font-size="12.00">T4AAdaptivePatchedTCI</text>
<text text-anchor="start" x="373.74" y="-200.93" font-family="Arial" font-size="10.00">Adaptive patching + TCI</text>
</g>
<!-- T4AAdaptivePatchedTCI&#45;&gt;T4APartitionedTT -->
<g id="edge5" class="edge">
<title>T4AAdaptivePatchedTCI&#45;&gt;T4APartitionedTT</title>
<path fill="none" stroke="gray" stroke-dasharray="5,2" d="M374.86,-183.76C320,-157.15 233.52,-115.19 175.49,-87.04"/>
<polygon fill="gray" stroke="gray" points="176.96,-83.86 166.43,-82.65 173.9,-90.16 176.96,-83.86"/>
</g>
<!-- T4AAdaptivePatchedTCI&#45;&gt;T4ATensorCI -->
<g id="edge6" class="edge">
<title>T4AAdaptivePatchedTCI&#45;&gt;T4ATensorCI</title>
<path fill="none" stroke="black" d="M468.92,-183.81C506.39,-161.5 561.27,-128.82 601.23,-105.02"/>
<polygon fill="black" stroke="black" points="603.23,-107.91 610.03,-99.78 599.65,-101.89 603.23,-107.91"/>
</g>
<!-- T4AAdaptivePatchedTCI&#45;&gt;QuanticsGrids -->
<g id="edge7" class="edge">
<title>T4AAdaptivePatchedTCI&#45;&gt;QuanticsGrids</title>
<path fill="none" stroke="black" d="M413.69,-234.02C401.98,-256.52 384.68,-289.77 371.67,-314.77"/>
<polygon fill="black" stroke="black" points="368.42,-313.42 366.91,-323.91 374.63,-316.66 368.42,-313.42"/>
</g>
<!-- T4AAdaptivePatchedTCI&#45;&gt;T4AITensorCompat -->
<g id="edge8" class="edge">
<title>T4AAdaptivePatchedTCI&#45;&gt;T4AITensorCompat</title>
<path fill="none" stroke="gray" stroke-dasharray="5,2" d="M403.78,-183.86C382.72,-160.88 351.4,-126.7 328.35,-101.54"/>
<polygon fill="gray" stroke="gray" points="330.82,-99.06 321.48,-94.05 325.66,-103.79 330.82,-99.06"/>
</g>
<!-- T4AQuanticsTCI -->
<g id="node6" class="node">
<title>T4AQuanticsTCI</title>
<path fill="none" stroke="black" d="M744.33,-346.93C744.33,-346.93 504.33,-346.93 504.33,-346.93 498.33,-346.93 492.33,-340.93 492.33,-334.93 492.33,-334.93 492.33,-298.93 492.33,-298.93 492.33,-292.93 498.33,-286.93 504.33,-286.93 504.33,-286.93 744.33,-286.93 744.33,-286.93 750.33,-286.93 756.33,-292.93 756.33,-298.93 756.33,-298.93 756.33,-334.93 756.33,-334.93 756.33,-340.93 750.33,-346.93 744.33,-346.93"/>
<text text-anchor="start" x="577.33" y="-324.33" font-family="Arial" font-weight="bold" font-size="12.00">T4AQuanticsTCI</text>
<text text-anchor="start" x="506.33" y="-313.93" font-family="Arial" font-size="10.00">Quanticscrossinterpolate, Quantics Fourier Transform </text>
<text text-anchor="start" x="521.83" y="-303.93" font-family="Arial" font-size="10.00">(to be implemented: quantics transform MPOs)</text>
</g>
<!-- T4AQuanticsTCI&#45;&gt;T4ATensorCI -->
<g id="edge9" class="edge">
<title>T4AQuanticsTCI&#45;&gt;T4ATensorCI</title>
<path fill="none" stroke="black" d="M627.83,-286.73C633.03,-241.78 642.79,-157.48 648.31,-109.79"/>
<polygon fill="black" stroke="black" points="651.81,-109.97 649.48,-99.63 644.86,-109.16 651.81,-109.97"/>
</g>
<!-- T4AQuanticsTCI&#45;&gt;QuanticsGrids -->
<g id="edge10" class="edge">
<title>T4AQuanticsTCI&#45;&gt;QuanticsGrids</title>
<path fill="none" stroke="black" d="M492.2,-332.72C466.83,-335.75 441.32,-338.79 419.23,-341.43"/>
<polygon fill="black" stroke="black" points="418.52,-337.99 409,-342.65 419.35,-344.94 418.52,-337.99"/>
</g>
<!-- ITensors -->
<g id="node7" class="node">
<title>ITensors</title>
<path fill="none" stroke="red" stroke-width="3" d="M539.11,-50C539.11,-50 399.11,-50 399.11,-50 393.11,-50 387.11,-44 387.11,-38 387.11,-38 387.11,-12 387.11,-12 387.11,-6 393.11,0 399.11,0 399.11,0 539.11,0 539.11,0 545.11,0 551.11,-6 551.11,-12 551.11,-12 551.11,-38 551.11,-38 551.11,-44 545.11,-50 539.11,-50"/>
<text text-anchor="start" x="444.11" y="-27.4" font-family="Arial" font-weight="bold" font-size="12.00">ITensors</text>
<text text-anchor="start" x="401.11" y="-17" font-family="Arial" font-size="10.00">Indexing and contraction library</text>
</g>
<!-- T4AITensorCompat&#45;&gt;ITensors -->
<g id="edge11" class="edge">
<title>T4AITensorCompat&#45;&gt;ITensors</title>
<path fill="none" stroke="black" d="M368.75,-50.69C371.46,-50 374.19,-49.3 376.92,-48.6"/>
<polygon fill="black" stroke="black" points="378.03,-51.93 386.85,-46.06 376.3,-45.15 378.03,-51.93"/>
</g>
</g>
</svg>
