<?xml version="1.0" encoding="UTF-8" standalone="no"?>
<!DOCTYPE svg PUBLIC "-//W3C//DTD SVG 1.1//EN"
 "http://www.w3.org/Graphics/SVG/1.1/DTD/svg11.dtd">
<!-- Generated by graphviz version 2.50.0 (20211204.2007)
 -->
<!-- Title: library_dependencies Pages: 1 -->
<svg width="576pt" height="490pt"
 viewBox="0.00 0.00 576.00 489.77" xmlns="http://www.w3.org/2000/svg" xmlns:xlink="http://www.w3.org/1999/xlink">
<g id="graph0" class="graph" transform="scale(0.7 0.7) rotate(0) translate(4 698.86)">
<title>library_dependencies</title>
<polygon fill="white" stroke="transparent" points="-4,4 -4,-698.86 822.6,-698.86 822.6,4 -4,4"/>
<!-- MPI -->
<g id="node1" class="node">
<title>MPI</title>
<path fill="none" stroke="black" d="M102.57,-105.81C102.57,-105.81 72.57,-105.81 72.57,-105.81 66.57,-105.81 60.57,-99.81 60.57,-93.81 60.57,-93.81 60.57,-67.81 60.57,-67.81 60.57,-61.81 66.57,-55.81 72.57,-55.81 72.57,-55.81 102.57,-55.81 102.57,-55.81 108.57,-55.81 114.57,-61.81 114.57,-67.81 114.57,-67.81 114.57,-93.81 114.57,-93.81 114.57,-99.81 108.57,-105.81 102.57,-105.81"/>
<text text-anchor="start" x="76.57" y="-83.21" font-family="Arial" font-weight="bold" font-size="12.00">MPI</text>
<text text-anchor="start" x="78.07" y="-72.81" font-family="Arial" font-size="10.00">MPI</text>
</g>
<!-- QuanticsTCI -->
<g id="node2" class="node">
<title>QuanticsTCI</title>
<path fill="none" stroke="black" d="M806.6,-83.64C806.6,-83.64 677.6,-83.64 677.6,-83.64 671.6,-83.64 665.6,-77.64 665.6,-71.64 665.6,-71.64 665.6,-45.64 665.6,-45.64 665.6,-39.64 671.6,-33.64 677.6,-33.64 677.6,-33.64 806.6,-33.64 806.6,-33.64 812.6,-33.64 818.6,-39.64 818.6,-45.64 818.6,-45.64 818.6,-71.64 818.6,-71.64 818.6,-77.64 812.6,-83.64 806.6,-83.64"/>
<text text-anchor="start" x="706.6" y="-61.04" font-family="Arial" font-weight="bold" font-size="12.00">QuanticsTCI</text>
<text text-anchor="start" x="679.6" y="-50.64" font-family="Arial" font-size="10.00">Sugar coating for TCI + QTT</text>
</g>
<!-- TensorCrossInterpolation -->
<g id="node8" class="node">
<title>TensorCrossInterpolation</title>
<path fill="none" stroke="black" d="M592.61,-114.26C592.61,-114.26 441.61,-114.26 441.61,-114.26 435.61,-114.26 429.61,-108.26 429.61,-102.26 429.61,-102.26 429.61,-76.26 429.61,-76.26 429.61,-70.26 435.61,-64.26 441.61,-64.26 441.61,-64.26 592.61,-64.26 592.61,-64.26 598.61,-64.26 604.61,-70.26 604.61,-76.26 604.61,-76.26 604.61,-102.26 604.61,-102.26 604.61,-108.26 598.61,-114.26 592.61,-114.26"/>
<text text-anchor="start" x="443.61" y="-91.66" font-family="Arial" font-weight="bold" font-size="12.00">TensorCrossInterpolation</text>
<text text-anchor="start" x="494.11" y="-81.26" font-family="Arial" font-size="10.00">TCI for TT</text>
</g>
<!-- QuanticsTCI&#45;&gt;TensorCrossInterpolation -->
<g id="edge1" class="edge">
<title>QuanticsTCI&#45;&gt;TensorCrossInterpolation</title>
<path fill="none" stroke="black" d="M665.3,-69.09C649.17,-71.29 631.95,-73.63 615.16,-75.92"/>
<polygon fill="black" stroke="black" points="614.22,-72.51 604.78,-77.33 615.16,-79.45 614.22,-72.51"/>
</g>
<!-- QuanticsGrids -->
<g id="node9" class="node">
<title>QuanticsGrids</title>
<path fill="none" stroke="black" d="M776.36,-656.03C776.36,-656.03 690.36,-656.03 690.36,-656.03 684.36,-656.03 678.36,-650.03 678.36,-644.03 678.36,-644.03 678.36,-618.03 678.36,-618.03 678.36,-612.03 684.36,-606.03 690.36,-606.03 690.36,-606.03 776.36,-606.03 776.36,-606.03 782.36,-606.03 788.36,-612.03 788.36,-618.03 788.36,-618.03 788.36,-644.03 788.36,-644.03 788.36,-650.03 782.36,-656.03 776.36,-656.03"/>
<text text-anchor="start" x="692.36" y="-633.43" font-family="Arial" font-weight="bold" font-size="12.00">QuanticsGrids</text>
<text text-anchor="start" x="701.36" y="-623.03" font-family="Arial" font-size="10.00">Quantics grids</text>
</g>
<!-- QuanticsTCI&#45;&gt;QuanticsGrids -->
<g id="edge2" class="edge">
<title>QuanticsTCI&#45;&gt;QuanticsGrids</title>
<path fill="none" stroke="black" d="M733.7,-83.93C719.13,-129.27 689.75,-227.67 679.35,-313.34 666.79,-416.81 701.12,-537.95 720.74,-596.23"/>
<polygon fill="black" stroke="black" points="717.55,-597.7 724.11,-606.03 724.17,-595.43 717.55,-597.7"/>
</g>
<!-- ApplicationCode -->
<g id="node3" class="node">
<title>ApplicationCode</title>
<path fill="none" stroke="red" stroke-width="3" d="M795.55,-366.54C795.55,-366.54 694.55,-366.54 694.55,-366.54 688.55,-366.54 682.55,-360.54 682.55,-354.54 682.55,-354.54 682.55,-328.54 682.55,-328.54 682.55,-322.54 688.55,-316.54 694.55,-316.54 694.55,-316.54 795.55,-316.54 795.55,-316.54 801.55,-316.54 807.55,-322.54 807.55,-328.54 807.55,-328.54 807.55,-354.54 807.55,-354.54 807.55,-360.54 801.55,-366.54 795.55,-366.54"/>
<text text-anchor="start" x="696.55" y="-343.94" font-family="Arial" font-weight="bold" font-size="12.00">ApplicationCode</text>
<text text-anchor="start" x="708.55" y="-333.54" font-family="Arial" font-size="10.00">Application code</text>
</g>
<!-- ApplicationCode&#45;&gt;QuanticsTCI -->
<g id="edge3" class="edge">
<title>ApplicationCode&#45;&gt;QuanticsTCI</title>
<path fill="none" stroke="black" d="M744.79,-316.43C744.26,-265.89 743.07,-151.78 742.47,-93.83"/>
<polygon fill="black" stroke="black" points="745.96,-93.65 742.36,-83.69 738.96,-93.73 745.96,-93.65"/>
</g>
<!-- QuanticsTransform -->
<g id="node6" class="node">
<title>QuanticsTransform</title>
<path fill="none" stroke="black" d="M516.25,-694.86C516.25,-694.86 402.25,-694.86 402.25,-694.86 396.25,-694.86 390.25,-688.86 390.25,-682.86 390.25,-682.86 390.25,-656.86 390.25,-656.86 390.25,-650.86 396.25,-644.86 402.25,-644.86 402.25,-644.86 516.25,-644.86 516.25,-644.86 522.25,-644.86 528.25,-650.86 528.25,-656.86 528.25,-656.86 528.25,-682.86 528.25,-682.86 528.25,-688.86 522.25,-694.86 516.25,-694.86"/>
<text text-anchor="start" x="404.25" y="-672.26" font-family="Arial" font-weight="bold" font-size="12.00">QuanticsTransform</text>
<text text-anchor="start" x="414.75" y="-661.86" font-family="Arial" font-size="10.00">Quantics transforms</text>
</g>
<!-- ApplicationCode&#45;&gt;QuanticsTransform -->
<g id="edge4" class="edge">
<title>ApplicationCode&#45;&gt;QuanticsTransform</title>
<path fill="none" stroke="black" d="M723.1,-366.75C671.98,-425.48 545,-571.35 487.89,-636.96"/>
<polygon fill="black" stroke="black" points="485.2,-634.71 481.28,-644.56 490.48,-639.31 485.2,-634.71"/>
</g>
<!-- ProjMPSs -->
<g id="node12" class="node">
<title>ProjMPSs</title>
<path fill="none" stroke="red" stroke-width="3" d="M164,-405.87C164,-405.87 12,-405.87 12,-405.87 6,-405.87 0,-399.87 0,-393.87 0,-393.87 0,-367.87 0,-367.87 0,-361.87 6,-355.87 12,-355.87 12,-355.87 164,-355.87 164,-355.87 170,-355.87 176,-361.87 176,-367.87 176,-367.87 176,-393.87 176,-393.87 176,-399.87 170,-405.87 164,-405.87"/>
<text text-anchor="start" x="59.5" y="-383.27" font-family="Arial" font-weight="bold" font-size="12.00">ProjMPSs</text>
<text text-anchor="start" x="14" y="-372.87" font-family="Arial" font-size="10.00">Adaptive patching + multiplication</text>
</g>
<!-- ApplicationCode&#45;&gt;ProjMPSs -->
<g id="edge5" class="edge">
<title>ApplicationCode&#45;&gt;ProjMPSs</title>
<path fill="none" stroke="black" d="M682.37,-342.94C622.18,-344.47 528.69,-347.36 447.74,-352.03 359.17,-357.14 258.53,-365.42 186.26,-371.8"/>
<polygon fill="black" stroke="black" points="185.91,-368.32 176.26,-372.69 186.53,-375.29 185.91,-368.32"/>
</g>
<!-- SimpleTensorNetworks -->
<g id="node4" class="node">
<title>SimpleTensorNetworks</title>
<path fill="none" stroke="red" stroke-width="3" d="M421.05,-515.99C421.05,-515.99 228.05,-515.99 228.05,-515.99 222.05,-515.99 216.05,-509.99 216.05,-503.99 216.05,-503.99 216.05,-477.99 216.05,-477.99 216.05,-471.99 222.05,-465.99 228.05,-465.99 228.05,-465.99 421.05,-465.99 421.05,-465.99 427.05,-465.99 433.05,-471.99 433.05,-477.99 433.05,-477.99 433.05,-503.99 433.05,-503.99 433.05,-509.99 427.05,-515.99 421.05,-515.99"/>
<text text-anchor="start" x="258.05" y="-493.39" font-family="Arial" font-weight="bold" font-size="12.00">SimpleTensorNetworks</text>
<text text-anchor="start" x="230.05" y="-482.99" font-family="Arial" font-size="10.00">ITensor&#45;like tensor train and tensor network</text>
</g>
<!-- ITensors -->
<g id="node5" class="node">
<title>ITensors</title>
<path fill="none" stroke="red" stroke-width="3" d="M197,-684.46C197,-684.46 57,-684.46 57,-684.46 51,-684.46 45,-678.46 45,-672.46 45,-672.46 45,-646.46 45,-646.46 45,-640.46 51,-634.46 57,-634.46 57,-634.46 197,-634.46 197,-634.46 203,-634.46 209,-640.46 209,-646.46 209,-646.46 209,-672.46 209,-672.46 209,-678.46 203,-684.46 197,-684.46"/>
<text text-anchor="start" x="102" y="-661.86" font-family="Arial" font-weight="bold" font-size="12.00">ITensors</text>
<text text-anchor="start" x="59" y="-651.46" font-family="Arial" font-size="10.00">Indexing and contraction library</text>
</g>
<!-- SimpleTensorNetworks&#45;&gt;ITensors -->
<g id="edge6" class="edge">
<title>SimpleTensorNetworks&#45;&gt;ITensors</title>
<path fill="none" stroke="black" d="M294.98,-516.21C260.11,-545.95 202.12,-595.4 164.22,-627.72"/>
<polygon fill="black" stroke="black" points="161.79,-625.19 156.46,-634.34 166.34,-630.52 161.79,-625.19"/>
</g>
<!-- QuanticsTransform&#45;&gt;SimpleTensorNetworks -->
<g id="edge7" class="edge">
<title>QuanticsTransform&#45;&gt;SimpleTensorNetworks</title>
<path fill="none" stroke="gray" stroke-dasharray="5,2" d="M440.24,-644.61C416.47,-613.05 375.73,-558.95 349.48,-524.1"/>
<polygon fill="gray" stroke="gray" points="352.28,-521.99 343.47,-516.11 346.69,-526.2 352.28,-521.99"/>
</g>
<!-- QuanticsTransform&#45;&gt;QuanticsGrids -->
<g id="edge8" class="edge">
<title>QuanticsTransform&#45;&gt;QuanticsGrids</title>
<path fill="none" stroke="black" d="M528.42,-660.06C571.21,-654 625.8,-646.27 667.88,-640.31"/>
<polygon fill="black" stroke="black" points="668.61,-643.74 678.02,-638.87 667.62,-636.81 668.61,-643.74"/>
</g>
<!-- TensorTrain -->
<g id="node10" class="node">
<title>TensorTrain</title>
<path fill="none" stroke="black" d="M382.6,-295.31C382.6,-295.31 251.6,-295.31 251.6,-295.31 245.6,-295.31 239.6,-289.31 239.6,-283.31 239.6,-283.31 239.6,-257.31 239.6,-257.31 239.6,-251.31 245.6,-245.31 251.6,-245.31 251.6,-245.31 382.6,-245.31 382.6,-245.31 388.6,-245.31 394.6,-251.31 394.6,-257.31 394.6,-257.31 394.6,-283.31 394.6,-283.31 394.6,-289.31 388.6,-295.31 382.6,-295.31"/>
<text text-anchor="start" x="282.6" y="-272.71" font-family="Arial" font-weight="bold" font-size="12.00">TensorTrain</text>
<text text-anchor="start" x="253.6" y="-262.31" font-family="Arial" font-size="10.00">Tensor train and contractions</text>
</g>
<!-- QuanticsTransform&#45;&gt;TensorTrain -->
<g id="edge9" class="edge">
<title>QuanticsTransform&#45;&gt;TensorTrain</title>
<path fill="none" stroke="black" d="M459.97,-644.54C460.34,-604.72 457.91,-525.53 436.25,-462.79 415.29,-402.09 372.54,-340.46 344.36,-303.82"/>
<polygon fill="black" stroke="black" points="346.79,-301.24 337.88,-295.5 341.27,-305.54 346.79,-301.24"/>
</g>
<!-- PatchedTCI -->
<g id="node7" class="node">
<title>PatchedTCI</title>
<path fill="none" stroke="black" d="M572.94,-405.23C572.94,-405.23 462.94,-405.23 462.94,-405.23 456.94,-405.23 450.94,-399.23 450.94,-393.23 450.94,-393.23 450.94,-367.23 450.94,-367.23 450.94,-361.23 456.94,-355.23 462.94,-355.23 462.94,-355.23 572.94,-355.23 572.94,-355.23 578.94,-355.23 584.94,-361.23 584.94,-367.23 584.94,-367.23 584.94,-393.23 584.94,-393.23 584.94,-399.23 578.94,-405.23 572.94,-405.23"/>
<text text-anchor="start" x="484.44" y="-382.63" font-family="Arial" font-weight="bold" font-size="12.00">PatchedTCI</text>
<text text-anchor="start" x="464.94" y="-372.23" font-family="Arial" font-size="10.00">Adaptive patching + TCI</text>
</g>
<!-- PatchedTCI&#45;&gt;SimpleTensorNetworks -->
<g id="edge10" class="edge">
<title>PatchedTCI&#45;&gt;SimpleTensorNetworks</title>
<path fill="none" stroke="gray" stroke-dasharray="5,2" d="M474.06,-405.36C445.25,-421.86 407.43,-443.53 377.03,-460.93"/>
<polygon fill="gray" stroke="gray" points="375.2,-457.95 368.26,-465.96 378.68,-464.02 375.2,-457.95"/>
</g>
<!-- PatchedTCI&#45;&gt;TensorCrossInterpolation -->
<g id="edge11" class="edge">
<title>PatchedTCI&#45;&gt;TensorCrossInterpolation</title>
<path fill="none" stroke="black" d="M517.87,-355.17C517.72,-303.28 517.38,-183.97 517.21,-124.41"/>
<polygon fill="black" stroke="black" points="520.71,-124.35 517.18,-114.36 513.71,-124.37 520.71,-124.35"/>
</g>
<!-- TensorCrossInterpolation&#45;&gt;TensorTrain -->
<g id="edge12" class="edge">
<title>TensorCrossInterpolation&#45;&gt;TensorTrain</title>
<path fill="none" stroke="black" d="M489.3,-114.43C453.58,-146.77 391.53,-202.93 352.48,-238.28"/>
<polygon fill="black" stroke="black" points="350.06,-235.76 344.99,-245.06 354.76,-240.95 350.06,-235.76"/>
</g>
<!-- ParallelTensorTrain -->
<g id="node11" class="node">
<title>ParallelTensorTrain</title>
<path fill="none" stroke="black" d="M415.9,-50C415.9,-50 225.9,-50 225.9,-50 219.9,-50 213.9,-44 213.9,-38 213.9,-38 213.9,-12 213.9,-12 213.9,-6 219.9,0 225.9,0 225.9,0 415.9,0 415.9,0 421.9,0 427.9,-6 427.9,-12 427.9,-12 427.9,-38 427.9,-38 427.9,-44 421.9,-50 415.9,-50"/>
<text text-anchor="start" x="265.4" y="-27.4" font-family="Arial" font-weight="bold" font-size="12.00">ParallelTensorTrain</text>
<text text-anchor="start" x="227.9" y="-17" font-family="Arial" font-size="10.00">Parallel TCI and parallel MPO contractions</text>
</g>
<!-- ParallelTensorTrain&#45;&gt;MPI -->
<g id="edge13" class="edge">
<title>ParallelTensorTrain&#45;&gt;MPI</title>
<path fill="none" stroke="black" d="M216.18,-50.05C183.53,-57.86 149.62,-65.97 124.82,-71.9"/>
<polygon fill="black" stroke="black" points="123.69,-68.58 114.78,-74.31 125.32,-75.38 123.69,-68.58"/>
</g>
<!-- ParallelTensorTrain&#45;&gt;TensorTrain -->
<g id="edge14" class="edge">
<title>ParallelTensorTrain&#45;&gt;TensorTrain</title>
<path fill="none" stroke="black" d="M320.51,-50.33C319.83,-94.33 318.42,-184.97 317.64,-235.08"/>
<polygon fill="black" stroke="black" points="314.14,-235.07 317.49,-245.12 321.14,-235.18 314.14,-235.07"/>
</g>
<!-- ProjMPSs&#45;&gt;SimpleTensorNetworks -->
<g id="edge15" class="edge">
<title>ProjMPSs&#45;&gt;SimpleTensorNetworks</title>
<path fill="none" stroke="black" d="M141.97,-405.99C177.55,-422.56 224.27,-444.31 261.55,-461.66"/>
<polygon fill="black" stroke="black" points="260.27,-464.92 270.81,-465.97 263.22,-458.58 260.27,-464.92"/>
</g>
<!-- ProjMPSs&#45;&gt;TensorTrain -->
<g id="edge16" class="edge">
<title>ProjMPSs&#45;&gt;TensorTrain</title>
<path fill="none" stroke="black" d="M139.99,-355.78C174.28,-339.23 219.37,-317.47 255.47,-300.05"/>
<polygon fill="black" stroke="black" points="257.44,-302.99 264.92,-295.49 254.39,-296.69 257.44,-302.99"/>
</g>
</g>
</svg>
