<?xml version="1.0" encoding="UTF-8" standalone="no"?>
<!DOCTYPE svg PUBLIC "-//W3C//DTD SVG 1.1//EN"
 "http://www.w3.org/Graphics/SVG/1.1/DTD/svg11.dtd">
<!-- Generated by graphviz version 2.50.0 (20211204.2007)
 -->
<!-- Title: library_dependencies Pages: 1 -->
<svg width="576pt" height="321pt"
 viewBox="0.00 0.00 576.00 321.33" xmlns="http://www.w3.org/2000/svg" xmlns:xlink="http://www.w3.org/1999/xlink">
<g id="graph0" class="graph" transform="scale(0.59 0.59) rotate(0) translate(4 540.91)">
<title>library_dependencies</title>
<polygon fill="white" stroke="transparent" points="-4,4 -4,-540.91 972.76,-540.91 972.76,4 -4,4"/>
<!-- ParallelMPOContractions -->
<g id="node1" class="node">
<title>ParallelMPOContractions</title>
<path fill="none" stroke="black" d="M389.37,-65.5C389.37,-65.5 241.37,-65.5 241.37,-65.5 235.37,-65.5 229.37,-59.5 229.37,-53.5 229.37,-53.5 229.37,-27.5 229.37,-27.5 229.37,-21.5 235.37,-15.5 241.37,-15.5 241.37,-15.5 389.37,-15.5 389.37,-15.5 395.37,-15.5 401.37,-21.5 401.37,-27.5 401.37,-27.5 401.37,-53.5 401.37,-53.5 401.37,-59.5 395.37,-65.5 389.37,-65.5"/>
<text text-anchor="start" x="243.37" y="-42.9" font-family="Arial" font-weight="bold" font-size="12.00">ParallelMPOContractions</text>
<text text-anchor="start" x="248.87" y="-32.5" font-family="Arial" font-size="10.00">Parallelized MPO contractions</text>
</g>
<!-- MPI -->
<g id="node3" class="node">
<title>MPI</title>
<path fill="none" stroke="black" d="M526.48,-55.88C526.48,-55.88 496.48,-55.88 496.48,-55.88 490.48,-55.88 484.48,-49.88 484.48,-43.88 484.48,-43.88 484.48,-17.88 484.48,-17.88 484.48,-11.88 490.48,-5.88 496.48,-5.88 496.48,-5.88 526.48,-5.88 526.48,-5.88 532.48,-5.88 538.48,-11.88 538.48,-17.88 538.48,-17.88 538.48,-43.88 538.48,-43.88 538.48,-49.88 532.48,-55.88 526.48,-55.88"/>
<text text-anchor="start" x="500.48" y="-33.28" font-family="Arial" font-weight="bold" font-size="12.00">MPI</text>
<text text-anchor="start" x="501.98" y="-22.88" font-family="Arial" font-size="10.00">MPI</text>
</g>
<!-- ParallelMPOContractions&#45;&gt;MPI -->
<g id="edge1" class="edge">
<title>ParallelMPOContractions&#45;&gt;MPI</title>
<path fill="none" stroke="black" d="M401.38,-36.28C426.8,-35.03 453.31,-33.73 473.95,-32.72"/>
<polygon fill="black" stroke="black" points="474.35,-36.2 484.16,-32.22 474.01,-29.21 474.35,-36.2"/>
</g>
<!-- TensorNetworks -->
<g id="node11" class="node">
<title>TensorNetworks</title>
<path fill="none" stroke="red" stroke-width="3" d="M453.66,-374.66C453.66,-374.66 355.66,-374.66 355.66,-374.66 349.66,-374.66 343.66,-368.66 343.66,-362.66 343.66,-362.66 343.66,-336.66 343.66,-336.66 343.66,-330.66 349.66,-324.66 355.66,-324.66 355.66,-324.66 453.66,-324.66 453.66,-324.66 459.66,-324.66 465.66,-330.66 465.66,-336.66 465.66,-336.66 465.66,-362.66 465.66,-362.66 465.66,-368.66 459.66,-374.66 453.66,-374.66"/>
<text text-anchor="start" x="357.66" y="-352.06" font-family="Arial" font-weight="bold" font-size="12.00">TensorNetworks</text>
<text text-anchor="start" x="380.66" y="-341.66" font-family="Arial" font-size="10.00">MPS/MPO</text>
</g>
<!-- ParallelMPOContractions&#45;&gt;TensorNetworks -->
<g id="edge2" class="edge">
<title>ParallelMPOContractions&#45;&gt;TensorNetworks</title>
<path fill="none" stroke="gray" stroke-dasharray="5,2" d="M320.46,-65.69C328.03,-102 343.2,-171.02 360.54,-228.57 369.44,-258.14 381.57,-291.01 390.85,-315.03"/>
<polygon fill="gray" stroke="gray" points="387.62,-316.38 394.51,-324.43 394.14,-313.84 387.62,-316.38"/>
</g>
<!-- TreeTCI -->
<g id="node2" class="node">
<title>TreeTCI</title>
<path fill="none" stroke="black" d="M938.34,-88.53C938.34,-88.53 848.34,-88.53 848.34,-88.53 842.34,-88.53 836.34,-82.53 836.34,-76.53 836.34,-76.53 836.34,-50.53 836.34,-50.53 836.34,-44.53 842.34,-38.53 848.34,-38.53 848.34,-38.53 938.34,-38.53 938.34,-38.53 944.34,-38.53 950.34,-44.53 950.34,-50.53 950.34,-50.53 950.34,-76.53 950.34,-76.53 950.34,-82.53 944.34,-88.53 938.34,-88.53"/>
<text text-anchor="start" x="870.84" y="-65.93" font-family="Arial" font-weight="bold" font-size="12.00">TreeTCI</text>
<text text-anchor="start" x="850.34" y="-55.53" font-family="Arial" font-size="10.00">TCI for tree tensors</text>
</g>
<!-- SimpleTensorNetworks -->
<g id="node5" class="node">
<title>SimpleTensorNetworks</title>
<path fill="none" stroke="black" d="M956.76,-307.21C956.76,-307.21 772.76,-307.21 772.76,-307.21 766.76,-307.21 760.76,-301.21 760.76,-295.21 760.76,-295.21 760.76,-269.21 760.76,-269.21 760.76,-263.21 766.76,-257.21 772.76,-257.21 772.76,-257.21 956.76,-257.21 956.76,-257.21 962.76,-257.21 968.76,-263.21 968.76,-269.21 968.76,-269.21 968.76,-295.21 968.76,-295.21 968.76,-301.21 962.76,-307.21 956.76,-307.21"/>
<text text-anchor="start" x="798.26" y="-284.61" font-family="Arial" font-weight="bold" font-size="12.00">SimpleTensorNetworks</text>
<text text-anchor="start" x="774.76" y="-274.21" font-family="Arial" font-size="10.00">Simple tensor trains/tree tensor networks</text>
</g>
<!-- TreeTCI&#45;&gt;SimpleTensorNetworks -->
<g id="edge3" class="edge">
<title>TreeTCI&#45;&gt;SimpleTensorNetworks</title>
<path fill="none" stroke="black" d="M890.06,-88.62C884.97,-127.57 875.15,-202.7 869.36,-247.05"/>
<polygon fill="black" stroke="black" points="865.87,-246.71 868.05,-257.08 872.81,-247.62 865.87,-246.71"/>
</g>
<!-- TCICore -->
<g id="node16" class="node">
<title>TCICore</title>
<path fill="none" stroke="black" d="M762.73,-220.9C762.73,-220.9 561.73,-220.9 561.73,-220.9 555.73,-220.9 549.73,-214.9 549.73,-208.9 549.73,-208.9 549.73,-182.9 549.73,-182.9 549.73,-176.9 555.73,-170.9 561.73,-170.9 561.73,-170.9 762.73,-170.9 762.73,-170.9 768.73,-170.9 774.73,-176.9 774.73,-182.9 774.73,-182.9 774.73,-208.9 774.73,-208.9 774.73,-214.9 768.73,-220.9 762.73,-220.9"/>
<text text-anchor="start" x="638.23" y="-198.3" font-family="Arial" font-weight="bold" font-size="12.00">TCICore</text>
<text text-anchor="start" x="563.73" y="-187.9" font-family="Arial" font-size="10.00">TCI core algorithms (LU decomposition, etc.)</text>
</g>
<!-- TreeTCI&#45;&gt;TCICore -->
<g id="edge4" class="edge">
<title>TreeTCI&#45;&gt;TCICore</title>
<path fill="none" stroke="black" d="M849.6,-88.59C811.32,-110.51 755.61,-142.42 714.89,-165.74"/>
<polygon fill="black" stroke="black" points="713.12,-162.72 706.19,-170.73 716.6,-168.79 713.12,-162.72"/>
</g>
<!-- QuanticsTCI -->
<g id="node4" class="node">
<title>QuanticsTCI</title>
<path fill="none" stroke="black" d="M749.86,-524.07C749.86,-524.07 620.86,-524.07 620.86,-524.07 614.86,-524.07 608.86,-518.07 608.86,-512.07 608.86,-512.07 608.86,-486.07 608.86,-486.07 608.86,-480.07 614.86,-474.07 620.86,-474.07 620.86,-474.07 749.86,-474.07 749.86,-474.07 755.86,-474.07 761.86,-480.07 761.86,-486.07 761.86,-486.07 761.86,-512.07 761.86,-512.07 761.86,-518.07 755.86,-524.07 749.86,-524.07"/>
<text text-anchor="start" x="649.86" y="-501.47" font-family="Arial" font-weight="bold" font-size="12.00">QuanticsTCI</text>
<text text-anchor="start" x="622.86" y="-491.07" font-family="Arial" font-size="10.00">Sugar coating for TCI + QTT</text>
</g>
<!-- TensorCrossInterpolation -->
<g id="node8" class="node">
<title>TensorCrossInterpolation</title>
<path fill="none" stroke="black" d="M526.74,-225.37C526.74,-225.37 375.74,-225.37 375.74,-225.37 369.74,-225.37 363.74,-219.37 363.74,-213.37 363.74,-213.37 363.74,-187.37 363.74,-187.37 363.74,-181.37 369.74,-175.37 375.74,-175.37 375.74,-175.37 526.74,-175.37 526.74,-175.37 532.74,-175.37 538.74,-181.37 538.74,-187.37 538.74,-187.37 538.74,-213.37 538.74,-213.37 538.74,-219.37 532.74,-225.37 526.74,-225.37"/>
<text text-anchor="start" x="377.74" y="-202.77" font-family="Arial" font-weight="bold" font-size="12.00">TensorCrossInterpolation</text>
<text text-anchor="start" x="428.24" y="-192.37" font-family="Arial" font-size="10.00">TCI for TT</text>
</g>
<!-- QuanticsTCI&#45;&gt;TensorCrossInterpolation -->
<g id="edge5" class="edge">
<title>QuanticsTCI&#45;&gt;TensorCrossInterpolation</title>
<path fill="none" stroke="black" d="M647.38,-474.06C613.1,-449.98 563.08,-410.86 529.69,-367.3 498.18,-326.18 475.16,-270.36 462.49,-234.85"/>
<polygon fill="black" stroke="black" points="465.79,-233.69 459.19,-225.4 459.18,-235.99 465.79,-233.69"/>
</g>
<!-- QuanticsGrids -->
<g id="node13" class="node">
<title>QuanticsGrids</title>
<path fill="none" stroke="black" d="M931.3,-512.9C931.3,-512.9 845.3,-512.9 845.3,-512.9 839.3,-512.9 833.3,-506.9 833.3,-500.9 833.3,-500.9 833.3,-474.9 833.3,-474.9 833.3,-468.9 839.3,-462.9 845.3,-462.9 845.3,-462.9 931.3,-462.9 931.3,-462.9 937.3,-462.9 943.3,-468.9 943.3,-474.9 943.3,-474.9 943.3,-500.9 943.3,-500.9 943.3,-506.9 937.3,-512.9 931.3,-512.9"/>
<text text-anchor="start" x="847.3" y="-490.3" font-family="Arial" font-weight="bold" font-size="12.00">QuanticsGrids</text>
<text text-anchor="start" x="856.3" y="-479.9" font-family="Arial" font-size="10.00">Quantics grids</text>
</g>
<!-- QuanticsTCI&#45;&gt;QuanticsGrids -->
<g id="edge6" class="edge">
<title>QuanticsTCI&#45;&gt;QuanticsGrids</title>
<path fill="none" stroke="black" d="M762.08,-494.85C782.16,-493.74 803.61,-492.56 823.03,-491.49"/>
<polygon fill="black" stroke="black" points="823.49,-494.97 833.28,-490.93 823.1,-487.98 823.49,-494.97"/>
</g>
<!-- ITensors -->
<g id="node6" class="node">
<title>ITensors</title>
<path fill="none" stroke="red" stroke-width="3" d="M562.07,-536.91C562.07,-536.91 423.07,-536.91 423.07,-536.91 417.07,-536.91 411.07,-530.91 411.07,-524.91 411.07,-524.91 411.07,-498.91 411.07,-498.91 411.07,-492.91 417.07,-486.91 423.07,-486.91 423.07,-486.91 562.07,-486.91 562.07,-486.91 568.07,-486.91 574.07,-492.91 574.07,-498.91 574.07,-498.91 574.07,-524.91 574.07,-524.91 574.07,-530.91 568.07,-536.91 562.07,-536.91"/>
<text text-anchor="start" x="467.57" y="-514.31" font-family="Arial" font-weight="bold" font-size="12.00">ITensors</text>
<text text-anchor="start" x="425.07" y="-503.91" font-family="Arial" font-size="10.00">Indexed tensor and contraction</text>
</g>
<!-- PatchedTCI -->
<g id="node7" class="node">
<title>PatchedTCI</title>
<path fill="none" stroke="red" stroke-width="3" d="M283.09,-285.38C283.09,-285.38 173.09,-285.38 173.09,-285.38 167.09,-285.38 161.09,-279.38 161.09,-273.38 161.09,-273.38 161.09,-247.38 161.09,-247.38 161.09,-241.38 167.09,-235.38 173.09,-235.38 173.09,-235.38 283.09,-235.38 283.09,-235.38 289.09,-235.38 295.09,-241.38 295.09,-247.38 295.09,-247.38 295.09,-273.38 295.09,-273.38 295.09,-279.38 289.09,-285.38 283.09,-285.38"/>
<text text-anchor="start" x="194.59" y="-262.78" font-family="Arial" font-weight="bold" font-size="12.00">PatchedTCI</text>
<text text-anchor="start" x="175.09" y="-252.38" font-family="Arial" font-size="10.00">Adaptive patching + TCI</text>
</g>
<!-- PatchedTCI&#45;&gt;TensorCrossInterpolation -->
<g id="edge7" class="edge">
<title>PatchedTCI&#45;&gt;TensorCrossInterpolation</title>
<path fill="none" stroke="black" d="M295.34,-242.29C313.68,-237.36 333.92,-231.92 353.57,-226.64"/>
<polygon fill="black" stroke="black" points="354.72,-229.95 363.47,-223.97 352.91,-223.19 354.72,-229.95"/>
</g>
<!-- TensorNetworkOperations -->
<g id="node9" class="node">
<title>TensorNetworkOperations</title>
<path fill="none" stroke="red" stroke-width="3" d="M180,-108.17C180,-108.17 25,-108.17 25,-108.17 19,-108.17 13,-102.17 13,-96.17 13,-96.17 13,-70.17 13,-70.17 13,-64.17 19,-58.17 25,-58.17 25,-58.17 180,-58.17 180,-58.17 186,-58.17 192,-64.17 192,-70.17 192,-70.17 192,-96.17 192,-96.17 192,-102.17 186,-108.17 180,-108.17"/>
<text text-anchor="start" x="27" y="-85.57" font-family="Arial" font-weight="bold" font-size="12.00">TensorNetworkOperations</text>
<text text-anchor="start" x="28" y="-75.17" font-family="Arial" font-size="10.00">Quantics.jl &#45; QuanticsTransofms.jl</text>
</g>
<!-- PatchedTCI&#45;&gt;TensorNetworkOperations -->
<g id="edge8" class="edge">
<title>PatchedTCI&#45;&gt;TensorNetworkOperations</title>
<path fill="none" stroke="black" d="M210.36,-235.36C188.36,-204.32 150.75,-151.26 126.27,-116.71"/>
<polygon fill="black" stroke="black" points="128.98,-114.48 120.34,-108.35 123.27,-118.53 128.98,-114.48"/>
</g>
<!-- TensorCrossInterpolation&#45;&gt;SimpleTensorNetworks -->
<g id="edge9" class="edge">
<title>TensorCrossInterpolation&#45;&gt;SimpleTensorNetworks</title>
<path fill="none" stroke="black" d="M538.94,-222.44C541.5,-223.01 544.03,-223.56 546.53,-224.1 613.88,-238.62 689.75,-252.57 750.52,-263.16"/>
<polygon fill="black" stroke="black" points="750.07,-266.63 760.52,-264.9 751.27,-259.74 750.07,-266.63"/>
</g>
<!-- TensorCrossInterpolation&#45;&gt;ITensors -->
<g id="edge10" class="edge">
<title>TensorCrossInterpolation&#45;&gt;ITensors</title>
<path fill="none" stroke="gray" stroke-dasharray="5,2" d="M455.03,-225.4C458.71,-249.87 464.37,-288.2 468.86,-321.46 476.15,-375.48 483.81,-438.25 488.39,-476.51"/>
<polygon fill="gray" stroke="gray" points="484.93,-477.11 489.59,-486.62 491.88,-476.28 484.93,-477.11"/>
</g>
<!-- TensorCrossInterpolation&#45;&gt;TensorNetworks -->
<g id="edge11" class="edge">
<title>TensorCrossInterpolation&#45;&gt;TensorNetworks</title>
<path fill="none" stroke="gray" stroke-dasharray="5,2" d="M443.34,-225.7C435.71,-250.15 424.09,-287.37 415.58,-314.65"/>
<polygon fill="gray" stroke="gray" points="412.24,-313.62 412.6,-324.21 418.92,-315.71 412.24,-313.62"/>
</g>
<!-- TensorCrossInterpolation&#45;&gt;TCICore -->
<g id="edge12" class="edge">
<title>TensorCrossInterpolation&#45;&gt;TCICore</title>
<path fill="none" stroke="black" d="M538.89,-198.52C538.99,-198.51 539.1,-198.51 539.21,-198.51"/>
<polygon fill="black" stroke="black" points="539.56,-202 549.48,-198.29 539.41,-195.01 539.56,-202"/>
</g>
<!-- TensorNetworkContractions -->
<g id="node12" class="node">
<title>TensorNetworkContractions</title>
<path fill="none" stroke="red" stroke-width="3" d="M178,-466.94C178,-466.94 12,-466.94 12,-466.94 6,-466.94 0,-460.94 0,-454.94 0,-454.94 0,-428.94 0,-428.94 0,-422.94 6,-416.94 12,-416.94 12,-416.94 178,-416.94 178,-416.94 184,-416.94 190,-422.94 190,-428.94 190,-428.94 190,-454.94 190,-454.94 190,-460.94 184,-466.94 178,-466.94"/>
<text text-anchor="start" x="14" y="-444.34" font-family="Arial" font-weight="bold" font-size="12.00">TensorNetworkContractions</text>
<text text-anchor="start" x="43" y="-433.94" font-family="Arial" font-size="10.00">Contractions algorithms</text>
</g>
<!-- TensorNetworkOperations&#45;&gt;TensorNetworkContractions -->
<g id="edge13" class="edge">
<title>TensorNetworkOperations&#45;&gt;TensorNetworkContractions</title>
<path fill="none" stroke="black" d="M101.97,-108.4C100.66,-171.06 97.26,-333.92 95.74,-406.33"/>
<polygon fill="black" stroke="black" points="92.24,-406.67 95.53,-416.74 99.24,-406.82 92.24,-406.67"/>
</g>
<!-- ParallelTCI -->
<g id="node10" class="node">
<title>ParallelTCI</title>
<path fill="none" stroke="black" d="M733.96,-50C733.96,-50 659.96,-50 659.96,-50 653.96,-50 647.96,-44 647.96,-38 647.96,-38 647.96,-12 647.96,-12 647.96,-6 653.96,0 659.96,0 659.96,0 733.96,0 733.96,0 739.96,0 745.96,-6 745.96,-12 745.96,-12 745.96,-38 745.96,-38 745.96,-44 739.96,-50 733.96,-50"/>
<text text-anchor="start" x="665.96" y="-27.4" font-family="Arial" font-weight="bold" font-size="12.00">ParallelTCI</text>
<text text-anchor="start" x="661.96" y="-17" font-family="Arial" font-size="10.00">Parallelized TCI</text>
</g>
<!-- ParallelTCI&#45;&gt;MPI -->
<g id="edge14" class="edge">
<title>ParallelTCI&#45;&gt;MPI</title>
<path fill="none" stroke="black" d="M647.74,-26.56C616.72,-27.54 577.29,-28.79 548.83,-29.69"/>
<polygon fill="black" stroke="black" points="548.39,-26.21 538.51,-30.02 548.61,-33.2 548.39,-26.21"/>
</g>
<!-- ParallelTCI&#45;&gt;SimpleTensorNetworks -->
<g id="edge15" class="edge">
<title>ParallelTCI&#45;&gt;SimpleTensorNetworks</title>
<path fill="none" stroke="black" d="M713.35,-50.13C743.68,-96.61 808.55,-196.04 842.7,-248.39"/>
<polygon fill="black" stroke="black" points="839.91,-250.52 848.3,-256.98 845.77,-246.69 839.91,-250.52"/>
</g>
<!-- ParallelTCI&#45;&gt;TCICore -->
<g id="edge16" class="edge">
<title>ParallelTCI&#45;&gt;TCICore</title>
<path fill="none" stroke="black" d="M691.83,-50.22C685.89,-79.46 676.06,-127.84 669.37,-160.76"/>
<polygon fill="black" stroke="black" points="665.88,-160.36 667.32,-170.86 672.74,-161.76 665.88,-160.36"/>
</g>
<!-- TensorNetworks&#45;&gt;ITensors -->
<g id="edge17" class="edge">
<title>TensorNetworks&#45;&gt;ITensors</title>
<path fill="none" stroke="black" d="M418.39,-375.01C433.36,-402.63 457.39,-446.98 474.03,-477.68"/>
<polygon fill="black" stroke="black" points="471.09,-479.61 478.93,-486.73 477.25,-476.27 471.09,-479.61"/>
</g>
<!-- TensorNetworkContractions&#45;&gt;TensorNetworks -->
<g id="edge18" class="edge">
<title>TensorNetworkContractions&#45;&gt;TensorNetworks</title>
<path fill="none" stroke="black" d="M179.21,-416.85C227.69,-402.4 287.94,-384.44 333.96,-370.73"/>
<polygon fill="black" stroke="black" points="334.97,-374.08 343.55,-367.87 332.97,-367.37 334.97,-374.08"/>
</g>
<!-- QuanticsTransforms -->
<g id="node14" class="node">
<title>QuanticsTransforms</title>
<path fill="none" stroke="black" d="M665.89,-364.1C665.89,-364.1 544.89,-364.1 544.89,-364.1 538.89,-364.1 532.89,-358.1 532.89,-352.1 532.89,-352.1 532.89,-326.1 532.89,-326.1 532.89,-320.1 538.89,-314.1 544.89,-314.1 544.89,-314.1 665.89,-314.1 665.89,-314.1 671.89,-314.1 677.89,-320.1 677.89,-326.1 677.89,-326.1 677.89,-352.1 677.89,-352.1 677.89,-358.1 671.89,-364.1 665.89,-364.1"/>
<text text-anchor="start" x="546.89" y="-341.5" font-family="Arial" font-weight="bold" font-size="12.00">QuanticsTransforms</text>
<text text-anchor="start" x="560.89" y="-331.1" font-family="Arial" font-size="10.00">Quantics transforms</text>
</g>
<!-- QuanticsTransforms&#45;&gt;SimpleTensorNetworks -->
<g id="edge19" class="edge">
<title>QuanticsTransforms&#45;&gt;SimpleTensorNetworks</title>
<path fill="none" stroke="black" d="M677.99,-323.18C700.61,-318.21 726.13,-312.62 750.87,-307.19"/>
<polygon fill="black" stroke="black" points="751.66,-310.6 760.68,-305.04 750.16,-303.76 751.66,-310.6"/>
</g>
<!-- QuanticsTransforms&#45;&gt;TensorNetworks -->
<g id="edge20" class="edge">
<title>QuanticsTransforms&#45;&gt;TensorNetworks</title>
<path fill="none" stroke="gray" stroke-dasharray="5,2" d="M532.64,-342.93C514.18,-343.9 494.37,-344.94 475.98,-345.91"/>
<polygon fill="gray" stroke="gray" points="475.73,-342.41 465.93,-346.43 476.1,-349.4 475.73,-342.41"/>
</g>
<!-- QuanticsTransforms&#45;&gt;QuanticsGrids -->
<g id="edge21" class="edge">
<title>QuanticsTransforms&#45;&gt;QuanticsGrids</title>
<path fill="none" stroke="black" d="M653.07,-364.17C702.24,-390.03 778.93,-430.37 831.28,-457.91"/>
<polygon fill="black" stroke="black" points="829.96,-461.16 840.44,-462.72 833.21,-454.97 829.96,-461.16"/>
</g>
<!-- ProjMPSs -->
<g id="node15" class="node">
<title>ProjMPSs</title>
<path fill="none" stroke="red" stroke-width="3" d="M364.75,-530.47C364.75,-530.47 212.75,-530.47 212.75,-530.47 206.75,-530.47 200.75,-524.47 200.75,-518.47 200.75,-518.47 200.75,-492.47 200.75,-492.47 200.75,-486.47 206.75,-480.47 212.75,-480.47 212.75,-480.47 364.75,-480.47 364.75,-480.47 370.75,-480.47 376.75,-486.47 376.75,-492.47 376.75,-492.47 376.75,-518.47 376.75,-518.47 376.75,-524.47 370.75,-530.47 364.75,-530.47"/>
<text text-anchor="start" x="260.25" y="-507.87" font-family="Arial" font-weight="bold" font-size="12.00">ProjMPSs</text>
<text text-anchor="start" x="214.75" y="-497.47" font-family="Arial" font-size="10.00">Adaptive patching + multiplication</text>
</g>
<!-- ProjMPSs&#45;&gt;TensorNetworks -->
<g id="edge22" class="edge">
<title>ProjMPSs&#45;&gt;TensorNetworks</title>
<path fill="none" stroke="black" d="M307.37,-480.44C327,-454.05 358.03,-412.34 379.75,-383.14"/>
<polygon fill="black" stroke="black" points="382.73,-385 385.89,-374.89 377.11,-380.82 382.73,-385"/>
</g>
</g>
</svg>
