<?xml version="1.0" encoding="UTF-8" standalone="no"?>
<!DOCTYPE svg PUBLIC "-//W3C//DTD SVG 1.1//EN"
 "http://www.w3.org/Graphics/SVG/1.1/DTD/svg11.dtd">
<!-- Generated by graphviz version 2.50.0 (20211204.2007)
 -->
<!-- Title: library_dependencies Pages: 1 -->
<svg width="432pt" height="237pt"
 viewBox="0.00 0.00 432.00 236.53" xmlns="http://www.w3.org/2000/svg" xmlns:xlink="http://www.w3.org/1999/xlink">
<g id="graph0" class="graph" transform="scale(0.62 0.62) rotate(0) translate(4 377.61)">
<title>library_dependencies</title>
<polygon fill="white" stroke="transparent" points="-4,4 -4,-377.61 692.99,-377.61 692.99,4 -4,4"/>
<!-- TensorCrossInterpolation -->
<g id="node1" class="node">
<title>TensorCrossInterpolation</title>
<path fill="none" stroke="black" d="M316.88,-221.65C316.88,-221.65 165.88,-221.65 165.88,-221.65 159.88,-221.65 153.88,-215.65 153.88,-209.65 153.88,-209.65 153.88,-183.65 153.88,-183.65 153.88,-177.65 159.88,-171.65 165.88,-171.65 165.88,-171.65 316.88,-171.65 316.88,-171.65 322.88,-171.65 328.88,-177.65 328.88,-183.65 328.88,-183.65 328.88,-209.65 328.88,-209.65 328.88,-215.65 322.88,-221.65 316.88,-221.65"/>
<text text-anchor="start" x="167.88" y="-199.05" font-family="Arial" font-weight="bold" font-size="12.00">TensorCrossInterpolation</text>
<text text-anchor="start" x="218.38" y="-188.65" font-family="Arial" font-size="10.00">TCI for TT</text>
</g>
<!-- TensorNetworks -->
<g id="node7" class="node">
<title>TensorNetworks</title>
<path fill="none" stroke="black" d="M467.01,-217.21C467.01,-217.21 369.01,-217.21 369.01,-217.21 363.01,-217.21 357.01,-211.21 357.01,-205.21 357.01,-205.21 357.01,-179.21 357.01,-179.21 357.01,-173.21 363.01,-167.21 369.01,-167.21 369.01,-167.21 467.01,-167.21 467.01,-167.21 473.01,-167.21 479.01,-173.21 479.01,-179.21 479.01,-179.21 479.01,-205.21 479.01,-205.21 479.01,-211.21 473.01,-217.21 467.01,-217.21"/>
<text text-anchor="start" x="371.01" y="-194.61" font-family="Arial" font-weight="bold" font-size="12.00">TensorNetworks</text>
<text text-anchor="start" x="394.01" y="-184.21" font-family="Arial" font-size="10.00">MPS/MPO</text>
</g>
<!-- TensorCrossInterpolation&#45;&gt;TensorNetworks -->
<g id="edge1" class="edge">
<title>TensorCrossInterpolation&#45;&gt;TensorNetworks</title>
<path fill="none" stroke="gray" stroke-dasharray="5,2" d="M328.92,-194.45C334.77,-194.3 340.63,-194.15 346.39,-194.01"/>
<polygon fill="gray" stroke="gray" points="346.73,-197.5 356.64,-193.75 346.55,-190.5 346.73,-197.5"/>
</g>
<!-- ITensors -->
<g id="node9" class="node">
<title>ITensors</title>
<path fill="none" stroke="black" d="M394.65,-373.61C394.65,-373.61 255.65,-373.61 255.65,-373.61 249.65,-373.61 243.65,-367.61 243.65,-361.61 243.65,-361.61 243.65,-335.61 243.65,-335.61 243.65,-329.61 249.65,-323.61 255.65,-323.61 255.65,-323.61 394.65,-323.61 394.65,-323.61 400.65,-323.61 406.65,-329.61 406.65,-335.61 406.65,-335.61 406.65,-361.61 406.65,-361.61 406.65,-367.61 400.65,-373.61 394.65,-373.61"/>
<text text-anchor="start" x="300.15" y="-351.01" font-family="Arial" font-weight="bold" font-size="12.00">ITensors</text>
<text text-anchor="start" x="257.65" y="-340.61" font-family="Arial" font-size="10.00">Indexed tensor and contraction</text>
</g>
<!-- TensorCrossInterpolation&#45;&gt;ITensors -->
<g id="edge2" class="edge">
<title>TensorCrossInterpolation&#45;&gt;ITensors</title>
<path fill="none" stroke="gray" stroke-dasharray="5,2" d="M255.21,-221.74C269.16,-247.04 290.78,-286.26 306.29,-314.4"/>
<polygon fill="gray" stroke="gray" points="303.4,-316.41 311.3,-323.48 309.53,-313.03 303.4,-316.41"/>
</g>
<!-- NDTensors -->
<g id="node2" class="node">
<title>NDTensors</title>
<path fill="none" stroke="black" d="M587.18,-372.04C587.18,-372.04 518.18,-372.04 518.18,-372.04 512.18,-372.04 506.18,-366.04 506.18,-360.04 506.18,-360.04 506.18,-334.04 506.18,-334.04 506.18,-328.04 512.18,-322.04 518.18,-322.04 518.18,-322.04 587.18,-322.04 587.18,-322.04 593.18,-322.04 599.18,-328.04 599.18,-334.04 599.18,-334.04 599.18,-360.04 599.18,-360.04 599.18,-366.04 593.18,-372.04 587.18,-372.04"/>
<text text-anchor="start" x="520.18" y="-349.44" font-family="Arial" font-weight="bold" font-size="12.00">NDTensors</text>
<text text-anchor="start" x="523.68" y="-339.04" font-family="Arial" font-size="10.00">NDTensors.jl</text>
</g>
<!-- QuanticsGrids -->
<g id="node3" class="node">
<title>QuanticsGrids</title>
<path fill="none" stroke="black" d="M98,-113.96C98,-113.96 12,-113.96 12,-113.96 6,-113.96 0,-107.96 0,-101.96 0,-101.96 0,-75.96 0,-75.96 0,-69.96 6,-63.96 12,-63.96 12,-63.96 98,-63.96 98,-63.96 104,-63.96 110,-69.96 110,-75.96 110,-75.96 110,-101.96 110,-101.96 110,-107.96 104,-113.96 98,-113.96"/>
<text text-anchor="start" x="14" y="-91.36" font-family="Arial" font-weight="bold" font-size="12.00">QuanticsGrids</text>
<text text-anchor="start" x="23" y="-80.96" font-family="Arial" font-size="10.00">Quantics grids</text>
</g>
<!-- QuanticsTCI -->
<g id="node4" class="node">
<title>QuanticsTCI</title>
<path fill="none" stroke="black" d="M263.64,-50C263.64,-50 134.64,-50 134.64,-50 128.64,-50 122.64,-44 122.64,-38 122.64,-38 122.64,-12 122.64,-12 122.64,-6 128.64,0 134.64,0 134.64,0 263.64,0 263.64,0 269.64,0 275.64,-6 275.64,-12 275.64,-12 275.64,-38 275.64,-38 275.64,-44 269.64,-50 263.64,-50"/>
<text text-anchor="start" x="163.64" y="-27.4" font-family="Arial" font-weight="bold" font-size="12.00">QuanticsTCI</text>
<text text-anchor="start" x="136.64" y="-17" font-family="Arial" font-size="10.00">Sugar coating for TCI + QTT</text>
</g>
<!-- QuanticsTCI&#45;&gt;TensorCrossInterpolation -->
<g id="edge3" class="edge">
<title>QuanticsTCI&#45;&gt;TensorCrossInterpolation</title>
<path fill="none" stroke="black" d="M205.37,-50.33C212.63,-79.82 224.66,-128.71 232.8,-161.78"/>
<polygon fill="black" stroke="black" points="229.4,-162.62 235.19,-171.49 236.2,-160.95 229.4,-162.62"/>
</g>
<!-- QuanticsTCI&#45;&gt;QuanticsGrids -->
<g id="edge4" class="edge">
<title>QuanticsTCI&#45;&gt;QuanticsGrids</title>
<path fill="none" stroke="black" d="M142.59,-50.1C135.07,-53.43 127.32,-56.87 119.69,-60.26"/>
<polygon fill="black" stroke="black" points="118.17,-57.1 110.45,-64.36 121.01,-63.5 118.17,-57.1"/>
</g>
<!-- Quantics -->
<g id="node5" class="node">
<title>Quantics</title>
<path fill="none" stroke="black" d="M638.12,-52.66C638.12,-52.66 486.12,-52.66 486.12,-52.66 480.12,-52.66 474.12,-46.66 474.12,-40.66 474.12,-40.66 474.12,-14.66 474.12,-14.66 474.12,-8.66 480.12,-2.66 486.12,-2.66 486.12,-2.66 638.12,-2.66 638.12,-2.66 644.12,-2.66 650.12,-8.66 650.12,-14.66 650.12,-14.66 650.12,-40.66 650.12,-40.66 650.12,-46.66 644.12,-52.66 638.12,-52.66"/>
<text text-anchor="start" x="536.12" y="-30.06" font-family="Arial" font-weight="bold" font-size="12.00">Quantics</text>
<text text-anchor="start" x="488.12" y="-19.66" font-family="Arial" font-size="10.00">Quantics&#45;related utilities and misc</text>
</g>
<!-- TensorNetworkContractions -->
<g id="node8" class="node">
<title>TensorNetworkContractions</title>
<path fill="none" stroke="black" d="M676.99,-212.91C676.99,-212.91 510.99,-212.91 510.99,-212.91 504.99,-212.91 498.99,-206.91 498.99,-200.91 498.99,-200.91 498.99,-174.91 498.99,-174.91 498.99,-168.91 504.99,-162.91 510.99,-162.91 510.99,-162.91 676.99,-162.91 676.99,-162.91 682.99,-162.91 688.99,-168.91 688.99,-174.91 688.99,-174.91 688.99,-200.91 688.99,-200.91 688.99,-206.91 682.99,-212.91 676.99,-212.91"/>
<text text-anchor="start" x="512.99" y="-190.31" font-family="Arial" font-weight="bold" font-size="12.00">TensorNetworkContractions</text>
<text text-anchor="start" x="541.99" y="-179.91" font-family="Arial" font-size="10.00">Contractions algorithms</text>
</g>
<!-- Quantics&#45;&gt;TensorNetworkContractions -->
<g id="edge5" class="edge">
<title>Quantics&#45;&gt;TensorNetworkContractions</title>
<path fill="none" stroke="black" d="M567.1,-52.7C572.44,-79.55 580.96,-122.4 586.98,-152.65"/>
<polygon fill="black" stroke="black" points="583.61,-153.65 588.99,-162.78 590.47,-152.29 583.61,-153.65"/>
</g>
<!-- ProjMPSs -->
<g id="node6" class="node">
<title>ProjMPSs</title>
<path fill="none" stroke="black" d="M166.23,-348.53C166.23,-348.53 14.23,-348.53 14.23,-348.53 8.23,-348.53 2.23,-342.53 2.23,-336.53 2.23,-336.53 2.23,-310.53 2.23,-310.53 2.23,-304.53 8.23,-298.53 14.23,-298.53 14.23,-298.53 166.23,-298.53 166.23,-298.53 172.23,-298.53 178.23,-304.53 178.23,-310.53 178.23,-310.53 178.23,-336.53 178.23,-336.53 178.23,-342.53 172.23,-348.53 166.23,-348.53"/>
<text text-anchor="start" x="61.73" y="-325.93" font-family="Arial" font-weight="bold" font-size="12.00">ProjMPSs</text>
<text text-anchor="start" x="16.23" y="-315.53" font-family="Arial" font-size="10.00">Adaptive patching + multiplication</text>
</g>
<!-- ProjMPSs&#45;&gt;TensorNetworks -->
<g id="edge6" class="edge">
<title>ProjMPSs&#45;&gt;TensorNetworks</title>
<path fill="none" stroke="black" d="M152.65,-298.52C208.25,-276.24 289.54,-243.68 347.48,-220.47"/>
<polygon fill="black" stroke="black" points="348.94,-223.65 356.93,-216.68 346.34,-217.15 348.94,-223.65"/>
</g>
<!-- TensorNetworks&#45;&gt;ITensors -->
<g id="edge7" class="edge">
<title>TensorNetworks&#45;&gt;ITensors</title>
<path fill="none" stroke="black" d="M403.09,-217.34C387.38,-243.79 362.58,-285.58 345.18,-314.88"/>
<polygon fill="black" stroke="black" points="342.13,-313.16 340.03,-323.55 348.15,-316.73 342.13,-313.16"/>
</g>
<!-- TensorNetworkContractions&#45;&gt;TensorNetworks -->
<g id="edge8" class="edge">
<title>TensorNetworkContractions&#45;&gt;TensorNetworks</title>
<path fill="none" stroke="black" d="M498.79,-190.23C495.57,-190.31 492.37,-190.39 489.19,-190.47"/>
<polygon fill="black" stroke="black" points="489.09,-186.97 479.18,-190.71 489.27,-193.97 489.09,-186.97"/>
</g>
<!-- ITensors&#45;&gt;NDTensors -->
<g id="edge9" class="edge">
<title>ITensors&#45;&gt;NDTensors</title>
<path fill="none" stroke="black" d="M406.65,-348.05C436.28,-347.85 469.08,-347.62 496.08,-347.43"/>
<polygon fill="black" stroke="black" points="496.15,-350.93 506.13,-347.36 496.1,-343.93 496.15,-350.93"/>
</g>
<!-- PatchedTCI -->
<g id="node10" class="node">
<title>PatchedTCI</title>
<path fill="none" stroke="black" d="M420.61,-58.04C420.61,-58.04 310.61,-58.04 310.61,-58.04 304.61,-58.04 298.61,-52.04 298.61,-46.04 298.61,-46.04 298.61,-20.04 298.61,-20.04 298.61,-14.04 304.61,-8.04 310.61,-8.04 310.61,-8.04 420.61,-8.04 420.61,-8.04 426.61,-8.04 432.61,-14.04 432.61,-20.04 432.61,-20.04 432.61,-46.04 432.61,-46.04 432.61,-52.04 426.61,-58.04 420.61,-58.04"/>
<text text-anchor="start" x="332.11" y="-35.44" font-family="Arial" font-weight="bold" font-size="12.00">PatchedTCI</text>
<text text-anchor="start" x="312.61" y="-25.04" font-family="Arial" font-size="10.00">Adaptive patching + TCI</text>
</g>
<!-- PatchedTCI&#45;&gt;TensorCrossInterpolation -->
<g id="edge10" class="edge">
<title>PatchedTCI&#45;&gt;TensorCrossInterpolation</title>
<path fill="none" stroke="black" d="M346.47,-58.25C325.04,-86.47 290.22,-132.32 266.59,-163.44"/>
<polygon fill="black" stroke="black" points="263.8,-161.33 260.54,-171.41 269.37,-165.57 263.8,-161.33"/>
</g>
<!-- PatchedTCI&#45;&gt;Quantics -->
<g id="edge11" class="edge">
<title>PatchedTCI&#45;&gt;Quantics</title>
<path fill="none" stroke="black" d="M432.69,-31.21C442.71,-30.93 453.22,-30.64 463.73,-30.36"/>
<polygon fill="black" stroke="black" points="463.9,-33.85 473.8,-30.08 463.71,-26.86 463.9,-33.85"/>
</g>
</g>
</svg>
