<?xml version="1.0" encoding="UTF-8" standalone="no"?>
<!DOCTYPE svg PUBLIC "-//W3C//DTD SVG 1.1//EN"
 "http://www.w3.org/Graphics/SVG/1.1/DTD/svg11.dtd">
<!-- Generated by graphviz version 2.50.0 (20211204.2007)
 -->
<!-- Title: library_dependencies Pages: 1 -->
<svg width="576pt" height="382pt"
 viewBox="0.00 0.00 576.00 381.92" xmlns="http://www.w3.org/2000/svg" xmlns:xlink="http://www.w3.org/1999/xlink">
<g id="graph0" class="graph" transform="scale(0.6 0.6) rotate(0) translate(4 633.53)">
<title>library_dependencies</title>
<polygon fill="white" stroke="transparent" points="-4,4 -4,-633.53 957.5,-633.53 957.5,4 -4,4"/>
<!-- ParallelMPOContractions -->
<g id="node1" class="node">
<title>ParallelMPOContractions</title>
<path fill="none" stroke="red" stroke-width="3" d="M366.95,-427.47C366.95,-427.47 218.95,-427.47 218.95,-427.47 212.95,-427.47 206.95,-421.47 206.95,-415.47 206.95,-415.47 206.95,-389.47 206.95,-389.47 206.95,-383.47 212.95,-377.47 218.95,-377.47 218.95,-377.47 366.95,-377.47 366.95,-377.47 372.95,-377.47 378.95,-383.47 378.95,-389.47 378.95,-389.47 378.95,-415.47 378.95,-415.47 378.95,-421.47 372.95,-427.47 366.95,-427.47"/>
<text text-anchor="start" x="220.95" y="-404.87" font-family="Arial" font-weight="bold" font-size="12.00">ParallelMPOContractions</text>
<text text-anchor="start" x="226.45" y="-394.47" font-family="Arial" font-size="10.00">Parallelized MPO contractions</text>
</g>
<!-- MPI -->
<g id="node3" class="node">
<title>MPI</title>
<path fill="none" stroke="black" d="M119.18,-73.52C119.18,-73.52 89.18,-73.52 89.18,-73.52 83.18,-73.52 77.18,-67.52 77.18,-61.52 77.18,-61.52 77.18,-35.52 77.18,-35.52 77.18,-29.52 83.18,-23.52 89.18,-23.52 89.18,-23.52 119.18,-23.52 119.18,-23.52 125.18,-23.52 131.18,-29.52 131.18,-35.52 131.18,-35.52 131.18,-61.52 131.18,-61.52 131.18,-67.52 125.18,-73.52 119.18,-73.52"/>
<text text-anchor="start" x="93.18" y="-50.92" font-family="Arial" font-weight="bold" font-size="12.00">MPI</text>
<text text-anchor="start" x="94.68" y="-40.52" font-family="Arial" font-size="10.00">MPI</text>
</g>
<!-- ParallelMPOContractions&#45;&gt;MPI -->
<g id="edge1" class="edge">
<title>ParallelMPOContractions&#45;&gt;MPI</title>
<path fill="none" stroke="black" d="M279.52,-377.3C246.31,-315.02 160.26,-153.67 122.46,-82.78"/>
<polygon fill="black" stroke="black" points="125.46,-80.97 117.66,-73.8 119.28,-84.27 125.46,-80.97"/>
</g>
<!-- TensorNetworks -->
<g id="node10" class="node">
<title>TensorNetworks</title>
<path fill="none" stroke="red" stroke-width="3" d="M591.92,-439.78C591.92,-439.78 493.92,-439.78 493.92,-439.78 487.92,-439.78 481.92,-433.78 481.92,-427.78 481.92,-427.78 481.92,-401.78 481.92,-401.78 481.92,-395.78 487.92,-389.78 493.92,-389.78 493.92,-389.78 591.92,-389.78 591.92,-389.78 597.92,-389.78 603.92,-395.78 603.92,-401.78 603.92,-401.78 603.92,-427.78 603.92,-427.78 603.92,-433.78 597.92,-439.78 591.92,-439.78"/>
<text text-anchor="start" x="495.92" y="-417.18" font-family="Arial" font-weight="bold" font-size="12.00">TensorNetworks</text>
<text text-anchor="start" x="518.92" y="-406.78" font-family="Arial" font-size="10.00">MPS/MPO</text>
</g>
<!-- ParallelMPOContractions&#45;&gt;TensorNetworks -->
<g id="edge2" class="edge">
<title>ParallelMPOContractions&#45;&gt;TensorNetworks</title>
<path fill="none" stroke="black" d="M378.97,-406.71C409.17,-408.19 442.73,-409.85 471.59,-411.27"/>
<polygon fill="black" stroke="black" points="471.42,-414.76 481.58,-411.76 471.77,-407.77 471.42,-414.76"/>
</g>
<!-- TreeTCI -->
<g id="node2" class="node">
<title>TreeTCI</title>
<path fill="none" stroke="red" stroke-width="3" d="M833,-425.39C833,-425.39 743,-425.39 743,-425.39 737,-425.39 731,-419.39 731,-413.39 731,-413.39 731,-387.39 731,-387.39 731,-381.39 737,-375.39 743,-375.39 743,-375.39 833,-375.39 833,-375.39 839,-375.39 845,-381.39 845,-387.39 845,-387.39 845,-413.39 845,-413.39 845,-419.39 839,-425.39 833,-425.39"/>
<text text-anchor="start" x="765.5" y="-402.79" font-family="Arial" font-weight="bold" font-size="12.00">TreeTCI</text>
<text text-anchor="start" x="745" y="-392.39" font-family="Arial" font-size="10.00">TCI for tree tensors</text>
</g>
<!-- TreeTCI&#45;&gt;TensorNetworks -->
<g id="edge3" class="edge">
<title>TreeTCI&#45;&gt;TensorNetworks</title>
<path fill="none" stroke="black" d="M730.85,-403.74C696.07,-405.79 651.35,-408.41 614.27,-410.59"/>
<polygon fill="black" stroke="black" points="613.8,-407.11 604.02,-411.19 614.21,-414.1 613.8,-407.11"/>
</g>
<!-- TCICore -->
<g id="node15" class="node">
<title>TCICore</title>
<path fill="none" stroke="black" d="M724.88,-221.88C724.88,-221.88 523.88,-221.88 523.88,-221.88 517.88,-221.88 511.88,-215.88 511.88,-209.88 511.88,-209.88 511.88,-183.88 511.88,-183.88 511.88,-177.88 517.88,-171.88 523.88,-171.88 523.88,-171.88 724.88,-171.88 724.88,-171.88 730.88,-171.88 736.88,-177.88 736.88,-183.88 736.88,-183.88 736.88,-209.88 736.88,-209.88 736.88,-215.88 730.88,-221.88 724.88,-221.88"/>
<text text-anchor="start" x="600.38" y="-199.28" font-family="Arial" font-weight="bold" font-size="12.00">TCICore</text>
<text text-anchor="start" x="525.88" y="-188.88" font-family="Arial" font-size="10.00">TCI core algorithms (LU decomposition, etc.)</text>
</g>
<!-- TreeTCI&#45;&gt;TCICore -->
<g id="edge4" class="edge">
<title>TreeTCI&#45;&gt;TCICore</title>
<path fill="none" stroke="black" d="M767.61,-375.02C738.12,-338.34 683.53,-270.44 650.93,-229.89"/>
<polygon fill="black" stroke="black" points="653.51,-227.52 644.52,-221.92 648.06,-231.91 653.51,-227.52"/>
</g>
<!-- QuanticsTCI -->
<g id="node4" class="node">
<title>QuanticsTCI</title>
<path fill="none" stroke="red" stroke-width="3" d="M141,-337.48C141,-337.48 12,-337.48 12,-337.48 6,-337.48 0,-331.48 0,-325.48 0,-325.48 0,-299.48 0,-299.48 0,-293.48 6,-287.48 12,-287.48 12,-287.48 141,-287.48 141,-287.48 147,-287.48 153,-293.48 153,-299.48 153,-299.48 153,-325.48 153,-325.48 153,-331.48 147,-337.48 141,-337.48"/>
<text text-anchor="start" x="41" y="-314.88" font-family="Arial" font-weight="bold" font-size="12.00">QuanticsTCI</text>
<text text-anchor="start" x="14" y="-304.48" font-family="Arial" font-size="10.00">Sugar coating for TCI + QTT</text>
</g>
<!-- TensorCrossInterpolation -->
<g id="node7" class="node">
<title>TensorCrossInterpolation</title>
<path fill="none" stroke="red" stroke-width="3" d="M516.53,-282.01C516.53,-282.01 365.53,-282.01 365.53,-282.01 359.53,-282.01 353.53,-276.01 353.53,-270.01 353.53,-270.01 353.53,-244.01 353.53,-244.01 353.53,-238.01 359.53,-232.01 365.53,-232.01 365.53,-232.01 516.53,-232.01 516.53,-232.01 522.53,-232.01 528.53,-238.01 528.53,-244.01 528.53,-244.01 528.53,-270.01 528.53,-270.01 528.53,-276.01 522.53,-282.01 516.53,-282.01"/>
<text text-anchor="start" x="367.53" y="-259.41" font-family="Arial" font-weight="bold" font-size="12.00">TensorCrossInterpolation</text>
<text text-anchor="start" x="418.03" y="-249.01" font-family="Arial" font-size="10.00">TCI for TT</text>
</g>
<!-- QuanticsTCI&#45;&gt;TensorCrossInterpolation -->
<g id="edge5" class="edge">
<title>QuanticsTCI&#45;&gt;TensorCrossInterpolation</title>
<path fill="none" stroke="black" d="M153.36,-300.79C208.65,-292.37 283.66,-280.96 343.22,-271.9"/>
<polygon fill="black" stroke="black" points="344.03,-275.31 353.39,-270.35 342.98,-268.39 344.03,-275.31"/>
</g>
<!-- QuanticsGrids -->
<g id="node12" class="node">
<title>QuanticsGrids</title>
<path fill="none" stroke="black" d="M138.65,-603.95C138.65,-603.95 52.65,-603.95 52.65,-603.95 46.65,-603.95 40.65,-597.95 40.65,-591.95 40.65,-591.95 40.65,-565.95 40.65,-565.95 40.65,-559.95 46.65,-553.95 52.65,-553.95 52.65,-553.95 138.65,-553.95 138.65,-553.95 144.65,-553.95 150.65,-559.95 150.65,-565.95 150.65,-565.95 150.65,-591.95 150.65,-591.95 150.65,-597.95 144.65,-603.95 138.65,-603.95"/>
<text text-anchor="start" x="54.65" y="-581.35" font-family="Arial" font-weight="bold" font-size="12.00">QuanticsGrids</text>
<text text-anchor="start" x="63.65" y="-570.95" font-family="Arial" font-size="10.00">Quantics grids</text>
</g>
<!-- QuanticsTCI&#45;&gt;QuanticsGrids -->
<g id="edge6" class="edge">
<title>QuanticsTCI&#45;&gt;QuanticsGrids</title>
<path fill="none" stroke="black" d="M78.3,-337.55C81.72,-385.17 89.17,-488.8 93.11,-543.5"/>
<polygon fill="black" stroke="black" points="89.64,-544.03 93.84,-553.76 96.62,-543.53 89.64,-544.03"/>
</g>
<!-- ITensors -->
<g id="node5" class="node">
<title>ITensors</title>
<path fill="none" stroke="red" stroke-width="3" d="M661.09,-629.53C661.09,-629.53 522.09,-629.53 522.09,-629.53 516.09,-629.53 510.09,-623.53 510.09,-617.53 510.09,-617.53 510.09,-591.53 510.09,-591.53 510.09,-585.53 516.09,-579.53 522.09,-579.53 522.09,-579.53 661.09,-579.53 661.09,-579.53 667.09,-579.53 673.09,-585.53 673.09,-591.53 673.09,-591.53 673.09,-617.53 673.09,-617.53 673.09,-623.53 667.09,-629.53 661.09,-629.53"/>
<text text-anchor="start" x="566.59" y="-606.93" font-family="Arial" font-weight="bold" font-size="12.00">ITensors</text>
<text text-anchor="start" x="524.09" y="-596.53" font-family="Arial" font-size="10.00">Indexed tensor and contraction</text>
</g>
<!-- PatchedTCI -->
<g id="node6" class="node">
<title>PatchedTCI</title>
<path fill="none" stroke="red" stroke-width="3" d="M514.1,-50C514.1,-50 404.1,-50 404.1,-50 398.1,-50 392.1,-44 392.1,-38 392.1,-38 392.1,-12 392.1,-12 392.1,-6 398.1,0 404.1,0 404.1,0 514.1,0 514.1,0 520.1,0 526.1,-6 526.1,-12 526.1,-12 526.1,-38 526.1,-38 526.1,-44 520.1,-50 514.1,-50"/>
<text text-anchor="start" x="425.6" y="-27.4" font-family="Arial" font-weight="bold" font-size="12.00">PatchedTCI</text>
<text text-anchor="start" x="406.1" y="-17" font-family="Arial" font-size="10.00">Adaptive patching + TCI</text>
</g>
<!-- PatchedTCI&#45;&gt;TensorCrossInterpolation -->
<g id="edge7" class="edge">
<title>PatchedTCI&#45;&gt;TensorCrossInterpolation</title>
<path fill="none" stroke="black" d="M457.13,-50.27C453.9,-91.76 447.47,-174.43 443.78,-221.69"/>
<polygon fill="black" stroke="black" points="440.29,-221.53 443,-231.77 447.27,-222.07 440.29,-221.53"/>
</g>
<!-- TensorNetworkOperations -->
<g id="node8" class="node">
<title>TensorNetworkOperations</title>
<path fill="none" stroke="red" stroke-width="3" d="M862.29,-51.54C862.29,-51.54 707.29,-51.54 707.29,-51.54 701.29,-51.54 695.29,-45.54 695.29,-39.54 695.29,-39.54 695.29,-13.54 695.29,-13.54 695.29,-7.54 701.29,-1.54 707.29,-1.54 707.29,-1.54 862.29,-1.54 862.29,-1.54 868.29,-1.54 874.29,-7.54 874.29,-13.54 874.29,-13.54 874.29,-39.54 874.29,-39.54 874.29,-45.54 868.29,-51.54 862.29,-51.54"/>
<text text-anchor="start" x="709.29" y="-28.94" font-family="Arial" font-weight="bold" font-size="12.00">TensorNetworkOperations</text>
<text text-anchor="start" x="710.29" y="-18.54" font-family="Arial" font-size="10.00">Quantics.jl &#45; QuanticsTransofms.jl</text>
</g>
<!-- PatchedTCI&#45;&gt;TensorNetworkOperations -->
<g id="edge8" class="edge">
<title>PatchedTCI&#45;&gt;TensorNetworkOperations</title>
<path fill="none" stroke="black" d="M526.19,-25.32C572.02,-25.53 633.53,-25.82 685.07,-26.07"/>
<polygon fill="black" stroke="black" points="685.22,-29.57 695.24,-26.11 685.26,-22.57 685.22,-29.57"/>
</g>
<!-- TensorCrossInterpolation&#45;&gt;TensorNetworks -->
<g id="edge9" class="edge">
<title>TensorCrossInterpolation&#45;&gt;TensorNetworks</title>
<path fill="none" stroke="black" d="M457.4,-282.36C474.69,-309.12 502.02,-351.44 521.12,-381.02"/>
<polygon fill="black" stroke="black" points="518.39,-383.25 526.76,-389.76 524.28,-379.46 518.39,-383.25"/>
</g>
<!-- TensorCrossInterpolation&#45;&gt;TCICore -->
<g id="edge10" class="edge">
<title>TensorCrossInterpolation&#45;&gt;TCICore</title>
<path fill="none" stroke="black" d="M517.46,-231.95C524.42,-229.66 531.5,-227.34 538.53,-225.04"/>
<polygon fill="black" stroke="black" points="539.67,-228.35 548.08,-221.9 537.49,-221.7 539.67,-228.35"/>
</g>
<!-- TensorNetworkContractions -->
<g id="node11" class="node">
<title>TensorNetworkContractions</title>
<path fill="none" stroke="red" stroke-width="3" d="M941.5,-244.5C941.5,-244.5 775.5,-244.5 775.5,-244.5 769.5,-244.5 763.5,-238.5 763.5,-232.5 763.5,-232.5 763.5,-206.5 763.5,-206.5 763.5,-200.5 769.5,-194.5 775.5,-194.5 775.5,-194.5 941.5,-194.5 941.5,-194.5 947.5,-194.5 953.5,-200.5 953.5,-206.5 953.5,-206.5 953.5,-232.5 953.5,-232.5 953.5,-238.5 947.5,-244.5 941.5,-244.5"/>
<text text-anchor="start" x="777.5" y="-221.9" font-family="Arial" font-weight="bold" font-size="12.00">TensorNetworkContractions</text>
<text text-anchor="start" x="806.5" y="-211.5" font-family="Arial" font-size="10.00">Contractions algorithms</text>
</g>
<!-- TensorNetworkOperations&#45;&gt;TensorNetworkContractions -->
<g id="edge11" class="edge">
<title>TensorNetworkOperations&#45;&gt;TensorNetworkContractions</title>
<path fill="none" stroke="black" d="M794.43,-51.76C807.4,-85.71 830.52,-146.25 845.15,-184.56"/>
<polygon fill="black" stroke="black" points="842.02,-186.17 848.86,-194.27 848.56,-183.67 842.02,-186.17"/>
</g>
<!-- ParallelTCI -->
<g id="node9" class="node">
<title>ParallelTCI</title>
<path fill="none" stroke="red" stroke-width="3" d="M317.87,-184.94C317.87,-184.94 243.87,-184.94 243.87,-184.94 237.87,-184.94 231.87,-178.94 231.87,-172.94 231.87,-172.94 231.87,-146.94 231.87,-146.94 231.87,-140.94 237.87,-134.94 243.87,-134.94 243.87,-134.94 317.87,-134.94 317.87,-134.94 323.87,-134.94 329.87,-140.94 329.87,-146.94 329.87,-146.94 329.87,-172.94 329.87,-172.94 329.87,-178.94 323.87,-184.94 317.87,-184.94"/>
<text text-anchor="start" x="249.87" y="-162.34" font-family="Arial" font-weight="bold" font-size="12.00">ParallelTCI</text>
<text text-anchor="start" x="245.87" y="-151.94" font-family="Arial" font-size="10.00">Parallelized TCI</text>
</g>
<!-- ParallelTCI&#45;&gt;MPI -->
<g id="edge12" class="edge">
<title>ParallelTCI&#45;&gt;MPI</title>
<path fill="none" stroke="black" d="M241.22,-134.93C210.88,-115.8 169.41,-89.65 140.05,-71.14"/>
<polygon fill="black" stroke="black" points="141.68,-68.03 131.36,-65.65 137.95,-73.95 141.68,-68.03"/>
</g>
<!-- ParallelTCI&#45;&gt;TensorNetworks -->
<g id="edge13" class="edge">
<title>ParallelTCI&#45;&gt;TensorNetworks</title>
<path fill="none" stroke="black" d="M290.66,-185.2C302.01,-212.2 322.76,-255.16 350.33,-285.21 388.53,-326.84 442.66,-361.74 483.81,-384.79"/>
<polygon fill="black" stroke="black" points="482.2,-387.9 492.65,-389.67 485.59,-381.77 482.2,-387.9"/>
</g>
<!-- ParallelTCI&#45;&gt;TCICore -->
<g id="edge14" class="edge">
<title>ParallelTCI&#45;&gt;TCICore</title>
<path fill="none" stroke="black" d="M330.09,-165.23C374.72,-170.03 442.39,-177.31 501.59,-183.67"/>
<polygon fill="black" stroke="black" points="501.45,-187.18 511.77,-184.77 502.2,-180.22 501.45,-187.18"/>
</g>
<!-- TensorNetworks&#45;&gt;ITensors -->
<g id="edge15" class="edge">
<title>TensorNetworks&#45;&gt;ITensors</title>
<path fill="none" stroke="black" d="M549.38,-439.98C557.89,-473.15 572.9,-531.65 582.53,-569.22"/>
<polygon fill="black" stroke="black" points="579.22,-570.41 585.1,-579.22 586,-568.67 579.22,-570.41"/>
</g>
<!-- TensorNetworkContractions&#45;&gt;TensorNetworks -->
<g id="edge16" class="edge">
<title>TensorNetworkContractions&#45;&gt;TensorNetworks</title>
<path fill="none" stroke="black" d="M817.89,-244.63C760.13,-280.37 654.4,-345.8 592.22,-384.27"/>
<polygon fill="black" stroke="black" points="590.04,-381.51 583.38,-389.75 593.72,-387.46 590.04,-381.51"/>
</g>
<!-- QuanticsTransforms -->
<g id="node13" class="node">
<title>QuanticsTransforms</title>
<path fill="none" stroke="red" stroke-width="3" d="M413.74,-628.48C413.74,-628.48 292.74,-628.48 292.74,-628.48 286.74,-628.48 280.74,-622.48 280.74,-616.48 280.74,-616.48 280.74,-590.48 280.74,-590.48 280.74,-584.48 286.74,-578.48 292.74,-578.48 292.74,-578.48 413.74,-578.48 413.74,-578.48 419.74,-578.48 425.74,-584.48 425.74,-590.48 425.74,-590.48 425.74,-616.48 425.74,-616.48 425.74,-622.48 419.74,-628.48 413.74,-628.48"/>
<text text-anchor="start" x="294.74" y="-605.88" font-family="Arial" font-weight="bold" font-size="12.00">QuanticsTransforms</text>
<text text-anchor="start" x="308.74" y="-595.48" font-family="Arial" font-size="10.00">Quantics transforms</text>
</g>
<!-- QuanticsTransforms&#45;&gt;TensorNetworks -->
<g id="edge17" class="edge">
<title>QuanticsTransforms&#45;&gt;TensorNetworks</title>
<path fill="none" stroke="black" d="M378.43,-578.42C412.44,-544.59 473.09,-484.25 510.48,-447.06"/>
<polygon fill="black" stroke="black" points="513.01,-449.48 517.63,-439.94 508.07,-444.51 513.01,-449.48"/>
</g>
<!-- QuanticsTransforms&#45;&gt;QuanticsGrids -->
<g id="edge18" class="edge">
<title>QuanticsTransforms&#45;&gt;QuanticsGrids</title>
<path fill="none" stroke="black" d="M280.46,-596.55C242.79,-592.96 197.19,-588.62 160.7,-585.15"/>
<polygon fill="black" stroke="black" points="160.96,-581.66 150.67,-584.19 160.29,-588.62 160.96,-581.66"/>
</g>
<!-- ProjMPSs -->
<g id="node14" class="node">
<title>ProjMPSs</title>
<path fill="none" stroke="red" stroke-width="3" d="M910.97,-619.81C910.97,-619.81 758.97,-619.81 758.97,-619.81 752.97,-619.81 746.97,-613.81 746.97,-607.81 746.97,-607.81 746.97,-581.81 746.97,-581.81 746.97,-575.81 752.97,-569.81 758.97,-569.81 758.97,-569.81 910.97,-569.81 910.97,-569.81 916.97,-569.81 922.97,-575.81 922.97,-581.81 922.97,-581.81 922.97,-607.81 922.97,-607.81 922.97,-613.81 916.97,-619.81 910.97,-619.81"/>
<text text-anchor="start" x="806.47" y="-597.21" font-family="Arial" font-weight="bold" font-size="12.00">ProjMPSs</text>
<text text-anchor="start" x="760.97" y="-586.81" font-family="Arial" font-size="10.00">Adaptive patching + multiplication</text>
</g>
<!-- ProjMPSs&#45;&gt;TensorNetworks -->
<g id="edge19" class="edge">
<title>ProjMPSs&#45;&gt;TensorNetworks</title>
<path fill="none" stroke="black" d="M794.36,-569.77C741.54,-537.22 649.34,-480.38 592.47,-445.32"/>
<polygon fill="black" stroke="black" points="594,-442.16 583.65,-439.89 590.33,-448.12 594,-442.16"/>
</g>
</g>
</svg>
