<?xml version="1.0" encoding="UTF-8" standalone="no"?>
<!DOCTYPE svg PUBLIC "-//W3C//DTD SVG 1.1//EN"
 "http://www.w3.org/Graphics/SVG/1.1/DTD/svg11.dtd">
<!-- Generated by graphviz version 2.50.0 (20211204.2007)
 -->
<!-- Title: library_dependencies Pages: 1 -->
<svg width="576pt" height="381pt"
 viewBox="0.00 0.00 576.00 380.91" xmlns="http://www.w3.org/2000/svg" xmlns:xlink="http://www.w3.org/1999/xlink">
<g id="graph0" class="graph" transform="scale(0.61 0.61) rotate(0) translate(4 619.03)">
<title>library_dependencies</title>
<polygon fill="white" stroke="transparent" points="-4,4 -4,-619.03 938.13,-619.03 938.13,4 -4,4"/>
<!-- ParallelMPOContractions -->
<g id="node1" class="node">
<title>ParallelMPOContractions</title>
<path fill="none" stroke="red" stroke-width="3" d="M370.94,-415.67C370.94,-415.67 222.94,-415.67 222.94,-415.67 216.94,-415.67 210.94,-409.67 210.94,-403.67 210.94,-403.67 210.94,-377.67 210.94,-377.67 210.94,-371.67 216.94,-365.67 222.94,-365.67 222.94,-365.67 370.94,-365.67 370.94,-365.67 376.94,-365.67 382.94,-371.67 382.94,-377.67 382.94,-377.67 382.94,-403.67 382.94,-403.67 382.94,-409.67 376.94,-415.67 370.94,-415.67"/>
<text text-anchor="start" x="224.94" y="-393.07" font-family="Arial" font-weight="bold" font-size="12.00">ParallelMPOContractions</text>
<text text-anchor="start" x="230.44" y="-382.67" font-family="Arial" font-size="10.00">Parallelized MPO contractions</text>
</g>
<!-- MPI -->
<g id="node3" class="node">
<title>MPI</title>
<path fill="none" stroke="black" d="M121.72,-73.67C121.72,-73.67 91.72,-73.67 91.72,-73.67 85.72,-73.67 79.72,-67.67 79.72,-61.67 79.72,-61.67 79.72,-35.67 79.72,-35.67 79.72,-29.67 85.72,-23.67 91.72,-23.67 91.72,-23.67 121.72,-23.67 121.72,-23.67 127.72,-23.67 133.72,-29.67 133.72,-35.67 133.72,-35.67 133.72,-61.67 133.72,-61.67 133.72,-67.67 127.72,-73.67 121.72,-73.67"/>
<text text-anchor="start" x="95.72" y="-51.07" font-family="Arial" font-weight="bold" font-size="12.00">MPI</text>
<text text-anchor="start" x="97.22" y="-40.67" font-family="Arial" font-size="10.00">MPI</text>
</g>
<!-- ParallelMPOContractions&#45;&gt;MPI -->
<g id="edge1" class="edge">
<title>ParallelMPOContractions&#45;&gt;MPI</title>
<path fill="none" stroke="black" d="M282.96,-365.52C249.36,-305.12 164.07,-151.77 125.8,-82.98"/>
<polygon fill="black" stroke="black" points="128.65,-80.89 120.73,-73.85 122.53,-84.29 128.65,-80.89"/>
</g>
<!-- TensorNetworks -->
<g id="node10" class="node">
<title>TensorNetworks</title>
<path fill="none" stroke="red" stroke-width="3" d="M646.37,-424.54C646.37,-424.54 410.37,-424.54 410.37,-424.54 404.37,-424.54 398.37,-418.54 398.37,-412.54 398.37,-412.54 398.37,-386.54 398.37,-386.54 398.37,-380.54 404.37,-374.54 410.37,-374.54 410.37,-374.54 646.37,-374.54 646.37,-374.54 652.37,-374.54 658.37,-380.54 658.37,-386.54 658.37,-386.54 658.37,-412.54 658.37,-412.54 658.37,-418.54 652.37,-424.54 646.37,-424.54"/>
<text text-anchor="start" x="481.37" y="-401.94" font-family="Arial" font-weight="bold" font-size="12.00">TensorNetworks</text>
<text text-anchor="start" x="412.37" y="-391.54" font-family="Arial" font-size="10.00">ITensor&#45;based tensor networks + simple tensor trains</text>
</g>
<!-- ParallelMPOContractions&#45;&gt;TensorNetworks -->
<g id="edge2" class="edge">
<title>ParallelMPOContractions&#45;&gt;TensorNetworks</title>
<path fill="none" stroke="black" d="M383.12,-393.98C384.84,-394.04 386.57,-394.11 388.31,-394.18"/>
<polygon fill="black" stroke="black" points="388.22,-397.67 398.35,-394.56 388.49,-390.68 388.22,-397.67"/>
</g>
<!-- TreeTCI -->
<g id="node2" class="node">
<title>TreeTCI</title>
<path fill="none" stroke="red" stroke-width="3" d="M809.53,-411.43C809.53,-411.43 719.53,-411.43 719.53,-411.43 713.53,-411.43 707.53,-405.43 707.53,-399.43 707.53,-399.43 707.53,-373.43 707.53,-373.43 707.53,-367.43 713.53,-361.43 719.53,-361.43 719.53,-361.43 809.53,-361.43 809.53,-361.43 815.53,-361.43 821.53,-367.43 821.53,-373.43 821.53,-373.43 821.53,-399.43 821.53,-399.43 821.53,-405.43 815.53,-411.43 809.53,-411.43"/>
<text text-anchor="start" x="742.03" y="-388.83" font-family="Arial" font-weight="bold" font-size="12.00">TreeTCI</text>
<text text-anchor="start" x="721.53" y="-378.43" font-family="Arial" font-size="10.00">TCI for tree tensors</text>
</g>
<!-- TreeTCI&#45;&gt;TensorNetworks -->
<g id="edge3" class="edge">
<title>TreeTCI&#45;&gt;TensorNetworks</title>
<path fill="none" stroke="black" d="M707.36,-389.6C695.5,-390.26 682.52,-390.98 669.13,-391.73"/>
<polygon fill="black" stroke="black" points="668.61,-388.25 658.82,-392.3 669,-395.24 668.61,-388.25"/>
</g>
<!-- TCICore -->
<g id="node15" class="node">
<title>TCICore</title>
<path fill="none" stroke="black" d="M699.83,-223.47C699.83,-223.47 498.83,-223.47 498.83,-223.47 492.83,-223.47 486.83,-217.47 486.83,-211.47 486.83,-211.47 486.83,-185.47 486.83,-185.47 486.83,-179.47 492.83,-173.47 498.83,-173.47 498.83,-173.47 699.83,-173.47 699.83,-173.47 705.83,-173.47 711.83,-179.47 711.83,-185.47 711.83,-185.47 711.83,-211.47 711.83,-211.47 711.83,-217.47 705.83,-223.47 699.83,-223.47"/>
<text text-anchor="start" x="575.33" y="-200.87" font-family="Arial" font-weight="bold" font-size="12.00">TCICore</text>
<text text-anchor="start" x="500.83" y="-190.47" font-family="Arial" font-size="10.00">TCI core algorithms (LU decomposition, etc.)</text>
</g>
<!-- TreeTCI&#45;&gt;TCICore -->
<g id="edge4" class="edge">
<title>TreeTCI&#45;&gt;TCICore</title>
<path fill="none" stroke="black" d="M742.25,-361.08C712.73,-327.49 660.61,-268.2 628.13,-231.25"/>
<polygon fill="black" stroke="black" points="630.75,-228.92 621.52,-223.72 625.49,-233.54 630.75,-228.92"/>
</g>
<!-- QuanticsTCI -->
<g id="node4" class="node">
<title>QuanticsTCI</title>
<path fill="none" stroke="red" stroke-width="3" d="M141,-331.65C141,-331.65 12,-331.65 12,-331.65 6,-331.65 0,-325.65 0,-319.65 0,-319.65 0,-293.65 0,-293.65 0,-287.65 6,-281.65 12,-281.65 12,-281.65 141,-281.65 141,-281.65 147,-281.65 153,-287.65 153,-293.65 153,-293.65 153,-319.65 153,-319.65 153,-325.65 147,-331.65 141,-331.65"/>
<text text-anchor="start" x="41" y="-309.05" font-family="Arial" font-weight="bold" font-size="12.00">QuanticsTCI</text>
<text text-anchor="start" x="14" y="-298.65" font-family="Arial" font-size="10.00">Sugar coating for TCI + QTT</text>
</g>
<!-- TensorCrossInterpolation -->
<g id="node7" class="node">
<title>TensorCrossInterpolation</title>
<path fill="none" stroke="red" stroke-width="3" d="M508.02,-282.87C508.02,-282.87 357.02,-282.87 357.02,-282.87 351.02,-282.87 345.02,-276.87 345.02,-270.87 345.02,-270.87 345.02,-244.87 345.02,-244.87 345.02,-238.87 351.02,-232.87 357.02,-232.87 357.02,-232.87 508.02,-232.87 508.02,-232.87 514.02,-232.87 520.02,-238.87 520.02,-244.87 520.02,-244.87 520.02,-270.87 520.02,-270.87 520.02,-276.87 514.02,-282.87 508.02,-282.87"/>
<text text-anchor="start" x="359.02" y="-260.27" font-family="Arial" font-weight="bold" font-size="12.00">TensorCrossInterpolation</text>
<text text-anchor="start" x="409.52" y="-249.87" font-family="Arial" font-size="10.00">TCI for TT</text>
</g>
<!-- QuanticsTCI&#45;&gt;TensorCrossInterpolation -->
<g id="edge5" class="edge">
<title>QuanticsTCI&#45;&gt;TensorCrossInterpolation</title>
<path fill="none" stroke="black" d="M153.31,-296.13C206.44,-288.85 277.57,-279.1 334.75,-271.27"/>
<polygon fill="black" stroke="black" points="335.45,-274.7 344.89,-269.88 334.5,-267.77 335.45,-274.7"/>
</g>
<!-- QuanticsGrids -->
<g id="node12" class="node">
<title>QuanticsGrids</title>
<path fill="none" stroke="black" d="M139.15,-591.65C139.15,-591.65 53.15,-591.65 53.15,-591.65 47.15,-591.65 41.15,-585.65 41.15,-579.65 41.15,-579.65 41.15,-553.65 41.15,-553.65 41.15,-547.65 47.15,-541.65 53.15,-541.65 53.15,-541.65 139.15,-541.65 139.15,-541.65 145.15,-541.65 151.15,-547.65 151.15,-553.65 151.15,-553.65 151.15,-579.65 151.15,-579.65 151.15,-585.65 145.15,-591.65 139.15,-591.65"/>
<text text-anchor="start" x="55.15" y="-569.05" font-family="Arial" font-weight="bold" font-size="12.00">QuanticsGrids</text>
<text text-anchor="start" x="64.15" y="-558.65" font-family="Arial" font-size="10.00">Quantics grids</text>
</g>
<!-- QuanticsTCI&#45;&gt;QuanticsGrids -->
<g id="edge6" class="edge">
<title>QuanticsTCI&#45;&gt;QuanticsGrids</title>
<path fill="none" stroke="black" d="M78.42,-332.06C81.95,-378.77 89.48,-478.4 93.49,-531.55"/>
<polygon fill="black" stroke="black" points="90,-531.82 94.25,-541.53 96.98,-531.29 90,-531.82"/>
</g>
<!-- ITensors -->
<g id="node5" class="node">
<title>ITensors</title>
<path fill="none" stroke="red" stroke-width="3" d="M640.19,-615.03C640.19,-615.03 501.19,-615.03 501.19,-615.03 495.19,-615.03 489.19,-609.03 489.19,-603.03 489.19,-603.03 489.19,-577.03 489.19,-577.03 489.19,-571.03 495.19,-565.03 501.19,-565.03 501.19,-565.03 640.19,-565.03 640.19,-565.03 646.19,-565.03 652.19,-571.03 652.19,-577.03 652.19,-577.03 652.19,-603.03 652.19,-603.03 652.19,-609.03 646.19,-615.03 640.19,-615.03"/>
<text text-anchor="start" x="545.69" y="-592.43" font-family="Arial" font-weight="bold" font-size="12.00">ITensors</text>
<text text-anchor="start" x="503.19" y="-582.03" font-family="Arial" font-size="10.00">Indexed tensor and contraction</text>
</g>
<!-- PatchedTCI -->
<g id="node6" class="node">
<title>PatchedTCI</title>
<path fill="none" stroke="red" stroke-width="3" d="M498.45,-51.7C498.45,-51.7 388.45,-51.7 388.45,-51.7 382.45,-51.7 376.45,-45.7 376.45,-39.7 376.45,-39.7 376.45,-13.7 376.45,-13.7 376.45,-7.7 382.45,-1.7 388.45,-1.7 388.45,-1.7 498.45,-1.7 498.45,-1.7 504.45,-1.7 510.45,-7.7 510.45,-13.7 510.45,-13.7 510.45,-39.7 510.45,-39.7 510.45,-45.7 504.45,-51.7 498.45,-51.7"/>
<text text-anchor="start" x="409.95" y="-29.1" font-family="Arial" font-weight="bold" font-size="12.00">PatchedTCI</text>
<text text-anchor="start" x="390.45" y="-18.7" font-family="Arial" font-size="10.00">Adaptive patching + TCI</text>
</g>
<!-- PatchedTCI&#45;&gt;TensorCrossInterpolation -->
<g id="edge7" class="edge">
<title>PatchedTCI&#45;&gt;TensorCrossInterpolation</title>
<path fill="none" stroke="black" d="M442.26,-51.88C440.3,-93.22 436.41,-175.58 434.19,-222.68"/>
<polygon fill="black" stroke="black" points="430.69,-222.57 433.71,-232.72 437.68,-222.9 430.69,-222.57"/>
</g>
<!-- TensorNetworkOperations -->
<g id="node8" class="node">
<title>TensorNetworkOperations</title>
<path fill="none" stroke="red" stroke-width="3" d="M840.03,-50C840.03,-50 685.03,-50 685.03,-50 679.03,-50 673.03,-44 673.03,-38 673.03,-38 673.03,-12 673.03,-12 673.03,-6 679.03,0 685.03,0 685.03,0 840.03,0 840.03,0 846.03,0 852.03,-6 852.03,-12 852.03,-12 852.03,-38 852.03,-38 852.03,-44 846.03,-50 840.03,-50"/>
<text text-anchor="start" x="687.03" y="-27.4" font-family="Arial" font-weight="bold" font-size="12.00">TensorNetworkOperations</text>
<text text-anchor="start" x="688.03" y="-17" font-family="Arial" font-size="10.00">Quantics.jl &#45; QuanticsTransofms.jl</text>
</g>
<!-- PatchedTCI&#45;&gt;TensorNetworkOperations -->
<g id="edge8" class="edge">
<title>PatchedTCI&#45;&gt;TensorNetworkOperations</title>
<path fill="none" stroke="black" d="M510.73,-26.34C554.86,-26.11 613.34,-25.8 662.84,-25.53"/>
<polygon fill="black" stroke="black" points="662.95,-29.03 672.93,-25.48 662.91,-22.03 662.95,-29.03"/>
</g>
<!-- TensorCrossInterpolation&#45;&gt;TensorNetworks -->
<g id="edge9" class="edge">
<title>TensorCrossInterpolation&#45;&gt;TensorNetworks</title>
<path fill="none" stroke="black" d="M449.44,-282.87C465.01,-305.9 488.25,-340.24 505.48,-365.71"/>
<polygon fill="black" stroke="black" points="502.8,-367.99 511.3,-374.32 508.59,-364.07 502.8,-367.99"/>
</g>
<!-- TensorCrossInterpolation&#45;&gt;TCICore -->
<g id="edge10" class="edge">
<title>TensorCrossInterpolation&#45;&gt;TCICore</title>
<path fill="none" stroke="black" d="M502.78,-232.85C508.18,-230.93 513.65,-228.98 519.1,-227.04"/>
<polygon fill="black" stroke="black" points="520.64,-230.21 528.88,-223.56 518.29,-223.61 520.64,-230.21"/>
</g>
<!-- TensorNetworkContractions -->
<g id="node11" class="node">
<title>TensorNetworkContractions</title>
<path fill="none" stroke="red" stroke-width="3" d="M922.13,-243.74C922.13,-243.74 756.13,-243.74 756.13,-243.74 750.13,-243.74 744.13,-237.74 744.13,-231.74 744.13,-231.74 744.13,-205.74 744.13,-205.74 744.13,-199.74 750.13,-193.74 756.13,-193.74 756.13,-193.74 922.13,-193.74 922.13,-193.74 928.13,-193.74 934.13,-199.74 934.13,-205.74 934.13,-205.74 934.13,-231.74 934.13,-231.74 934.13,-237.74 928.13,-243.74 922.13,-243.74"/>
<text text-anchor="start" x="758.13" y="-221.14" font-family="Arial" font-weight="bold" font-size="12.00">TensorNetworkContractions</text>
<text text-anchor="start" x="787.13" y="-210.74" font-family="Arial" font-size="10.00">Contractions algorithms</text>
</g>
<!-- TensorNetworkOperations&#45;&gt;TensorNetworkContractions -->
<g id="edge11" class="edge">
<title>TensorNetworkOperations&#45;&gt;TensorNetworkContractions</title>
<path fill="none" stroke="black" d="M772.55,-50.33C786.06,-84.51 810.19,-145.53 825.39,-183.98"/>
<polygon fill="black" stroke="black" points="822.31,-185.7 829.24,-193.71 828.82,-183.12 822.31,-185.7"/>
</g>
<!-- ParallelTCI -->
<g id="node9" class="node">
<title>ParallelTCI</title>
<path fill="none" stroke="red" stroke-width="3" d="M321.55,-196.73C321.55,-196.73 247.55,-196.73 247.55,-196.73 241.55,-196.73 235.55,-190.73 235.55,-184.73 235.55,-184.73 235.55,-158.73 235.55,-158.73 235.55,-152.73 241.55,-146.73 247.55,-146.73 247.55,-146.73 321.55,-146.73 321.55,-146.73 327.55,-146.73 333.55,-152.73 333.55,-158.73 333.55,-158.73 333.55,-184.73 333.55,-184.73 333.55,-190.73 327.55,-196.73 321.55,-196.73"/>
<text text-anchor="start" x="253.55" y="-174.13" font-family="Arial" font-weight="bold" font-size="12.00">ParallelTCI</text>
<text text-anchor="start" x="249.55" y="-163.73" font-family="Arial" font-size="10.00">Parallelized TCI</text>
</g>
<!-- ParallelTCI&#45;&gt;MPI -->
<g id="edge12" class="edge">
<title>ParallelTCI&#45;&gt;MPI</title>
<path fill="none" stroke="black" d="M248.13,-146.53C217.11,-125.06 172.8,-94.4 142.09,-73.14"/>
<polygon fill="black" stroke="black" points="144.02,-70.22 133.8,-67.41 140.04,-75.98 144.02,-70.22"/>
</g>
<!-- ParallelTCI&#45;&gt;TensorNetworks -->
<g id="edge13" class="edge">
<title>ParallelTCI&#45;&gt;TensorNetworks</title>
<path fill="none" stroke="black" d="M292.52,-196.88C301.4,-221.81 317.76,-259.94 341.82,-286.07 374.87,-321.95 421.83,-350.43 460.36,-369.89"/>
<polygon fill="black" stroke="black" points="458.94,-373.09 469.46,-374.39 462.05,-366.81 458.94,-373.09"/>
</g>
<!-- ParallelTCI&#45;&gt;TCICore -->
<g id="edge14" class="edge">
<title>ParallelTCI&#45;&gt;TCICore</title>
<path fill="none" stroke="black" d="M333.73,-175.91C371.91,-179.15 426.55,-183.79 476.35,-188.02"/>
<polygon fill="black" stroke="black" points="476.31,-191.53 486.57,-188.89 476.9,-184.56 476.31,-191.53"/>
</g>
<!-- TensorNetworks&#45;&gt;ITensors -->
<g id="edge15" class="edge">
<title>TensorNetworks&#45;&gt;ITensors</title>
<path fill="none" stroke="black" d="M533.99,-424.84C541.41,-458.23 554.51,-517.2 562.89,-554.9"/>
<polygon fill="black" stroke="black" points="559.53,-555.93 565.12,-564.93 566.36,-554.41 559.53,-555.93"/>
</g>
<!-- TensorNetworkContractions&#45;&gt;TensorNetworks -->
<g id="edge16" class="edge">
<title>TensorNetworkContractions&#45;&gt;TensorNetworks</title>
<path fill="none" stroke="black" d="M795.92,-243.88C739.53,-276.69 640.92,-334.06 580.46,-369.24"/>
<polygon fill="black" stroke="black" points="578.34,-366.42 571.46,-374.47 581.86,-372.47 578.34,-366.42"/>
</g>
<!-- QuanticsTransforms -->
<g id="node13" class="node">
<title>QuanticsTransforms</title>
<path fill="none" stroke="red" stroke-width="3" d="M412.93,-614.5C412.93,-614.5 291.93,-614.5 291.93,-614.5 285.93,-614.5 279.93,-608.5 279.93,-602.5 279.93,-602.5 279.93,-576.5 279.93,-576.5 279.93,-570.5 285.93,-564.5 291.93,-564.5 291.93,-564.5 412.93,-564.5 412.93,-564.5 418.93,-564.5 424.93,-570.5 424.93,-576.5 424.93,-576.5 424.93,-602.5 424.93,-602.5 424.93,-608.5 418.93,-614.5 412.93,-614.5"/>
<text text-anchor="start" x="293.93" y="-591.9" font-family="Arial" font-weight="bold" font-size="12.00">QuanticsTransforms</text>
<text text-anchor="start" x="307.93" y="-581.5" font-family="Arial" font-size="10.00">Quantics transforms</text>
</g>
<!-- QuanticsTransforms&#45;&gt;TensorNetworks -->
<g id="edge17" class="edge">
<title>QuanticsTransforms&#45;&gt;TensorNetworks</title>
<path fill="none" stroke="black" d="M375.79,-564.28C407.3,-530.26 463.43,-469.65 498.13,-432.19"/>
<polygon fill="black" stroke="black" points="500.96,-434.29 505.19,-424.57 495.82,-429.53 500.96,-434.29"/>
</g>
<!-- QuanticsTransforms&#45;&gt;QuanticsGrids -->
<g id="edge18" class="edge">
<title>QuanticsTransforms&#45;&gt;QuanticsGrids</title>
<path fill="none" stroke="black" d="M279.68,-583.02C242.64,-579.71 197.95,-575.73 161.95,-572.52"/>
<polygon fill="black" stroke="black" points="161.83,-568.99 151.55,-571.59 161.2,-575.96 161.83,-568.99"/>
</g>
<!-- ProjMPSs -->
<g id="node14" class="node">
<title>ProjMPSs</title>
<path fill="none" stroke="red" stroke-width="3" d="M890.5,-603.62C890.5,-603.62 738.5,-603.62 738.5,-603.62 732.5,-603.62 726.5,-597.62 726.5,-591.62 726.5,-591.62 726.5,-565.62 726.5,-565.62 726.5,-559.62 732.5,-553.62 738.5,-553.62 738.5,-553.62 890.5,-553.62 890.5,-553.62 896.5,-553.62 902.5,-559.62 902.5,-565.62 902.5,-565.62 902.5,-591.62 902.5,-591.62 902.5,-597.62 896.5,-603.62 890.5,-603.62"/>
<text text-anchor="start" x="786" y="-581.02" font-family="Arial" font-weight="bold" font-size="12.00">ProjMPSs</text>
<text text-anchor="start" x="740.5" y="-570.62" font-family="Arial" font-size="10.00">Adaptive patching + multiplication</text>
</g>
<!-- ProjMPSs&#45;&gt;TensorNetworks -->
<g id="edge19" class="edge">
<title>ProjMPSs&#45;&gt;TensorNetworks</title>
<path fill="none" stroke="black" d="M774.42,-553.53C722.73,-521.19 632.91,-464.97 577.27,-430.15"/>
<polygon fill="black" stroke="black" points="578.98,-427.09 568.64,-424.75 575.26,-433.02 578.98,-427.09"/>
</g>
</g>
</svg>
