<?xml version="1.0" encoding="UTF-8" standalone="no"?>
<!DOCTYPE svg PUBLIC "-//W3C//DTD SVG 1.1//EN"
 "http://www.w3.org/Graphics/SVG/1.1/DTD/svg11.dtd">
<!-- Generated by graphviz version 2.50.0 (20211204.2007)
 -->
<!-- Title: library_dependencies Pages: 1 -->
<svg width="605pt" height="274pt"
 viewBox="14.40 14.40 590.40 259.48" xmlns="http://www.w3.org/2000/svg" xmlns:xlink="http://www.w3.org/1999/xlink">
<g id="graph0" class="graph" transform="scale(0.3 0.3) rotate(0) translate(84.79 843.11)">
<title>library_dependencies</title>
<polygon fill="white" stroke="transparent" points="-36,36 -36,-794.33 1915.44,-794.33 1915.44,36 -36,36"/>
<!-- T4ATensorTrain -->
<g id="node1" class="node">
<title>T4ATensorTrain</title>
<path fill="none" stroke="black" d="M1556.39,-402.99C1556.39,-402.99 1178.39,-402.99 1178.39,-402.99 1172.39,-402.99 1166.39,-396.99 1166.39,-390.99 1166.39,-390.99 1166.39,-378.99 1166.39,-378.99 1166.39,-372.99 1172.39,-366.99 1178.39,-366.99 1178.39,-366.99 1556.39,-366.99 1556.39,-366.99 1562.39,-366.99 1568.39,-372.99 1568.39,-378.99 1568.39,-378.99 1568.39,-390.99 1568.39,-390.99 1568.39,-396.99 1562.39,-402.99 1556.39,-402.99"/>
<text text-anchor="start" x="1321.89" y="-387.39" font-family="Arial" font-weight="bold" font-size="12.00">T4ATensorTrain</text>
<text text-anchor="start" x="1170.39" y="-376.99" font-family="Arial" font-size="10.00">Core Tensor Train (TT) data structures and operations (ITensors integration via extensions)</text>
</g>
<!-- T4AMatrixCI -->
<g id="node2" class="node">
<title>T4AMatrixCI</title>
<path fill="none" stroke="black" d="M1867.44,-136.96C1867.44,-136.96 1618.44,-136.96 1618.44,-136.96 1612.44,-136.96 1606.44,-130.96 1606.44,-124.96 1606.44,-124.96 1606.44,-112.96 1606.44,-112.96 1606.44,-106.96 1612.44,-100.96 1618.44,-100.96 1618.44,-100.96 1867.44,-100.96 1867.44,-100.96 1873.44,-100.96 1879.44,-106.96 1879.44,-112.96 1879.44,-112.96 1879.44,-124.96 1879.44,-124.96 1879.44,-130.96 1873.44,-136.96 1867.44,-136.96"/>
<text text-anchor="start" x="1707.94" y="-121.36" font-family="Arial" font-weight="bold" font-size="12.00">T4AMatrixCI</text>
<text text-anchor="start" x="1610.44" y="-110.96" font-family="Arial" font-size="10.00">Matrix cross interpolation + LU&#45;based low&#45;rank factorizations</text>
</g>
<!-- T4ATensorTrain&#45;&gt;T4AMatrixCI -->
<g id="edge1" class="edge">
<title>T4ATensorTrain&#45;&gt;T4AMatrixCI</title>
<path fill="none" stroke="black" d="M1392.91,-366.91C1458.74,-320.28 1634.37,-195.86 1708.82,-143.13"/>
<polygon fill="black" stroke="black" points="1711.25,-145.7 1717.39,-137.06 1707.2,-139.98 1711.25,-145.7"/>
</g>
<!-- ITensors -->
<g id="node5" class="node">
<title>ITensors</title>
<path fill="none" stroke="red" stroke-width="3" d="M1126.02,-404.09C1126.02,-404.09 1006.02,-404.09 1006.02,-404.09 1000.02,-404.09 994.02,-398.09 994.02,-392.09 994.02,-392.09 994.02,-380.09 994.02,-380.09 994.02,-374.09 1000.02,-368.09 1006.02,-368.09 1006.02,-368.09 1126.02,-368.09 1126.02,-368.09 1132.02,-368.09 1138.02,-374.09 1138.02,-380.09 1138.02,-380.09 1138.02,-392.09 1138.02,-392.09 1138.02,-398.09 1132.02,-404.09 1126.02,-404.09"/>
<text text-anchor="start" x="1041.02" y="-388.49" font-family="Arial" font-weight="bold" font-size="12.00">ITensors</text>
<text text-anchor="start" x="998.02" y="-378.09" font-family="Arial" font-size="10.00">Indexing and contraction library</text>
</g>
<!-- T4ATensorTrain&#45;&gt;ITensors -->
<g id="edge2" class="edge">
<title>T4ATensorTrain&#45;&gt;ITensors</title>
<path fill="none" stroke="gray" stroke-dasharray="5,2" d="M1166.37,-385.72C1160.23,-385.74 1154.21,-385.76 1148.37,-385.79"/>
<polygon fill="gray" stroke="gray" points="1148.04,-382.29 1138.06,-385.82 1148.07,-389.29 1148.04,-382.29"/>
</g>
<!-- T4AITensorCompat -->
<g id="node6" class="node">
<title>T4AITensorCompat</title>
<path fill="none" stroke="red" stroke-width="3" d="M858.04,-268.72C858.04,-268.72 762.04,-268.72 762.04,-268.72 756.04,-268.72 750.04,-262.72 750.04,-256.72 750.04,-256.72 750.04,-240.72 750.04,-240.72 750.04,-234.72 756.04,-228.72 762.04,-228.72 762.04,-228.72 858.04,-228.72 858.04,-228.72 864.04,-228.72 870.04,-234.72 870.04,-240.72 870.04,-240.72 870.04,-256.72 870.04,-256.72 870.04,-262.72 864.04,-268.72 858.04,-268.72"/>
<text text-anchor="start" x="754.04" y="-256.12" font-family="Arial" font-weight="bold" font-size="12.00">T4AITensorCompat</text>
<text text-anchor="start" x="757.04" y="-245.72" font-family="Arial" font-size="10.00">ITensor&#45;like tensor train,</text>
<text text-anchor="start" x="755.04" y="-235.72" font-family="Arial" font-size="10.00"> automul from Quantics.jl</text>
</g>
<!-- T4ATensorTrain&#45;&gt;T4AITensorCompat -->
<g id="edge3" class="edge">
<title>T4ATensorTrain&#45;&gt;T4AITensorCompat</title>
<path fill="none" stroke="gray" stroke-dasharray="5,2" d="M1293.67,-366.96C1185.76,-340.58 986.17,-291.78 880.28,-265.89"/>
<polygon fill="gray" stroke="gray" points="880.87,-262.43 870.33,-263.46 879.21,-269.23 880.87,-262.43"/>
</g>
<!-- ITensorMPS -->
<g id="node12" class="node">
<title>ITensorMPS</title>
<path fill="none" stroke="red" stroke-width="3" d="M1018.26,-36C1018.26,-36 908.26,-36 908.26,-36 902.26,-36 896.26,-30 896.26,-24 896.26,-24 896.26,-12 896.26,-12 896.26,-6 902.26,0 908.26,0 908.26,0 1018.26,0 1018.26,0 1024.26,0 1030.26,-6 1030.26,-12 1030.26,-12 1030.26,-24 1030.26,-24 1030.26,-30 1024.26,-36 1018.26,-36"/>
<text text-anchor="start" x="928.26" y="-20.4" font-family="Arial" font-weight="bold" font-size="12.00">ITensorMPS</text>
<text text-anchor="start" x="900.26" y="-10" font-family="Arial" font-size="10.00">ITensors MPS/TT algorithms</text>
</g>
<!-- T4ATensorTrain&#45;&gt;ITensorMPS -->
<g id="edge4" class="edge">
<title>T4ATensorTrain&#45;&gt;ITensorMPS</title>
<path fill="none" stroke="gray" stroke-dasharray="5,2" d="M1347.35,-366.79C1280.96,-306.51 1068.11,-113.22 991.26,-43.43"/>
<polygon fill="gray" stroke="gray" points="993.17,-40.44 983.42,-36.31 988.47,-45.62 993.17,-40.44"/>
</g>
<!-- MPI -->
<g id="node3" class="node">
<title>MPI</title>
<path fill="none" stroke="black" d="M1291.71,-745.15C1291.71,-745.15 1261.71,-745.15 1261.71,-745.15 1255.71,-745.15 1249.71,-739.15 1249.71,-733.15 1249.71,-733.15 1249.71,-721.15 1249.71,-721.15 1249.71,-715.15 1255.71,-709.15 1261.71,-709.15 1261.71,-709.15 1291.71,-709.15 1291.71,-709.15 1297.71,-709.15 1303.71,-715.15 1303.71,-721.15 1303.71,-721.15 1303.71,-733.15 1303.71,-733.15 1303.71,-739.15 1297.71,-745.15 1291.71,-745.15"/>
<text text-anchor="start" x="1265.71" y="-729.55" font-family="Arial" font-weight="bold" font-size="12.00">MPI</text>
<text text-anchor="start" x="1267.21" y="-719.15" font-family="Arial" font-size="10.00">MPI</text>
</g>
<!-- T4AAdaptivePatchedTCI -->
<g id="node4" class="node">
<title>T4AAdaptivePatchedTCI</title>
<path fill="none" stroke="black" d="M552.68,-390.06C552.68,-390.06 426.68,-390.06 426.68,-390.06 420.68,-390.06 414.68,-384.06 414.68,-378.06 414.68,-378.06 414.68,-366.06 414.68,-366.06 414.68,-360.06 420.68,-354.06 426.68,-354.06 426.68,-354.06 552.68,-354.06 552.68,-354.06 558.68,-354.06 564.68,-360.06 564.68,-366.06 564.68,-366.06 564.68,-378.06 564.68,-378.06 564.68,-384.06 558.68,-390.06 552.68,-390.06"/>
<text text-anchor="start" x="418.68" y="-374.46" font-family="Arial" font-weight="bold" font-size="12.00">T4AAdaptivePatchedTCI</text>
<text text-anchor="start" x="436.68" y="-364.06" font-family="Arial" font-size="10.00">Adaptive patching + TCI</text>
</g>
<!-- T4AAdaptivePatchedTCI&#45;&gt;T4AITensorCompat -->
<g id="edge5" class="edge">
<title>T4AAdaptivePatchedTCI&#45;&gt;T4AITensorCompat</title>
<path fill="none" stroke="gray" stroke-dasharray="5,2" d="M536.61,-354C592.62,-332.43 686.44,-296.31 748.3,-272.49"/>
<polygon fill="gray" stroke="gray" points="749.86,-275.64 757.94,-268.78 747.35,-269.11 749.86,-275.64"/>
</g>
<!-- T4ATensorCI -->
<g id="node8" class="node">
<title>T4ATensorCI</title>
<path fill="none" stroke="black" d="M821.05,-510.53C821.05,-510.53 763.05,-510.53 763.05,-510.53 757.05,-510.53 751.05,-504.53 751.05,-498.53 751.05,-498.53 751.05,-486.53 751.05,-486.53 751.05,-480.53 757.05,-474.53 763.05,-474.53 763.05,-474.53 821.05,-474.53 821.05,-474.53 827.05,-474.53 833.05,-480.53 833.05,-486.53 833.05,-486.53 833.05,-498.53 833.05,-498.53 833.05,-504.53 827.05,-510.53 821.05,-510.53"/>
<text text-anchor="start" x="755.05" y="-494.93" font-family="Arial" font-weight="bold" font-size="12.00">T4ATensorCI</text>
<text text-anchor="start" x="769.05" y="-484.53" font-family="Arial" font-size="10.00">TCI for TT</text>
</g>
<!-- T4AAdaptivePatchedTCI&#45;&gt;T4ATensorCI -->
<g id="edge6" class="edge">
<title>T4AAdaptivePatchedTCI&#45;&gt;T4ATensorCI</title>
<path fill="none" stroke="black" d="M534.95,-390.1C590.24,-412.13 683.5,-449.29 741.21,-472.28"/>
<polygon fill="black" stroke="black" points="740.26,-475.67 750.85,-476.12 742.86,-469.17 740.26,-475.67"/>
</g>
<!-- QuanticsGrids -->
<g id="node9" class="node">
<title>QuanticsGrids</title>
<path fill="none" stroke="black" d="M147.5,-660.06C147.5,-660.06 81.5,-660.06 81.5,-660.06 75.5,-660.06 69.5,-654.06 69.5,-648.06 69.5,-648.06 69.5,-636.06 69.5,-636.06 69.5,-630.06 75.5,-624.06 81.5,-624.06 81.5,-624.06 147.5,-624.06 147.5,-624.06 153.5,-624.06 159.5,-630.06 159.5,-636.06 159.5,-636.06 159.5,-648.06 159.5,-648.06 159.5,-654.06 153.5,-660.06 147.5,-660.06"/>
<text text-anchor="start" x="73.5" y="-644.46" font-family="Arial" font-weight="bold" font-size="12.00">QuanticsGrids</text>
<text text-anchor="start" x="82.5" y="-634.06" font-family="Arial" font-size="10.00">Quantics grids</text>
</g>
<!-- T4AAdaptivePatchedTCI&#45;&gt;QuanticsGrids -->
<g id="edge7" class="edge">
<title>T4AAdaptivePatchedTCI&#45;&gt;QuanticsGrids</title>
<path fill="none" stroke="black" d="M464.48,-390.2C398.81,-437.46 222.34,-564.46 148.12,-617.87"/>
<polygon fill="black" stroke="black" points="145.66,-615.32 139.59,-624.01 149.75,-621.01 145.66,-615.32"/>
</g>
<!-- T4APartitionedTT -->
<g id="node13" class="node">
<title>T4APartitionedTT</title>
<path fill="none" stroke="red" stroke-width="3" d="M624.71,-37.49C624.71,-37.49 536.71,-37.49 536.71,-37.49 530.71,-37.49 524.71,-31.49 524.71,-25.49 524.71,-25.49 524.71,-13.49 524.71,-13.49 524.71,-7.49 530.71,-1.49 536.71,-1.49 536.71,-1.49 624.71,-1.49 624.71,-1.49 630.71,-1.49 636.71,-7.49 636.71,-13.49 636.71,-13.49 636.71,-25.49 636.71,-25.49 636.71,-31.49 630.71,-37.49 624.71,-37.49"/>
<text text-anchor="start" x="530.21" y="-21.89" font-family="Arial" font-weight="bold" font-size="12.00">T4APartitionedTT</text>
<text text-anchor="start" x="528.71" y="-11.49" font-family="Arial" font-size="10.00">Partitioned tensor trains</text>
</g>
<!-- T4AAdaptivePatchedTCI&#45;&gt;T4APartitionedTT -->
<g id="edge8" class="edge">
<title>T4AAdaptivePatchedTCI&#45;&gt;T4APartitionedTT</title>
<path fill="none" stroke="gray" stroke-dasharray="5,2" d="M494.45,-353.61C509.41,-295.65 555.51,-117.08 573.46,-47.58"/>
<polygon fill="gray" stroke="gray" points="576.88,-48.33 575.99,-37.77 570.1,-46.58 576.88,-48.33"/>
</g>
<!-- T4AITensorCompat&#45;&gt;ITensors -->
<g id="edge9" class="edge">
<title>T4AITensorCompat&#45;&gt;ITensors</title>
<path fill="none" stroke="black" d="M847.54,-268.84C894.24,-293.9 973.86,-336.63 1023,-363"/>
<polygon fill="black" stroke="black" points="1021.64,-366.24 1032.1,-367.89 1024.95,-360.07 1021.64,-366.24"/>
</g>
<!-- T4AQuanticsTCI -->
<g id="node7" class="node">
<title>T4AQuanticsTCI</title>
<path fill="none" stroke="black" d="M672.08,-752.84C672.08,-752.84 457.08,-752.84 457.08,-752.84 451.08,-752.84 445.08,-746.84 445.08,-740.84 445.08,-740.84 445.08,-728.84 445.08,-728.84 445.08,-722.84 451.08,-716.84 457.08,-716.84 457.08,-716.84 672.08,-716.84 672.08,-716.84 678.08,-716.84 684.08,-722.84 684.08,-728.84 684.08,-728.84 684.08,-740.84 684.08,-740.84 684.08,-746.84 678.08,-752.84 672.08,-752.84"/>
<text text-anchor="start" x="517.58" y="-737.24" font-family="Arial" font-weight="bold" font-size="12.00">T4AQuanticsTCI</text>
<text text-anchor="start" x="449.08" y="-726.84" font-family="Arial" font-size="10.00">Quanticscrossinterpolate, Quantics Transform MPOs</text>
</g>
<!-- T4AQuanticsTCI&#45;&gt;T4ATensorCI -->
<g id="edge10" class="edge">
<title>T4AQuanticsTCI&#45;&gt;T4ATensorCI</title>
<path fill="none" stroke="black" d="M581.68,-716.63C621.79,-673.9 722.03,-567.12 768.15,-518"/>
<polygon fill="black" stroke="black" points="770.77,-520.31 775.06,-510.63 765.67,-515.52 770.77,-520.31"/>
</g>
<!-- T4AQuanticsTCI&#45;&gt;QuanticsGrids -->
<g id="edge11" class="edge">
<title>T4AQuanticsTCI&#45;&gt;QuanticsGrids</title>
<path fill="none" stroke="black" d="M477,-716.79C385.96,-698.02 246.26,-669.22 169.59,-653.42"/>
<polygon fill="black" stroke="black" points="170.15,-649.96 159.65,-651.37 168.74,-656.82 170.15,-649.96"/>
</g>
<!-- T4ATensorCI&#45;&gt;T4ATensorTrain -->
<g id="edge12" class="edge">
<title>T4ATensorCI&#45;&gt;T4ATensorTrain</title>
<path fill="none" stroke="black" d="M833.43,-484.8C922.01,-468.24 1132.38,-428.92 1261.05,-404.87"/>
<polygon fill="black" stroke="black" points="1261.75,-408.3 1270.93,-403.02 1260.46,-401.42 1261.75,-408.3"/>
</g>
<!-- T4ATensorCI&#45;&gt;ITensors -->
<g id="edge13" class="edge">
<title>T4ATensorCI&#45;&gt;ITensors</title>
<path fill="none" stroke="gray" stroke-dasharray="5,2" d="M833.07,-476.6C880.14,-458.31 957.61,-428.21 1010.16,-407.79"/>
<polygon fill="gray" stroke="gray" points="1011.62,-410.98 1019.67,-404.09 1009.09,-404.45 1011.62,-410.98"/>
</g>
<!-- T4ATensorCI&#45;&gt;T4AITensorCompat -->
<g id="edge14" class="edge">
<title>T4ATensorCI&#45;&gt;T4AITensorCompat</title>
<path fill="none" stroke="gray" stroke-dasharray="5,2" d="M793.4,-474.21C796.48,-432.54 804.02,-330.35 807.8,-279.08"/>
<polygon fill="gray" stroke="gray" points="811.31,-279.19 808.55,-268.96 804.32,-278.67 811.31,-279.19"/>
</g>
<!-- T4ATensorCI&#45;&gt;ITensorMPS -->
<g id="edge15" class="edge">
<title>T4ATensorCI&#45;&gt;ITensorMPS</title>
<path fill="none" stroke="gray" stroke-dasharray="5,2" d="M798.86,-474.26C812.91,-436.51 846.07,-347.15 873.24,-271.92 902.87,-189.92 937.07,-92.71 953.48,-45.92"/>
<polygon fill="gray" stroke="gray" points="956.89,-46.79 956.89,-36.19 950.28,-44.47 956.89,-46.79"/>
</g>
<!-- T4AQuantics -->
<g id="node10" class="node">
<title>T4AQuantics</title>
<path fill="none" stroke="red" stroke-width="3" d="M224,-133.78C224,-133.78 12,-133.78 12,-133.78 6,-133.78 0,-127.78 0,-121.78 0,-121.78 0,-105.78 0,-105.78 0,-99.78 6,-93.78 12,-93.78 12,-93.78 224,-93.78 224,-93.78 230,-93.78 236,-99.78 236,-105.78 236,-105.78 236,-121.78 236,-121.78 236,-127.78 230,-133.78 224,-133.78"/>
<text text-anchor="start" x="80.5" y="-121.18" font-family="Arial" font-weight="bold" font-size="12.00">T4AQuantics</text>
<text text-anchor="start" x="62" y="-110.78" font-family="Arial" font-size="10.00">Useful experimental code</text>
<text text-anchor="start" x="4" y="-100.78" font-family="Arial" font-size="10.00"> for quantics tensor networks + Quantics transforms</text>
</g>
<!-- T4AQuantics&#45;&gt;T4AQuanticsTCI -->
<g id="edge16" class="edge">
<title>T4AQuantics&#45;&gt;T4AQuanticsTCI</title>
<path fill="none" stroke="black" d="M132.6,-134.09C198.85,-226.21 471.04,-604.76 545.61,-708.46"/>
<polygon fill="black" stroke="black" points="542.94,-710.74 551.62,-716.82 548.62,-706.65 542.94,-710.74"/>
</g>
<!-- T4AQuantics&#45;&gt;T4APartitionedTT -->
<g id="edge17" class="edge">
<title>T4AQuantics&#45;&gt;T4APartitionedTT</title>
<path fill="none" stroke="black" d="M216.41,-93.73C306.18,-75.43 436.37,-48.9 514.37,-33.01"/>
<polygon fill="black" stroke="black" points="515.45,-36.36 524.55,-30.94 514.06,-29.5 515.45,-36.36"/>
</g>
<!-- T4AMPOContractions -->
<g id="node11" class="node">
<title>T4AMPOContractions</title>
<path fill="none" stroke="black" d="M1356.83,-55.73C1356.83,-55.73 1237.83,-55.73 1237.83,-55.73 1231.83,-55.73 1225.83,-49.73 1225.83,-43.73 1225.83,-43.73 1225.83,-31.73 1225.83,-31.73 1225.83,-25.73 1231.83,-19.73 1237.83,-19.73 1237.83,-19.73 1356.83,-19.73 1356.83,-19.73 1362.83,-19.73 1368.83,-25.73 1368.83,-31.73 1368.83,-31.73 1368.83,-43.73 1368.83,-43.73 1368.83,-49.73 1362.83,-55.73 1356.83,-55.73"/>
<text text-anchor="start" x="1234.83" y="-40.13" font-family="Arial" font-weight="bold" font-size="12.00">T4AMPOContractions</text>
<text text-anchor="start" x="1229.83" y="-29.73" font-family="Arial" font-size="10.00">MPO contractions (by Simone)</text>
</g>
<!-- T4AMPOContractions&#45;&gt;T4ATensorTrain -->
<g id="edge18" class="edge">
<title>T4AMPOContractions&#45;&gt;T4ATensorTrain</title>
<path fill="none" stroke="black" d="M1301,-55.91C1312.49,-112.87 1347.85,-288.15 1361.72,-356.9"/>
<polygon fill="black" stroke="black" points="1358.35,-357.88 1363.76,-366.99 1365.21,-356.49 1358.35,-357.88"/>
</g>
<!-- T4APartitionedTT&#45;&gt;T4AITensorCompat -->
<g id="edge19" class="edge">
<title>T4APartitionedTT&#45;&gt;T4AITensorCompat</title>
<path fill="none" stroke="black" d="M599.09,-37.86C639.34,-78.1 735.48,-174.19 782.79,-221.48"/>
<polygon fill="black" stroke="black" points="780.4,-224.04 789.95,-228.63 785.35,-219.09 780.4,-224.04"/>
</g>
<!-- T4AParallelMPOContractions -->
<g id="node14" class="node">
<title>T4AParallelMPOContractions</title>
<path fill="none" stroke="black" d="M1822.89,-665.66C1822.89,-665.66 1650.89,-665.66 1650.89,-665.66 1644.89,-665.66 1638.89,-659.66 1638.89,-653.66 1638.89,-653.66 1638.89,-641.66 1638.89,-641.66 1638.89,-635.66 1644.89,-629.66 1650.89,-629.66 1650.89,-629.66 1822.89,-629.66 1822.89,-629.66 1828.89,-629.66 1834.89,-635.66 1834.89,-641.66 1834.89,-641.66 1834.89,-653.66 1834.89,-653.66 1834.89,-659.66 1828.89,-665.66 1822.89,-665.66"/>
<text text-anchor="start" x="1653.39" y="-650.06" font-family="Arial" font-weight="bold" font-size="12.00">T4AParallelMPOContractions</text>
<text text-anchor="start" x="1642.89" y="-639.66" font-family="Arial" font-size="10.00">Parallelized MPO contractions (by Simone)</text>
</g>
<!-- T4AParallelMPOContractions&#45;&gt;T4ATensorTrain -->
<g id="edge20" class="edge">
<title>T4AParallelMPOContractions&#45;&gt;T4ATensorTrain</title>
<path fill="none" stroke="black" d="M1711.49,-629.6C1646.62,-583.49 1474.81,-461.35 1401.41,-409.18"/>
<polygon fill="black" stroke="black" points="1403.14,-406.11 1392.96,-403.17 1399.09,-411.82 1403.14,-406.11"/>
</g>
<!-- T4AParallelMPOContractions&#45;&gt;MPI -->
<g id="edge21" class="edge">
<title>T4AParallelMPOContractions&#45;&gt;MPI</title>
<path fill="none" stroke="black" d="M1638.73,-664.61C1537.3,-682.13 1384.2,-708.58 1314.12,-720.69"/>
<polygon fill="black" stroke="black" points="1313.26,-717.28 1304.01,-722.43 1314.46,-724.18 1313.26,-717.28"/>
</g>
<!-- T4AParallelTensorCI -->
<g id="node15" class="node">
<title>T4AParallelTensorCI</title>
<path fill="none" stroke="black" d="M989.59,-758.33C989.59,-758.33 880.59,-758.33 880.59,-758.33 874.59,-758.33 868.59,-752.33 868.59,-746.33 868.59,-746.33 868.59,-734.33 868.59,-734.33 868.59,-728.33 874.59,-722.33 880.59,-722.33 880.59,-722.33 989.59,-722.33 989.59,-722.33 995.59,-722.33 1001.59,-728.33 1001.59,-734.33 1001.59,-734.33 1001.59,-746.33 1001.59,-746.33 1001.59,-752.33 995.59,-758.33 989.59,-758.33"/>
<text text-anchor="start" x="876.09" y="-742.73" font-family="Arial" font-weight="bold" font-size="12.00">T4AParallelTensorCI</text>
<text text-anchor="start" x="872.59" y="-732.33" font-family="Arial" font-size="10.00">Parallelized TCI (by Simone)</text>
</g>
<!-- T4AParallelTensorCI&#45;&gt;MPI -->
<g id="edge22" class="edge">
<title>T4AParallelTensorCI&#45;&gt;MPI</title>
<path fill="none" stroke="black" d="M1001.77,-737.75C1072.7,-735.02 1182.36,-730.79 1239.39,-728.59"/>
<polygon fill="black" stroke="black" points="1239.54,-732.08 1249.4,-728.2 1239.27,-725.09 1239.54,-732.08"/>
</g>
<!-- T4AParallelTensorCI&#45;&gt;T4ATensorCI -->
<g id="edge23" class="edge">
<title>T4AParallelTensorCI&#45;&gt;T4ATensorCI</title>
<path fill="none" stroke="black" d="M924.57,-722.11C899.67,-678.97 837,-570.4 807.66,-519.57"/>
<polygon fill="black" stroke="black" points="810.61,-517.69 802.58,-510.78 804.55,-521.19 810.61,-517.69"/>
</g>
</g>
</svg>
