<?xml version="1.0" encoding="UTF-8" standalone="no"?>
<!DOCTYPE svg PUBLIC "-//W3C//DTD SVG 1.1//EN"
 "http://www.w3.org/Graphics/SVG/1.1/DTD/svg11.dtd">
<!-- Generated by graphviz version 2.50.0 (20211204.2007)
 -->
<!-- Title: library_dependencies Pages: 1 -->
<svg width="576pt" height="542pt"
 viewBox="0.00 0.00 576.00 542.00" xmlns="http://www.w3.org/2000/svg" xmlns:xlink="http://www.w3.org/1999/xlink">
<g id="graph0" class="graph" transform="scale(0.86 0.86) rotate(0) translate(4 628.6)">
<title>library_dependencies</title>
<polygon fill="white" stroke="transparent" points="-4,4 -4,-628.6 668.29,-628.6 668.29,4 -4,4"/>
<!-- MPI -->
<g id="node1" class="node">
<title>MPI</title>
<path fill="none" stroke="black" d="M132.3,-66.23C132.3,-66.23 102.3,-66.23 102.3,-66.23 96.3,-66.23 90.3,-60.23 90.3,-54.23 90.3,-54.23 90.3,-28.23 90.3,-28.23 90.3,-22.23 96.3,-16.23 102.3,-16.23 102.3,-16.23 132.3,-16.23 132.3,-16.23 138.3,-16.23 144.3,-22.23 144.3,-28.23 144.3,-28.23 144.3,-54.23 144.3,-54.23 144.3,-60.23 138.3,-66.23 132.3,-66.23"/>
<text text-anchor="start" x="106.3" y="-43.63" font-family="Arial" font-weight="bold" font-size="12.00">MPI</text>
<text text-anchor="start" x="107.8" y="-33.23" font-family="Arial" font-size="10.00">MPI</text>
</g>
<!-- QuanticsTCI -->
<g id="node2" class="node">
<title>QuanticsTCI</title>
<path fill="none" stroke="black" d="M652.29,-82.97C652.29,-82.97 523.29,-82.97 523.29,-82.97 517.29,-82.97 511.29,-76.97 511.29,-70.97 511.29,-70.97 511.29,-44.97 511.29,-44.97 511.29,-38.97 517.29,-32.97 523.29,-32.97 523.29,-32.97 652.29,-32.97 652.29,-32.97 658.29,-32.97 664.29,-38.97 664.29,-44.97 664.29,-44.97 664.29,-70.97 664.29,-70.97 664.29,-76.97 658.29,-82.97 652.29,-82.97"/>
<text text-anchor="start" x="552.29" y="-60.37" font-family="Arial" font-weight="bold" font-size="12.00">QuanticsTCI</text>
<text text-anchor="start" x="525.29" y="-49.97" font-family="Arial" font-size="10.00">Sugar coating for TCI + QTT</text>
</g>
<!-- TensorCrossInterpolation -->
<g id="node7" class="node">
<title>TensorCrossInterpolation</title>
<path fill="none" stroke="black" d="M503.02,-244.76C503.02,-244.76 352.02,-244.76 352.02,-244.76 346.02,-244.76 340.02,-238.76 340.02,-232.76 340.02,-232.76 340.02,-206.76 340.02,-206.76 340.02,-200.76 346.02,-194.76 352.02,-194.76 352.02,-194.76 503.02,-194.76 503.02,-194.76 509.02,-194.76 515.02,-200.76 515.02,-206.76 515.02,-206.76 515.02,-232.76 515.02,-232.76 515.02,-238.76 509.02,-244.76 503.02,-244.76"/>
<text text-anchor="start" x="354.02" y="-222.16" font-family="Arial" font-weight="bold" font-size="12.00">TensorCrossInterpolation</text>
<text text-anchor="start" x="404.52" y="-211.76" font-family="Arial" font-size="10.00">TCI for TT</text>
</g>
<!-- QuanticsTCI&#45;&gt;TensorCrossInterpolation -->
<g id="edge1" class="edge">
<title>QuanticsTCI&#45;&gt;TensorCrossInterpolation</title>
<path fill="none" stroke="black" d="M562.75,-83.25C534.99,-111.27 490.14,-156.54 459.78,-187.2"/>
<polygon fill="black" stroke="black" points="456.94,-185.09 452.39,-194.65 461.91,-190.01 456.94,-185.09"/>
</g>
<!-- QuanticsGrids -->
<g id="node9" class="node">
<title>QuanticsGrids</title>
<path fill="none" stroke="black" d="M609.73,-595.2C609.73,-595.2 523.73,-595.2 523.73,-595.2 517.73,-595.2 511.73,-589.2 511.73,-583.2 511.73,-583.2 511.73,-557.2 511.73,-557.2 511.73,-551.2 517.73,-545.2 523.73,-545.2 523.73,-545.2 609.73,-545.2 609.73,-545.2 615.73,-545.2 621.73,-551.2 621.73,-557.2 621.73,-557.2 621.73,-583.2 621.73,-583.2 621.73,-589.2 615.73,-595.2 609.73,-595.2"/>
<text text-anchor="start" x="525.73" y="-572.6" font-family="Arial" font-weight="bold" font-size="12.00">QuanticsGrids</text>
<text text-anchor="start" x="534.73" y="-562.2" font-family="Arial" font-size="10.00">Quantics grids</text>
</g>
<!-- QuanticsTCI&#45;&gt;QuanticsGrids -->
<g id="edge2" class="edge">
<title>QuanticsTCI&#45;&gt;QuanticsGrids</title>
<path fill="none" stroke="black" d="M576.21,-82.98C553.86,-134.13 507.91,-254.62 519.41,-358.65 526.39,-421.89 544.79,-493.86 556.48,-535.45"/>
<polygon fill="black" stroke="black" points="553.12,-536.44 559.23,-545.1 559.86,-534.52 553.12,-536.44"/>
</g>
<!-- AdaptivePatching -->
<g id="node3" class="node">
<title>AdaptivePatching</title>
<path fill="none" stroke="red" stroke-width="3" d="M191,-568.63C191,-568.63 12,-568.63 12,-568.63 6,-568.63 0,-562.63 0,-556.63 0,-556.63 0,-530.63 0,-530.63 0,-524.63 6,-518.63 12,-518.63 12,-518.63 191,-518.63 191,-518.63 197,-518.63 203,-524.63 203,-530.63 203,-530.63 203,-556.63 203,-556.63 203,-562.63 197,-568.63 191,-568.63"/>
<text text-anchor="start" x="50" y="-546.03" font-family="Arial" font-weight="bold" font-size="12.00">AdaptivePatching</text>
<text text-anchor="start" x="14" y="-535.63" font-family="Arial" font-size="10.00">Adaptive patching + multiplication + TCI</text>
</g>
<!-- SimpleTensorNetworks -->
<g id="node4" class="node">
<title>SimpleTensorNetworks</title>
<path fill="none" stroke="red" stroke-width="3" d="M451.69,-443.48C451.69,-443.48 258.69,-443.48 258.69,-443.48 252.69,-443.48 246.69,-437.48 246.69,-431.48 246.69,-431.48 246.69,-405.48 246.69,-405.48 246.69,-399.48 252.69,-393.48 258.69,-393.48 258.69,-393.48 451.69,-393.48 451.69,-393.48 457.69,-393.48 463.69,-399.48 463.69,-405.48 463.69,-405.48 463.69,-431.48 463.69,-431.48 463.69,-437.48 457.69,-443.48 451.69,-443.48"/>
<text text-anchor="start" x="288.69" y="-420.88" font-family="Arial" font-weight="bold" font-size="12.00">SimpleTensorNetworks</text>
<text text-anchor="start" x="260.69" y="-410.48" font-family="Arial" font-size="10.00">ITensor&#45;like tensor train and tensor network</text>
</g>
<!-- AdaptivePatching&#45;&gt;SimpleTensorNetworks -->
<g id="edge3" class="edge">
<title>AdaptivePatching&#45;&gt;SimpleTensorNetworks</title>
<path fill="none" stroke="black" d="M152.23,-518.6C193.4,-498.29 251.56,-469.6 295.07,-448.14"/>
<polygon fill="black" stroke="black" points="296.7,-451.23 304.12,-443.67 293.6,-444.96 296.7,-451.23"/>
</g>
<!-- AdaptivePatching&#45;&gt;TensorCrossInterpolation -->
<g id="edge4" class="edge">
<title>AdaptivePatching&#45;&gt;TensorCrossInterpolation</title>
<path fill="none" stroke="black" d="M123.8,-518.38C151.29,-487.52 199.76,-434.03 243.49,-390.28 293.37,-340.38 353.81,-285.36 391.47,-251.67"/>
<polygon fill="black" stroke="black" points="394.02,-254.09 399.15,-244.82 389.36,-248.87 394.02,-254.09"/>
</g>
<!-- ITensors -->
<g id="node5" class="node">
<title>ITensors</title>
<path fill="none" stroke="red" stroke-width="3" d="M385.58,-624.6C385.58,-624.6 245.58,-624.6 245.58,-624.6 239.58,-624.6 233.58,-618.6 233.58,-612.6 233.58,-612.6 233.58,-586.6 233.58,-586.6 233.58,-580.6 239.58,-574.6 245.58,-574.6 245.58,-574.6 385.58,-574.6 385.58,-574.6 391.58,-574.6 397.58,-580.6 397.58,-586.6 397.58,-586.6 397.58,-612.6 397.58,-612.6 397.58,-618.6 391.58,-624.6 385.58,-624.6"/>
<text text-anchor="start" x="290.58" y="-602" font-family="Arial" font-weight="bold" font-size="12.00">ITensors</text>
<text text-anchor="start" x="247.58" y="-591.6" font-family="Arial" font-size="10.00">Indexing and contraction library</text>
</g>
<!-- SimpleTensorNetworks&#45;&gt;ITensors -->
<g id="edge5" class="edge">
<title>SimpleTensorNetworks&#45;&gt;ITensors</title>
<path fill="none" stroke="black" d="M349.69,-443.66C342.82,-475.07 331.04,-528.94 323.28,-564.41"/>
<polygon fill="black" stroke="black" points="319.82,-563.83 321.11,-574.34 326.66,-565.32 319.82,-563.83"/>
</g>
<!-- QuanticsTransform -->
<g id="node6" class="node">
<title>QuanticsTransform</title>
<path fill="none" stroke="black" d="M648.61,-355.45C648.61,-355.45 534.61,-355.45 534.61,-355.45 528.61,-355.45 522.61,-349.45 522.61,-343.45 522.61,-343.45 522.61,-317.45 522.61,-317.45 522.61,-311.45 528.61,-305.45 534.61,-305.45 534.61,-305.45 648.61,-305.45 648.61,-305.45 654.61,-305.45 660.61,-311.45 660.61,-317.45 660.61,-317.45 660.61,-343.45 660.61,-343.45 660.61,-349.45 654.61,-355.45 648.61,-355.45"/>
<text text-anchor="start" x="536.61" y="-332.85" font-family="Arial" font-weight="bold" font-size="12.00">QuanticsTransform</text>
<text text-anchor="start" x="547.11" y="-322.45" font-family="Arial" font-size="10.00">Quantics transforms</text>
</g>
<!-- QuanticsTransform&#45;&gt;SimpleTensorNetworks -->
<g id="edge6" class="edge">
<title>QuanticsTransform&#45;&gt;SimpleTensorNetworks</title>
<path fill="none" stroke="gray" stroke-dasharray="5,2" d="M524.18,-355.56C495.48,-366.24 461.86,-378.76 432.19,-389.81"/>
<polygon fill="gray" stroke="gray" points="430.86,-386.57 422.71,-393.34 433.31,-393.13 430.86,-386.57"/>
</g>
<!-- QuanticsTransform&#45;&gt;QuanticsGrids -->
<g id="edge7" class="edge">
<title>QuanticsTransform&#45;&gt;QuanticsGrids</title>
<path fill="none" stroke="black" d="M588.99,-355.65C584.54,-398.55 575.48,-485.86 570.4,-534.84"/>
<polygon fill="black" stroke="black" points="566.9,-534.66 569.35,-544.97 573.86,-535.38 566.9,-534.66"/>
</g>
<!-- TensorTrain -->
<g id="node10" class="node">
<title>TensorTrain</title>
<path fill="none" stroke="black" d="M313.38,-277.94C313.38,-277.94 182.38,-277.94 182.38,-277.94 176.38,-277.94 170.38,-271.94 170.38,-265.94 170.38,-265.94 170.38,-239.94 170.38,-239.94 170.38,-233.94 176.38,-227.94 182.38,-227.94 182.38,-227.94 313.38,-227.94 313.38,-227.94 319.38,-227.94 325.38,-233.94 325.38,-239.94 325.38,-239.94 325.38,-265.94 325.38,-265.94 325.38,-271.94 319.38,-277.94 313.38,-277.94"/>
<text text-anchor="start" x="213.38" y="-255.34" font-family="Arial" font-weight="bold" font-size="12.00">TensorTrain</text>
<text text-anchor="start" x="184.38" y="-244.94" font-family="Arial" font-size="10.00">Tensor train and contractions</text>
</g>
<!-- QuanticsTransform&#45;&gt;TensorTrain -->
<g id="edge8" class="edge">
<title>QuanticsTransform&#45;&gt;TensorTrain</title>
<path fill="none" stroke="black" d="M522.46,-314.86C468.62,-302.72 393.55,-285.79 335.5,-272.7"/>
<polygon fill="black" stroke="black" points="336.13,-269.25 325.61,-270.47 334.59,-276.08 336.13,-269.25"/>
</g>
<!-- TensorCrossInterpolation&#45;&gt;TensorTrain -->
<g id="edge9" class="edge">
<title>TensorCrossInterpolation&#45;&gt;TensorTrain</title>
<path fill="none" stroke="black" d="M339.8,-235.96C338.3,-236.24 336.8,-236.52 335.29,-236.79"/>
<polygon fill="black" stroke="black" points="334.6,-233.36 325.4,-238.62 335.87,-240.24 334.6,-233.36"/>
</g>
<!-- ParallelTCI -->
<g id="node8" class="node">
<title>ParallelTCI</title>
<path fill="none" stroke="black" d="M390.29,-50C390.29,-50 324.29,-50 324.29,-50 318.29,-50 312.29,-44 312.29,-38 312.29,-38 312.29,-12 312.29,-12 312.29,-6 318.29,0 324.29,0 324.29,0 390.29,0 390.29,0 396.29,0 402.29,-6 402.29,-12 402.29,-12 402.29,-38 402.29,-38 402.29,-44 396.29,-50 390.29,-50"/>
<text text-anchor="start" x="326.29" y="-27.4" font-family="Arial" font-weight="bold" font-size="12.00">ParallelTCI</text>
<text text-anchor="start" x="331.29" y="-17" font-family="Arial" font-size="10.00">Parallel TCI</text>
</g>
<!-- ParallelTCI&#45;&gt;MPI -->
<g id="edge10" class="edge">
<title>ParallelTCI&#45;&gt;MPI</title>
<path fill="none" stroke="black" d="M312.15,-28.05C266.58,-31.13 197.05,-35.84 154.53,-38.71"/>
<polygon fill="black" stroke="black" points="154.08,-35.23 144.34,-39.4 154.55,-42.22 154.08,-35.23"/>
</g>
<!-- ParallelTCI&#45;&gt;TensorCrossInterpolation -->
<g id="edge11" class="edge">
<title>ParallelTCI&#45;&gt;TensorCrossInterpolation</title>
<path fill="none" stroke="black" d="M366.33,-50.06C378.67,-84.3 400.87,-145.85 414.86,-184.66"/>
<polygon fill="black" stroke="black" points="411.72,-186.26 418.41,-194.48 418.31,-183.89 411.72,-186.26"/>
</g>
<!-- ParallelTensorTrain -->
<g id="node11" class="node">
<title>ParallelTensorTrain</title>
<path fill="none" stroke="black" d="M141.15,-312.21C141.15,-312.21 22.15,-312.21 22.15,-312.21 16.15,-312.21 10.15,-306.21 10.15,-300.21 10.15,-300.21 10.15,-274.21 10.15,-274.21 10.15,-268.21 16.15,-262.21 22.15,-262.21 22.15,-262.21 141.15,-262.21 141.15,-262.21 147.15,-262.21 153.15,-268.21 153.15,-274.21 153.15,-274.21 153.15,-300.21 153.15,-300.21 153.15,-306.21 147.15,-312.21 141.15,-312.21"/>
<text text-anchor="start" x="26.15" y="-289.61" font-family="Arial" font-weight="bold" font-size="12.00">ParallelTensorTrain</text>
<text text-anchor="start" x="24.15" y="-279.21" font-family="Arial" font-size="10.00">Parallel MPO contractions</text>
</g>
<!-- ParallelTensorTrain&#45;&gt;MPI -->
<g id="edge12" class="edge">
<title>ParallelTensorTrain&#45;&gt;MPI</title>
<path fill="none" stroke="black" d="M85.33,-261.81C91.72,-217.69 104.89,-126.81 112.18,-76.56"/>
<polygon fill="black" stroke="black" points="115.66,-76.89 113.64,-66.49 108.74,-75.88 115.66,-76.89"/>
</g>
<!-- ParallelTensorTrain&#45;&gt;TensorTrain -->
<g id="edge13" class="edge">
<title>ParallelTensorTrain&#45;&gt;TensorTrain</title>
<path fill="none" stroke="black" d="M153.59,-272.38C155.84,-271.91 158.1,-271.45 160.36,-270.98"/>
<polygon fill="black" stroke="black" points="161.19,-274.38 170.28,-268.94 159.78,-267.53 161.19,-274.38"/>
</g>
</g>
</svg>
