<?xml version="1.0" encoding="UTF-8" standalone="no"?>
<!DOCTYPE svg PUBLIC "-//W3C//DTD SVG 1.1//EN"
 "http://www.w3.org/Graphics/SVG/1.1/DTD/svg11.dtd">
<!-- Generated by graphviz version 2.50.0 (20211204.2007)
 -->
<!-- Title: library_dependencies Pages: 1 -->
<svg width="432pt" height="279pt"
 viewBox="0.00 0.00 432.00 279.22" xmlns="http://www.w3.org/2000/svg" xmlns:xlink="http://www.w3.org/1999/xlink">
<g id="graph0" class="graph" transform="scale(0.59 0.59) rotate(0) translate(4 470.76)">
<title>library_dependencies</title>
<polygon fill="white" stroke="transparent" points="-4,4 -4,-470.76 730.53,-470.76 730.53,4 -4,4"/>
<!-- QuanticsTCI -->
<g id="node1" class="node">
<title>QuanticsTCI</title>
<path fill="none" stroke="black" d="M284.36,-460.11C284.36,-460.11 155.36,-460.11 155.36,-460.11 149.36,-460.11 143.36,-454.11 143.36,-448.11 143.36,-448.11 143.36,-422.11 143.36,-422.11 143.36,-416.11 149.36,-410.11 155.36,-410.11 155.36,-410.11 284.36,-410.11 284.36,-410.11 290.36,-410.11 296.36,-416.11 296.36,-422.11 296.36,-422.11 296.36,-448.11 296.36,-448.11 296.36,-454.11 290.36,-460.11 284.36,-460.11"/>
<text text-anchor="start" x="184.36" y="-437.51" font-family="Arial" font-weight="bold" font-size="12.00">QuanticsTCI</text>
<text text-anchor="start" x="157.36" y="-427.11" font-family="Arial" font-size="10.00">Sugar coating for TCI + QTT</text>
</g>
<!-- TensorCrossInterpolation -->
<g id="node3" class="node">
<title>TensorCrossInterpolation</title>
<path fill="none" stroke="black" d="M314.74,-244.16C314.74,-244.16 163.74,-244.16 163.74,-244.16 157.74,-244.16 151.74,-238.16 151.74,-232.16 151.74,-232.16 151.74,-206.16 151.74,-206.16 151.74,-200.16 157.74,-194.16 163.74,-194.16 163.74,-194.16 314.74,-194.16 314.74,-194.16 320.74,-194.16 326.74,-200.16 326.74,-206.16 326.74,-206.16 326.74,-232.16 326.74,-232.16 326.74,-238.16 320.74,-244.16 314.74,-244.16"/>
<text text-anchor="start" x="165.74" y="-221.56" font-family="Arial" font-weight="bold" font-size="12.00">TensorCrossInterpolation</text>
<text text-anchor="start" x="216.24" y="-211.16" font-family="Arial" font-size="10.00">TCI for TT</text>
</g>
<!-- QuanticsTCI&#45;&gt;TensorCrossInterpolation -->
<g id="edge1" class="edge">
<title>QuanticsTCI&#45;&gt;TensorCrossInterpolation</title>
<path fill="none" stroke="black" d="M222.13,-409.92C225.58,-371.48 232.16,-298.05 236.09,-254.36"/>
<polygon fill="black" stroke="black" points="239.59,-254.47 237,-244.2 232.62,-253.84 239.59,-254.47"/>
</g>
<!-- QuanticsGrids -->
<g id="node5" class="node">
<title>QuanticsGrids</title>
<path fill="none" stroke="black" d="M98,-382.75C98,-382.75 12,-382.75 12,-382.75 6,-382.75 0,-376.75 0,-370.75 0,-370.75 0,-344.75 0,-344.75 0,-338.75 6,-332.75 12,-332.75 12,-332.75 98,-332.75 98,-332.75 104,-332.75 110,-338.75 110,-344.75 110,-344.75 110,-370.75 110,-370.75 110,-376.75 104,-382.75 98,-382.75"/>
<text text-anchor="start" x="14" y="-360.15" font-family="Arial" font-weight="bold" font-size="12.00">QuanticsGrids</text>
<text text-anchor="start" x="23" y="-349.75" font-family="Arial" font-size="10.00">Quantics grids</text>
</g>
<!-- QuanticsTCI&#45;&gt;QuanticsGrids -->
<g id="edge2" class="edge">
<title>QuanticsTCI&#45;&gt;QuanticsGrids</title>
<path fill="none" stroke="black" d="M166.34,-410C150.85,-402.73 133.81,-394.73 117.82,-387.23"/>
<polygon fill="black" stroke="black" points="119.08,-383.95 108.54,-382.87 116.11,-390.29 119.08,-383.95"/>
</g>
<!-- ITensors -->
<g id="node2" class="node">
<title>ITensors</title>
<path fill="none" stroke="red" stroke-width="3" d="M412.21,-61.67C412.21,-61.67 273.21,-61.67 273.21,-61.67 267.21,-61.67 261.21,-55.67 261.21,-49.67 261.21,-49.67 261.21,-23.67 261.21,-23.67 261.21,-17.67 267.21,-11.67 273.21,-11.67 273.21,-11.67 412.21,-11.67 412.21,-11.67 418.21,-11.67 424.21,-17.67 424.21,-23.67 424.21,-23.67 424.21,-49.67 424.21,-49.67 424.21,-55.67 418.21,-61.67 412.21,-61.67"/>
<text text-anchor="start" x="317.71" y="-39.07" font-family="Arial" font-weight="bold" font-size="12.00">ITensors</text>
<text text-anchor="start" x="275.21" y="-28.67" font-family="Arial" font-size="10.00">Indexed tensor and contraction</text>
</g>
<!-- NDTensors -->
<g id="node8" class="node">
<title>NDTensors</title>
<path fill="none" stroke="red" stroke-width="3" d="M636.46,-50C636.46,-50 567.46,-50 567.46,-50 561.46,-50 555.46,-44 555.46,-38 555.46,-38 555.46,-12 555.46,-12 555.46,-6 561.46,0 567.46,0 567.46,0 636.46,0 636.46,0 642.46,0 648.46,-6 648.46,-12 648.46,-12 648.46,-38 648.46,-38 648.46,-44 642.46,-50 636.46,-50"/>
<text text-anchor="start" x="569.46" y="-27.4" font-family="Arial" font-weight="bold" font-size="12.00">NDTensors</text>
<text text-anchor="start" x="572.96" y="-17" font-family="Arial" font-size="10.00">NDTensors.jl</text>
</g>
<!-- ITensors&#45;&gt;NDTensors -->
<g id="edge3" class="edge">
<title>ITensors&#45;&gt;NDTensors</title>
<path fill="none" stroke="black" d="M424.38,-33C463.69,-31.23 509.85,-29.15 545.25,-27.55"/>
<polygon fill="black" stroke="black" points="545.57,-31.04 555.41,-27.1 545.26,-24.05 545.57,-31.04"/>
</g>
<!-- TensorCrossInterpolation&#45;&gt;ITensors -->
<g id="edge4" class="edge">
<title>TensorCrossInterpolation&#45;&gt;ITensors</title>
<path fill="none" stroke="gray" stroke-dasharray="5,2" d="M253.63,-193.79C271.78,-161.78 303.05,-106.63 323.3,-70.91"/>
<polygon fill="gray" stroke="gray" points="326.56,-72.26 328.45,-61.83 320.47,-68.81 326.56,-72.26"/>
</g>
<!-- ITensorMPS -->
<g id="node7" class="node">
<title>ITensorMPS</title>
<path fill="none" stroke="red" stroke-width="3" d="M428.33,-307.08C428.33,-307.08 354.33,-307.08 354.33,-307.08 348.33,-307.08 342.33,-301.08 342.33,-295.08 342.33,-295.08 342.33,-269.08 342.33,-269.08 342.33,-263.08 348.33,-257.08 354.33,-257.08 354.33,-257.08 428.33,-257.08 428.33,-257.08 434.33,-257.08 440.33,-263.08 440.33,-269.08 440.33,-269.08 440.33,-295.08 440.33,-295.08 440.33,-301.08 434.33,-307.08 428.33,-307.08"/>
<text text-anchor="start" x="356.33" y="-284.48" font-family="Arial" font-weight="bold" font-size="12.00">ITensorMPS</text>
<text text-anchor="start" x="367.33" y="-274.08" font-family="Arial" font-size="10.00">MPS/MPO</text>
</g>
<!-- TensorCrossInterpolation&#45;&gt;ITensorMPS -->
<g id="edge5" class="edge">
<title>TensorCrossInterpolation&#45;&gt;ITensorMPS</title>
<path fill="none" stroke="gray" stroke-dasharray="5,2" d="M299.79,-244.21C310.68,-248.71 322.02,-253.4 332.85,-257.88"/>
<polygon fill="gray" stroke="gray" points="331.64,-261.17 342.22,-261.76 334.31,-254.7 331.64,-261.17"/>
</g>
<!-- FastMPOContractions -->
<g id="node4" class="node">
<title>FastMPOContractions</title>
<path fill="none" stroke="red" stroke-width="3" d="M498.49,-466.76C498.49,-466.76 321.49,-466.76 321.49,-466.76 315.49,-466.76 309.49,-460.76 309.49,-454.76 309.49,-454.76 309.49,-428.76 309.49,-428.76 309.49,-422.76 315.49,-416.76 321.49,-416.76 321.49,-416.76 498.49,-416.76 498.49,-416.76 504.49,-416.76 510.49,-422.76 510.49,-428.76 510.49,-428.76 510.49,-454.76 510.49,-454.76 510.49,-460.76 504.49,-466.76 498.49,-466.76"/>
<text text-anchor="start" x="346.49" y="-444.16" font-family="Arial" font-weight="bold" font-size="12.00">FastMPOContractions</text>
<text text-anchor="start" x="323.49" y="-433.76" font-family="Arial" font-size="10.00">Additional MPO contractions algorithms</text>
</g>
<!-- FastMPOContractions&#45;&gt;ITensorMPS -->
<g id="edge6" class="edge">
<title>FastMPOContractions&#45;&gt;ITensorMPS</title>
<path fill="none" stroke="black" d="M407.03,-416.46C403.91,-389.71 398.96,-347.32 395.45,-317.32"/>
<polygon fill="black" stroke="black" points="398.91,-316.79 394.28,-307.26 391.96,-317.6 398.91,-316.79"/>
</g>
<!-- Quantics -->
<g id="node6" class="node">
<title>Quantics</title>
<path fill="none" stroke="red" stroke-width="3" d="M697.64,-444.4C697.64,-444.4 545.64,-444.4 545.64,-444.4 539.64,-444.4 533.64,-438.4 533.64,-432.4 533.64,-432.4 533.64,-406.4 533.64,-406.4 533.64,-400.4 539.64,-394.4 545.64,-394.4 545.64,-394.4 697.64,-394.4 697.64,-394.4 703.64,-394.4 709.64,-400.4 709.64,-406.4 709.64,-406.4 709.64,-432.4 709.64,-432.4 709.64,-438.4 703.64,-444.4 697.64,-444.4"/>
<text text-anchor="start" x="595.64" y="-421.8" font-family="Arial" font-weight="bold" font-size="12.00">Quantics</text>
<text text-anchor="start" x="547.64" y="-411.4" font-family="Arial" font-size="10.00">Quantics&#45;related utilities and misc</text>
</g>
<!-- Quantics&#45;&gt;FastMPOContractions -->
<g id="edge7" class="edge">
<title>Quantics&#45;&gt;FastMPOContractions</title>
<path fill="none" stroke="black" d="M533.41,-428.72C529.2,-429.17 524.95,-429.62 520.69,-430.07"/>
<polygon fill="black" stroke="black" points="520.32,-426.59 510.75,-431.12 521.06,-433.55 520.32,-426.59"/>
</g>
<!-- ITensorMPS&#45;&gt;ITensors -->
<g id="edge8" class="edge">
<title>ITensorMPS&#45;&gt;ITensors</title>
<path fill="none" stroke="black" d="M386.31,-256.74C377.59,-212.72 359.63,-122.05 349.7,-71.93"/>
<polygon fill="black" stroke="black" points="353.08,-71 347.7,-61.88 346.21,-72.36 353.08,-71"/>
</g>
<!-- ProjMPSs -->
<g id="node9" class="node">
<title>ProjMPSs</title>
<path fill="none" stroke="red" stroke-width="3" d="M166.12,-89.65C166.12,-89.65 14.12,-89.65 14.12,-89.65 8.12,-89.65 2.12,-83.65 2.12,-77.65 2.12,-77.65 2.12,-51.65 2.12,-51.65 2.12,-45.65 8.12,-39.65 14.12,-39.65 14.12,-39.65 166.12,-39.65 166.12,-39.65 172.12,-39.65 178.12,-45.65 178.12,-51.65 178.12,-51.65 178.12,-77.65 178.12,-77.65 178.12,-83.65 172.12,-89.65 166.12,-89.65"/>
<text text-anchor="start" x="61.62" y="-67.05" font-family="Arial" font-weight="bold" font-size="12.00">ProjMPSs</text>
<text text-anchor="start" x="16.12" y="-56.65" font-family="Arial" font-size="10.00">Adaptive patching + multiplication</text>
</g>
<!-- ProjMPSs&#45;&gt;ITensorMPS -->
<g id="edge9" class="edge">
<title>ProjMPSs&#45;&gt;ITensorMPS</title>
<path fill="none" stroke="black" d="M157.91,-89.7C209.21,-111.04 279.25,-145.47 329.94,-190.96 347.88,-207.05 363.06,-229.45 373.84,-248.02"/>
<polygon fill="black" stroke="black" points="370.82,-249.78 378.77,-256.77 376.92,-246.34 370.82,-249.78"/>
</g>
<!-- TCIAlgorithms -->
<g id="node10" class="node">
<title>TCIAlgorithms</title>
<path fill="none" stroke="red" stroke-width="3" d="M714.53,-239.15C714.53,-239.15 604.53,-239.15 604.53,-239.15 598.53,-239.15 592.53,-233.15 592.53,-227.15 592.53,-227.15 592.53,-201.15 592.53,-201.15 592.53,-195.15 598.53,-189.15 604.53,-189.15 604.53,-189.15 714.53,-189.15 714.53,-189.15 720.53,-189.15 726.53,-195.15 726.53,-201.15 726.53,-201.15 726.53,-227.15 726.53,-227.15 726.53,-233.15 720.53,-239.15 714.53,-239.15"/>
<text text-anchor="start" x="618.03" y="-216.55" font-family="Arial" font-weight="bold" font-size="12.00">TCIAlgorithms</text>
<text text-anchor="start" x="606.53" y="-206.15" font-family="Arial" font-size="10.00">Adaptive patching + TCI</text>
</g>
<!-- TCIAlgorithms&#45;&gt;Quantics -->
<g id="edge10" class="edge">
<title>TCIAlgorithms&#45;&gt;Quantics</title>
<path fill="none" stroke="black" d="M654.88,-239.32C648.16,-275.73 635.69,-343.25 628.09,-384.47"/>
<polygon fill="black" stroke="black" points="624.64,-383.88 626.26,-394.35 631.52,-385.15 624.64,-383.88"/>
</g>
<!-- TCIItensorConversion -->
<g id="node11" class="node">
<title>TCIItensorConversion</title>
<path fill="none" stroke="red" stroke-width="3" d="M568.15,-214.18C568.15,-214.18 401.15,-214.18 401.15,-214.18 395.15,-214.18 389.15,-208.18 389.15,-202.18 389.15,-202.18 389.15,-176.18 389.15,-176.18 389.15,-170.18 395.15,-164.18 401.15,-164.18 401.15,-164.18 568.15,-164.18 568.15,-164.18 574.15,-164.18 580.15,-170.18 580.15,-176.18 580.15,-176.18 580.15,-202.18 580.15,-202.18 580.15,-208.18 574.15,-214.18 568.15,-214.18"/>
<text text-anchor="start" x="421.15" y="-191.58" font-family="Arial" font-weight="bold" font-size="12.00">TCIItensorConversion</text>
<text text-anchor="start" x="403.15" y="-181.18" font-family="Arial" font-size="10.00">Conversion between ITensor and TCI</text>
</g>
<!-- TCIAlgorithms&#45;&gt;TCIItensorConversion -->
<g id="edge11" class="edge">
<title>TCIAlgorithms&#45;&gt;TCIItensorConversion</title>
<path fill="none" stroke="black" d="M592.42,-204.57C591.8,-204.48 591.18,-204.39 590.56,-204.3"/>
<polygon fill="black" stroke="black" points="590.82,-200.8 580.43,-202.85 589.83,-207.73 590.82,-200.8"/>
</g>
<!-- TCIItensorConversion&#45;&gt;TensorCrossInterpolation -->
<g id="edge12" class="edge">
<title>TCIItensorConversion&#45;&gt;TensorCrossInterpolation</title>
<path fill="none" stroke="black" d="M389.07,-200.86C371.97,-202.95 354.13,-205.13 336.97,-207.22"/>
<polygon fill="black" stroke="black" points="336.45,-203.76 326.95,-208.45 337.3,-210.71 336.45,-203.76"/>
</g>
<!-- TCIItensorConversion&#45;&gt;ITensorMPS -->
<g id="edge13" class="edge">
<title>TCIItensorConversion&#45;&gt;ITensorMPS</title>
<path fill="none" stroke="black" d="M459.15,-214.56C448.26,-225.41 435.42,-238.19 423.86,-249.7"/>
<polygon fill="black" stroke="black" points="421.1,-247.51 416.48,-257.05 426.04,-252.47 421.1,-247.51"/>
</g>
</g>
</svg>
