<?xml version="1.0" encoding="UTF-8" standalone="no"?>
<!DOCTYPE svg PUBLIC "-//W3C//DTD SVG 1.1//EN"
 "http://www.w3.org/Graphics/SVG/1.1/DTD/svg11.dtd">
<!-- Generated by graphviz version 2.50.0 (20211204.2007)
 -->
<!-- Title: library_dependencies Pages: 1 -->
<svg width="576pt" height="294pt"
 viewBox="0.00 0.00 576.00 294.41" xmlns="http://www.w3.org/2000/svg" xmlns:xlink="http://www.w3.org/1999/xlink">
<g id="graph0" class="graph" transform="scale(0.66 0.66) rotate(0) translate(4 442.17)">
<title>library_dependencies</title>
<polygon fill="white" stroke="transparent" points="-4,4 -4,-442.17 868.92,-442.17 868.92,4 -4,4"/>
<!-- T4APartitionedTT -->
<g id="node1" class="node">
<title>T4APartitionedTT</title>
<path fill="none" stroke="red" stroke-width="3" d="M120,-392.81C120,-392.81 12,-392.81 12,-392.81 6,-392.81 0,-386.81 0,-380.81 0,-380.81 0,-354.81 0,-354.81 0,-348.81 6,-342.81 12,-342.81 12,-342.81 120,-342.81 120,-342.81 126,-342.81 132,-348.81 132,-354.81 132,-354.81 132,-380.81 132,-380.81 132,-386.81 126,-392.81 120,-392.81"/>
<text text-anchor="start" x="15.5" y="-370.21" font-family="Arial" font-weight="bold" font-size="12.00">T4APartitionedTT</text>
<text text-anchor="start" x="14" y="-359.81" font-family="Arial" font-size="10.00">Partitioned tensor trains</text>
</g>
<!-- T4AITensorCompat -->
<g id="node10" class="node">
<title>T4AITensorCompat</title>
<path fill="none" stroke="red" stroke-width="3" d="M339.42,-246.14C339.42,-246.14 223.42,-246.14 223.42,-246.14 217.42,-246.14 211.42,-240.14 211.42,-234.14 211.42,-234.14 211.42,-198.14 211.42,-198.14 211.42,-192.14 217.42,-186.14 223.42,-186.14 223.42,-186.14 339.42,-186.14 339.42,-186.14 345.42,-186.14 351.42,-192.14 351.42,-198.14 351.42,-198.14 351.42,-234.14 351.42,-234.14 351.42,-240.14 345.42,-246.14 339.42,-246.14"/>
<text text-anchor="start" x="225.42" y="-223.54" font-family="Arial" font-weight="bold" font-size="12.00">T4AITensorCompat</text>
<text text-anchor="start" x="228.42" y="-213.14" font-family="Arial" font-size="10.00">ITensor&#45;like tensor train,</text>
<text text-anchor="start" x="226.42" y="-203.14" font-family="Arial" font-size="10.00"> automul from Quantics.jl</text>
</g>
<!-- T4APartitionedTT&#45;&gt;T4AITensorCompat -->
<g id="edge1" class="edge">
<title>T4APartitionedTT&#45;&gt;T4AITensorCompat</title>
<path fill="none" stroke="black" d="M101.57,-342.76C136.72,-318.02 190.82,-279.93 230.51,-251.98"/>
<polygon fill="black" stroke="black" points="232.59,-254.8 238.75,-246.18 228.56,-249.08 232.59,-254.8"/>
</g>
<!-- T4ATensorCI -->
<g id="node2" class="node">
<title>T4ATensorCI</title>
<path fill="none" stroke="black" d="M760.71,-94.14C760.71,-94.14 682.71,-94.14 682.71,-94.14 676.71,-94.14 670.71,-88.14 670.71,-82.14 670.71,-82.14 670.71,-56.14 670.71,-56.14 670.71,-50.14 676.71,-44.14 682.71,-44.14 682.71,-44.14 760.71,-44.14 760.71,-44.14 766.71,-44.14 772.71,-50.14 772.71,-56.14 772.71,-56.14 772.71,-82.14 772.71,-82.14 772.71,-88.14 766.71,-94.14 760.71,-94.14"/>
<text text-anchor="start" x="684.71" y="-71.54" font-family="Arial" font-weight="bold" font-size="12.00">T4ATensorCI</text>
<text text-anchor="start" x="698.71" y="-61.14" font-family="Arial" font-size="10.00">TCI for TT</text>
</g>
<!-- T4ATensorCI&#45;&gt;T4AITensorCompat -->
<g id="edge2" class="edge">
<title>T4ATensorCI&#45;&gt;T4AITensorCompat</title>
<path fill="none" stroke="gray" stroke-dasharray="5,2" d="M670.34,-86.29C594.29,-111.68 451.06,-159.5 361.25,-189.49"/>
<polygon fill="gray" stroke="gray" points="360.03,-186.2 351.65,-192.69 362.25,-192.84 360.03,-186.2"/>
</g>
<!-- MPI -->
<g id="node3" class="node">
<title>MPI</title>
<path fill="none" stroke="black" d="M67.94,-108.21C67.94,-108.21 37.94,-108.21 37.94,-108.21 31.94,-108.21 25.94,-102.21 25.94,-96.21 25.94,-96.21 25.94,-70.21 25.94,-70.21 25.94,-64.21 31.94,-58.21 37.94,-58.21 37.94,-58.21 67.94,-58.21 67.94,-58.21 73.94,-58.21 79.94,-64.21 79.94,-70.21 79.94,-70.21 79.94,-96.21 79.94,-96.21 79.94,-102.21 73.94,-108.21 67.94,-108.21"/>
<text text-anchor="start" x="41.94" y="-85.61" font-family="Arial" font-weight="bold" font-size="12.00">MPI</text>
<text text-anchor="start" x="43.44" y="-75.21" font-family="Arial" font-size="10.00">MPI</text>
</g>
<!-- T4AQuantics -->
<g id="node4" class="node">
<title>T4AQuantics</title>
<path fill="none" stroke="red" stroke-width="3" d="M417.47,-437.77C417.47,-437.77 185.47,-437.77 185.47,-437.77 179.47,-437.77 173.47,-431.77 173.47,-425.77 173.47,-425.77 173.47,-389.77 173.47,-389.77 173.47,-383.77 179.47,-377.77 185.47,-377.77 185.47,-377.77 417.47,-377.77 417.47,-377.77 423.47,-377.77 429.47,-383.77 429.47,-389.77 429.47,-389.77 429.47,-425.77 429.47,-425.77 429.47,-431.77 423.47,-437.77 417.47,-437.77"/>
<text text-anchor="start" x="263.97" y="-415.17" font-family="Arial" font-weight="bold" font-size="12.00">T4AQuantics</text>
<text text-anchor="start" x="245.47" y="-404.77" font-family="Arial" font-size="10.00">Useful experimental code</text>
<text text-anchor="start" x="187.47" y="-394.77" font-family="Arial" font-size="10.00"> for quantics tensor networks + Quantics transforms</text>
</g>
<!-- T4AQuantics&#45;&gt;T4APartitionedTT -->
<g id="edge3" class="edge">
<title>T4AQuantics&#45;&gt;T4APartitionedTT</title>
<path fill="none" stroke="black" d="M173.4,-386.04C162.72,-384.22 152.16,-382.43 142.06,-380.72"/>
<polygon fill="black" stroke="black" points="142.58,-377.26 132.14,-379.03 141.41,-384.16 142.58,-377.26"/>
</g>
<!-- QuanticsGrids -->
<g id="node7" class="node">
<title>QuanticsGrids</title>
<path fill="none" stroke="black" d="M559.36,-438.17C559.36,-438.17 473.36,-438.17 473.36,-438.17 467.36,-438.17 461.36,-432.17 461.36,-426.17 461.36,-426.17 461.36,-400.17 461.36,-400.17 461.36,-394.17 467.36,-388.17 473.36,-388.17 473.36,-388.17 559.36,-388.17 559.36,-388.17 565.36,-388.17 571.36,-394.17 571.36,-400.17 571.36,-400.17 571.36,-426.17 571.36,-426.17 571.36,-432.17 565.36,-438.17 559.36,-438.17"/>
<text text-anchor="start" x="475.36" y="-415.57" font-family="Arial" font-weight="bold" font-size="12.00">QuanticsGrids</text>
<text text-anchor="start" x="484.36" y="-405.17" font-family="Arial" font-size="10.00">Quantics grids</text>
</g>
<!-- T4AQuantics&#45;&gt;QuanticsGrids -->
<g id="edge4" class="edge">
<title>T4AQuantics&#45;&gt;QuanticsGrids</title>
<path fill="none" stroke="black" d="M429.58,-410.99C436.77,-411.17 443.84,-411.35 450.64,-411.52"/>
<polygon fill="black" stroke="black" points="451.01,-415.03 461.1,-411.78 451.19,-408.03 451.01,-415.03"/>
</g>
<!-- T4AAdaptivePatchedTCI -->
<g id="node5" class="node">
<title>T4AAdaptivePatchedTCI</title>
<path fill="none" stroke="black" d="M584.56,-246.74C584.56,-246.74 438.56,-246.74 438.56,-246.74 432.56,-246.74 426.56,-240.74 426.56,-234.74 426.56,-234.74 426.56,-208.74 426.56,-208.74 426.56,-202.74 432.56,-196.74 438.56,-196.74 438.56,-196.74 584.56,-196.74 584.56,-196.74 590.56,-196.74 596.56,-202.74 596.56,-208.74 596.56,-208.74 596.56,-234.74 596.56,-234.74 596.56,-240.74 590.56,-246.74 584.56,-246.74"/>
<text text-anchor="start" x="440.56" y="-224.14" font-family="Arial" font-weight="bold" font-size="12.00">T4AAdaptivePatchedTCI</text>
<text text-anchor="start" x="458.56" y="-213.74" font-family="Arial" font-size="10.00">Adaptive patching + TCI</text>
</g>
<!-- T4AAdaptivePatchedTCI&#45;&gt;T4APartitionedTT -->
<g id="edge5" class="edge">
<title>T4AAdaptivePatchedTCI&#45;&gt;T4APartitionedTT</title>
<path fill="none" stroke="gray" stroke-dasharray="5,2" d="M435.22,-246.77C353.25,-273.64 223.81,-316.07 141.98,-342.9"/>
<polygon fill="gray" stroke="gray" points="140.66,-339.65 132.24,-346.09 142.84,-346.3 140.66,-339.65"/>
</g>
<!-- T4AAdaptivePatchedTCI&#45;&gt;T4ATensorCI -->
<g id="edge6" class="edge">
<title>T4AAdaptivePatchedTCI&#45;&gt;T4ATensorCI</title>
<path fill="none" stroke="black" d="M546.26,-196.54C582.46,-170.25 639.29,-128.99 678.4,-100.59"/>
<polygon fill="black" stroke="black" points="680.92,-103.08 686.96,-94.37 676.81,-97.42 680.92,-103.08"/>
</g>
<!-- T4AAdaptivePatchedTCI&#45;&gt;QuanticsGrids -->
<g id="edge7" class="edge">
<title>T4AAdaptivePatchedTCI&#45;&gt;QuanticsGrids</title>
<path fill="none" stroke="black" d="M512.19,-246.76C513.03,-280.3 514.52,-339.99 515.48,-378.02"/>
<polygon fill="black" stroke="black" points="511.98,-378.23 515.73,-388.14 518.98,-378.05 511.98,-378.23"/>
</g>
<!-- T4AAdaptivePatchedTCI&#45;&gt;T4AITensorCompat -->
<g id="edge8" class="edge">
<title>T4AAdaptivePatchedTCI&#45;&gt;T4AITensorCompat</title>
<path fill="none" stroke="gray" stroke-dasharray="5,2" d="M426.52,-219.67C405.28,-219.15 382.58,-218.6 361.58,-218.09"/>
<polygon fill="gray" stroke="gray" points="361.51,-214.59 351.43,-217.84 361.34,-221.59 361.51,-214.59"/>
</g>
<!-- T4ATTContractions -->
<g id="node6" class="node">
<title>T4ATTContractions</title>
<path fill="none" stroke="red" stroke-width="3" d="M368.78,-50C368.78,-50 152.78,-50 152.78,-50 146.78,-50 140.78,-44 140.78,-38 140.78,-38 140.78,-12 140.78,-12 140.78,-6 146.78,0 152.78,0 152.78,0 368.78,0 368.78,0 374.78,0 380.78,-6 380.78,-12 380.78,-12 380.78,-38 380.78,-38 380.78,-44 374.78,-50 368.78,-50"/>
<text text-anchor="start" x="204.78" y="-27.4" font-family="Arial" font-weight="bold" font-size="12.00">T4ATTContractions</text>
<text text-anchor="start" x="154.78" y="-17" font-family="Arial" font-size="10.00">TT contractions by zipup, fit (by Marc + Simone)</text>
</g>
<!-- T4ATTContractions&#45;&gt;MPI -->
<g id="edge9" class="edge">
<title>T4ATTContractions&#45;&gt;MPI</title>
<path fill="none" stroke="gray" stroke-dasharray="5,2" d="M171.43,-50.02C142.81,-58.04 112.68,-66.48 89.97,-72.84"/>
<polygon fill="gray" stroke="gray" points="88.77,-69.54 80.08,-75.6 90.66,-76.28 88.77,-69.54"/>
</g>
<!-- T4ATTContractions&#45;&gt;T4AITensorCompat -->
<g id="edge10" class="edge">
<title>T4ATTContractions&#45;&gt;T4AITensorCompat</title>
<path fill="none" stroke="black" d="M263.52,-50.38C266.98,-82.41 272.97,-137.86 277.06,-175.74"/>
<polygon fill="black" stroke="black" points="273.6,-176.36 278.16,-185.92 280.56,-175.6 273.6,-176.36"/>
</g>
<!-- T4AQuanticsTCI -->
<g id="node8" class="node">
<title>T4AQuanticsTCI</title>
<path fill="none" stroke="black" d="M852.92,-381.94C852.92,-381.94 617.92,-381.94 617.92,-381.94 611.92,-381.94 605.92,-375.94 605.92,-369.94 605.92,-369.94 605.92,-343.94 605.92,-343.94 605.92,-337.94 611.92,-331.94 617.92,-331.94 617.92,-331.94 852.92,-331.94 852.92,-331.94 858.92,-331.94 864.92,-337.94 864.92,-343.94 864.92,-343.94 864.92,-369.94 864.92,-369.94 864.92,-375.94 858.92,-381.94 852.92,-381.94"/>
<text text-anchor="start" x="688.42" y="-359.34" font-family="Arial" font-weight="bold" font-size="12.00">T4AQuanticsTCI</text>
<text text-anchor="start" x="619.92" y="-348.94" font-family="Arial" font-size="10.00">Quanticscrossinterpolate, Quantics Transform MPOs</text>
</g>
<!-- T4AQuanticsTCI&#45;&gt;T4ATensorCI -->
<g id="edge11" class="edge">
<title>T4AQuanticsTCI&#45;&gt;T4ATensorCI</title>
<path fill="none" stroke="black" d="M734.23,-331.9C731.79,-280.66 726.22,-163.7 723.4,-104.64"/>
<polygon fill="black" stroke="black" points="726.88,-104.14 722.91,-94.32 719.89,-104.48 726.88,-104.14"/>
</g>
<!-- T4AQuanticsTCI&#45;&gt;QuanticsGrids -->
<g id="edge12" class="edge">
<title>T4AQuanticsTCI&#45;&gt;QuanticsGrids</title>
<path fill="none" stroke="black" d="M637.74,-382.01C618.76,-386.88 599.3,-391.88 581.68,-396.4"/>
<polygon fill="black" stroke="black" points="580.34,-393.13 571.53,-399.01 582.09,-399.91 580.34,-393.13"/>
</g>
<!-- ITensors -->
<g id="node9" class="node">
<title>ITensors</title>
<path fill="none" stroke="red" stroke-width="3" d="M545.58,-56.59C545.58,-56.59 405.58,-56.59 405.58,-56.59 399.58,-56.59 393.58,-50.59 393.58,-44.59 393.58,-44.59 393.58,-18.59 393.58,-18.59 393.58,-12.59 399.58,-6.59 405.58,-6.59 405.58,-6.59 545.58,-6.59 545.58,-6.59 551.58,-6.59 557.58,-12.59 557.58,-18.59 557.58,-18.59 557.58,-44.59 557.58,-44.59 557.58,-50.59 551.58,-56.59 545.58,-56.59"/>
<text text-anchor="start" x="450.58" y="-33.99" font-family="Arial" font-weight="bold" font-size="12.00">ITensors</text>
<text text-anchor="start" x="407.58" y="-23.59" font-family="Arial" font-size="10.00">Indexing and contraction library</text>
</g>
<!-- T4AITensorCompat&#45;&gt;ITensors -->
<g id="edge13" class="edge">
<title>T4AITensorCompat&#45;&gt;ITensors</title>
<path fill="none" stroke="black" d="M313.05,-186.08C348.46,-152.42 405.62,-98.08 441.86,-63.64"/>
<polygon fill="black" stroke="black" points="444.43,-66.03 449.26,-56.6 439.6,-60.95 444.43,-66.03"/>
</g>
</g>
</svg>
