<?xml version="1.0" encoding="UTF-8" standalone="no"?>
<!DOCTYPE svg PUBLIC "-//W3C//DTD SVG 1.1//EN"
 "http://www.w3.org/Graphics/SVG/1.1/DTD/svg11.dtd">
<!-- Generated by graphviz version 2.50.0 (20211204.2007)
 -->
<!-- Title: library_dependencies Pages: 1 -->
<svg width="576pt" height="387pt"
 viewBox="0.00 0.00 576.00 386.67" xmlns="http://www.w3.org/2000/svg" xmlns:xlink="http://www.w3.org/1999/xlink">
<g id="graph0" class="graph" transform="scale(0.65 0.65) rotate(0) translate(4 586.62)">
<title>library_dependencies</title>
<polygon fill="white" stroke="transparent" points="-4,4 -4,-586.62 875.81,-586.62 875.81,4 -4,4"/>
<!-- ParallelMPOContractions -->
<g id="node1" class="node">
<title>ParallelMPOContractions</title>
<path fill="none" stroke="black" d="M160.88,-293.84C160.88,-293.84 12.88,-293.84 12.88,-293.84 6.88,-293.84 0.88,-287.84 0.88,-281.84 0.88,-281.84 0.88,-255.84 0.88,-255.84 0.88,-249.84 6.88,-243.84 12.88,-243.84 12.88,-243.84 160.88,-243.84 160.88,-243.84 166.88,-243.84 172.88,-249.84 172.88,-255.84 172.88,-255.84 172.88,-281.84 172.88,-281.84 172.88,-287.84 166.88,-293.84 160.88,-293.84"/>
<text text-anchor="start" x="14.88" y="-271.24" font-family="Arial" font-weight="bold" font-size="12.00">ParallelMPOContractions</text>
<text text-anchor="start" x="20.38" y="-260.84" font-family="Arial" font-size="10.00">Parallelized MPO contractions</text>
</g>
<!-- MPI -->
<g id="node3" class="node">
<title>MPI</title>
<path fill="none" stroke="black" d="M116.08,-62.25C116.08,-62.25 86.08,-62.25 86.08,-62.25 80.08,-62.25 74.08,-56.25 74.08,-50.25 74.08,-50.25 74.08,-24.25 74.08,-24.25 74.08,-18.25 80.08,-12.25 86.08,-12.25 86.08,-12.25 116.08,-12.25 116.08,-12.25 122.08,-12.25 128.08,-18.25 128.08,-24.25 128.08,-24.25 128.08,-50.25 128.08,-50.25 128.08,-56.25 122.08,-62.25 116.08,-62.25"/>
<text text-anchor="start" x="90.08" y="-39.65" font-family="Arial" font-weight="bold" font-size="12.00">MPI</text>
<text text-anchor="start" x="91.58" y="-29.25" font-family="Arial" font-size="10.00">MPI</text>
</g>
<!-- ParallelMPOContractions&#45;&gt;MPI -->
<g id="edge1" class="edge">
<title>ParallelMPOContractions&#45;&gt;MPI</title>
<path fill="none" stroke="black" d="M88.43,-243.62C90.97,-202.2 96.03,-119.68 98.92,-72.5"/>
<polygon fill="black" stroke="black" points="102.42,-72.64 99.54,-62.44 95.43,-72.21 102.42,-72.64"/>
</g>
<!-- TreeTensorNetworks -->
<g id="node6" class="node">
<title>TreeTensorNetworks</title>
<path fill="none" stroke="black" d="M401.44,-247.61C401.44,-247.61 278.44,-247.61 278.44,-247.61 272.44,-247.61 266.44,-241.61 266.44,-235.61 266.44,-235.61 266.44,-209.61 266.44,-209.61 266.44,-203.61 272.44,-197.61 278.44,-197.61 278.44,-197.61 401.44,-197.61 401.44,-197.61 407.44,-197.61 413.44,-203.61 413.44,-209.61 413.44,-209.61 413.44,-235.61 413.44,-235.61 413.44,-241.61 407.44,-247.61 401.44,-247.61"/>
<text text-anchor="start" x="280.44" y="-225.01" font-family="Arial" font-weight="bold" font-size="12.00">TreeTensorNetworks</text>
<text text-anchor="start" x="291.44" y="-214.61" font-family="Arial" font-size="10.00">Tree Tensor Networks</text>
</g>
<!-- ParallelMPOContractions&#45;&gt;TreeTensorNetworks -->
<g id="edge2" class="edge">
<title>ParallelMPOContractions&#45;&gt;TreeTensorNetworks</title>
<path fill="none" stroke="black" d="M172.91,-253.12C199.85,-248.2 229.52,-242.78 256.29,-237.89"/>
<polygon fill="black" stroke="black" points="257.19,-241.29 266.4,-236.05 255.93,-234.4 257.19,-241.29"/>
</g>
<!-- TreeTCI -->
<g id="node2" class="node">
<title>TreeTCI</title>
<path fill="none" stroke="black" d="M498.5,-386.2C498.5,-386.2 429.5,-386.2 429.5,-386.2 423.5,-386.2 417.5,-380.2 417.5,-374.2 417.5,-374.2 417.5,-348.2 417.5,-348.2 417.5,-342.2 423.5,-336.2 429.5,-336.2 429.5,-336.2 498.5,-336.2 498.5,-336.2 504.5,-336.2 510.5,-342.2 510.5,-348.2 510.5,-348.2 510.5,-374.2 510.5,-374.2 510.5,-380.2 504.5,-386.2 498.5,-386.2"/>
<text text-anchor="start" x="441.5" y="-363.6" font-family="Arial" font-weight="bold" font-size="12.00">TreeTCI</text>
<text text-anchor="start" x="431.5" y="-353.2" font-family="Arial" font-size="10.00">TCI for TT/TCI</text>
</g>
<!-- TreeTCI&#45;&gt;TreeTensorNetworks -->
<g id="edge3" class="edge">
<title>TreeTCI&#45;&gt;TreeTensorNetworks</title>
<path fill="none" stroke="black" d="M441.53,-336.1C421.37,-313.58 391.64,-280.36 369.55,-255.68"/>
<polygon fill="black" stroke="black" points="371.94,-253.1 362.66,-247.99 366.72,-257.77 371.94,-253.1"/>
</g>
<!-- TCICore -->
<g id="node13" class="node">
<title>TCICore</title>
<path fill="none" stroke="black" d="M653.97,-57C653.97,-57 452.97,-57 452.97,-57 446.97,-57 440.97,-51 440.97,-45 440.97,-45 440.97,-19 440.97,-19 440.97,-13 446.97,-7 452.97,-7 452.97,-7 653.97,-7 653.97,-7 659.97,-7 665.97,-13 665.97,-19 665.97,-19 665.97,-45 665.97,-45 665.97,-51 659.97,-57 653.97,-57"/>
<text text-anchor="start" x="529.47" y="-34.4" font-family="Arial" font-weight="bold" font-size="12.00">TCICore</text>
<text text-anchor="start" x="454.97" y="-24" font-family="Arial" font-size="10.00">TCI core algorithms (LU decomposition, etc.)</text>
</g>
<!-- TreeTCI&#45;&gt;TCICore -->
<g id="edge4" class="edge">
<title>TreeTCI&#45;&gt;TCICore</title>
<path fill="none" stroke="black" d="M470.8,-336.18C486.59,-278.1 525.76,-133.95 543.94,-67.09"/>
<polygon fill="black" stroke="black" points="547.32,-68 546.56,-57.43 540.56,-66.16 547.32,-68"/>
</g>
<!-- QuanticsTCI -->
<g id="node4" class="node">
<title>QuanticsTCI</title>
<path fill="none" stroke="black" d="M663.93,-562.9C663.93,-562.9 534.93,-562.9 534.93,-562.9 528.93,-562.9 522.93,-556.9 522.93,-550.9 522.93,-550.9 522.93,-524.9 522.93,-524.9 522.93,-518.9 528.93,-512.9 534.93,-512.9 534.93,-512.9 663.93,-512.9 663.93,-512.9 669.93,-512.9 675.93,-518.9 675.93,-524.9 675.93,-524.9 675.93,-550.9 675.93,-550.9 675.93,-556.9 669.93,-562.9 663.93,-562.9"/>
<text text-anchor="start" x="563.93" y="-540.3" font-family="Arial" font-weight="bold" font-size="12.00">QuanticsTCI</text>
<text text-anchor="start" x="536.93" y="-529.9" font-family="Arial" font-size="10.00">Sugar coating for TCI + QTT</text>
</g>
<!-- QuanticsTCI&#45;&gt;TreeTCI -->
<g id="edge5" class="edge">
<title>QuanticsTCI&#45;&gt;TreeTCI</title>
<path fill="none" stroke="black" d="M580.03,-512.58C556.3,-481.62 516.04,-429.09 489.74,-394.78"/>
<polygon fill="black" stroke="black" points="492.23,-392.27 483.37,-386.47 486.67,-396.53 492.23,-392.27"/>
</g>
<!-- QuanticsGrids -->
<g id="node9" class="node">
<title>QuanticsGrids</title>
<path fill="none" stroke="black" d="M415.09,-582.62C415.09,-582.62 329.09,-582.62 329.09,-582.62 323.09,-582.62 317.09,-576.62 317.09,-570.62 317.09,-570.62 317.09,-544.62 317.09,-544.62 317.09,-538.62 323.09,-532.62 329.09,-532.62 329.09,-532.62 415.09,-532.62 415.09,-532.62 421.09,-532.62 427.09,-538.62 427.09,-544.62 427.09,-544.62 427.09,-570.62 427.09,-570.62 427.09,-576.62 421.09,-582.62 415.09,-582.62"/>
<text text-anchor="start" x="331.09" y="-560.02" font-family="Arial" font-weight="bold" font-size="12.00">QuanticsGrids</text>
<text text-anchor="start" x="340.09" y="-549.62" font-family="Arial" font-size="10.00">Quantics grids</text>
</g>
<!-- QuanticsTCI&#45;&gt;QuanticsGrids -->
<g id="edge6" class="edge">
<title>QuanticsTCI&#45;&gt;QuanticsGrids</title>
<path fill="none" stroke="black" d="M522.78,-544.55C495.01,-546.96 463.92,-549.65 437.23,-551.97"/>
<polygon fill="black" stroke="black" points="436.89,-548.48 427.23,-552.83 437.49,-555.46 436.89,-548.48"/>
</g>
<!-- PatchedTCI -->
<g id="node5" class="node">
<title>PatchedTCI</title>
<path fill="none" stroke="black" d="M847.7,-477.67C847.7,-477.67 737.7,-477.67 737.7,-477.67 731.7,-477.67 725.7,-471.67 725.7,-465.67 725.7,-465.67 725.7,-439.67 725.7,-439.67 725.7,-433.67 731.7,-427.67 737.7,-427.67 737.7,-427.67 847.7,-427.67 847.7,-427.67 853.7,-427.67 859.7,-433.67 859.7,-439.67 859.7,-439.67 859.7,-465.67 859.7,-465.67 859.7,-471.67 853.7,-477.67 847.7,-477.67"/>
<text text-anchor="start" x="759.2" y="-455.07" font-family="Arial" font-weight="bold" font-size="12.00">PatchedTCI</text>
<text text-anchor="start" x="739.7" y="-444.67" font-family="Arial" font-size="10.00">Adaptive patching + TCI</text>
</g>
<!-- PatchedTCI&#45;&gt;TreeTCI -->
<g id="edge7" class="edge">
<title>PatchedTCI&#45;&gt;TreeTCI</title>
<path fill="none" stroke="black" d="M725.39,-433.94C664.97,-417.12 577.29,-392.72 520.45,-376.91"/>
<polygon fill="black" stroke="black" points="521.13,-373.46 510.56,-374.15 519.26,-380.21 521.13,-373.46"/>
</g>
<!-- TTNOperations -->
<g id="node10" class="node">
<title>TTNOperations</title>
<path fill="none" stroke="black" d="M859.81,-108.04C859.81,-108.04 706.81,-108.04 706.81,-108.04 700.81,-108.04 694.81,-102.04 694.81,-96.04 694.81,-96.04 694.81,-70.04 694.81,-70.04 694.81,-64.04 700.81,-58.04 706.81,-58.04 706.81,-58.04 859.81,-58.04 859.81,-58.04 865.81,-58.04 871.81,-64.04 871.81,-70.04 871.81,-70.04 871.81,-96.04 871.81,-96.04 871.81,-102.04 865.81,-108.04 859.81,-108.04"/>
<text text-anchor="start" x="739.31" y="-85.44" font-family="Arial" font-weight="bold" font-size="12.00">TTNOperations</text>
<text text-anchor="start" x="708.81" y="-75.04" font-family="Arial" font-size="10.00">Quantics.jl &#45; QuanticsTransofms.jl</text>
</g>
<!-- PatchedTCI&#45;&gt;TTNOperations -->
<g id="edge8" class="edge">
<title>PatchedTCI&#45;&gt;TTNOperations</title>
<path fill="none" stroke="black" d="M792.06,-427.55C790.43,-363.28 786.1,-192.7 784.21,-118.43"/>
<polygon fill="black" stroke="black" points="787.7,-118.1 783.95,-108.19 780.7,-118.28 787.7,-118.1"/>
</g>
<!-- TTNContractions -->
<g id="node7" class="node">
<title>TTNContractions</title>
<path fill="none" stroke="black" d="M668.26,-283.22C668.26,-283.22 560.26,-283.22 560.26,-283.22 554.26,-283.22 548.26,-277.22 548.26,-271.22 548.26,-271.22 548.26,-245.22 548.26,-245.22 548.26,-239.22 554.26,-233.22 560.26,-233.22 560.26,-233.22 668.26,-233.22 668.26,-233.22 674.26,-233.22 680.26,-239.22 680.26,-245.22 680.26,-245.22 680.26,-271.22 680.26,-271.22 680.26,-277.22 674.26,-283.22 668.26,-283.22"/>
<text text-anchor="start" x="564.76" y="-260.62" font-family="Arial" font-weight="bold" font-size="12.00">TTNContractions</text>
<text text-anchor="start" x="562.26" y="-250.22" font-family="Arial" font-size="10.00">Contractions algorithms</text>
</g>
<!-- TTNContractions&#45;&gt;TreeTensorNetworks -->
<g id="edge9" class="edge">
<title>TTNContractions&#45;&gt;TreeTensorNetworks</title>
<path fill="none" stroke="black" d="M548.2,-249.64C510.79,-244.79 463.62,-238.66 423.64,-233.47"/>
<polygon fill="black" stroke="black" points="424,-229.99 413.64,-232.18 423.1,-236.93 424,-229.99"/>
</g>
<!-- ParallelTCI -->
<g id="node8" class="node">
<title>ParallelTCI</title>
<path fill="none" stroke="black" d="M381.38,-50C381.38,-50 307.38,-50 307.38,-50 301.38,-50 295.38,-44 295.38,-38 295.38,-38 295.38,-12 295.38,-12 295.38,-6 301.38,0 307.38,0 307.38,0 381.38,0 381.38,0 387.38,0 393.38,-6 393.38,-12 393.38,-12 393.38,-38 393.38,-38 393.38,-44 387.38,-50 381.38,-50"/>
<text text-anchor="start" x="313.38" y="-27.4" font-family="Arial" font-weight="bold" font-size="12.00">ParallelTCI</text>
<text text-anchor="start" x="309.38" y="-17" font-family="Arial" font-size="10.00">Parallelized TCI</text>
</g>
<!-- ParallelTCI&#45;&gt;MPI -->
<g id="edge10" class="edge">
<title>ParallelTCI&#45;&gt;MPI</title>
<path fill="none" stroke="black" d="M295.15,-27.48C248.81,-29.81 180.43,-33.25 138.43,-35.37"/>
<polygon fill="black" stroke="black" points="138.16,-31.87 128.35,-35.87 138.51,-38.87 138.16,-31.87"/>
</g>
<!-- ParallelTCI&#45;&gt;TreeTensorNetworks -->
<g id="edge11" class="edge">
<title>ParallelTCI&#45;&gt;TreeTensorNetworks</title>
<path fill="none" stroke="black" d="M343.82,-50.03C343.04,-84.75 341.63,-147.72 340.74,-187.24"/>
<polygon fill="black" stroke="black" points="337.24,-187.4 340.51,-197.47 344.23,-187.55 337.24,-187.4"/>
</g>
<!-- ParallelTCI&#45;&gt;TCICore -->
<g id="edge12" class="edge">
<title>ParallelTCI&#45;&gt;TCICore</title>
<path fill="none" stroke="black" d="M393.41,-26.64C404.85,-27.03 417.55,-27.45 430.64,-27.89"/>
<polygon fill="black" stroke="black" points="430.6,-31.39 440.72,-28.23 430.84,-24.39 430.6,-31.39"/>
</g>
<!-- TTNOperations&#45;&gt;TTNContractions -->
<g id="edge13" class="edge">
<title>TTNOperations&#45;&gt;TTNContractions</title>
<path fill="none" stroke="black" d="M759.09,-108.14C729.21,-139.1 678.36,-191.79 645.55,-225.79"/>
<polygon fill="black" stroke="black" points="642.86,-223.54 638.43,-233.17 647.9,-228.4 642.86,-223.54"/>
</g>
<!-- QuanticsTransforms -->
<g id="node11" class="node">
<title>QuanticsTransforms</title>
<path fill="none" stroke="black" d="M324.43,-433.59C324.43,-433.59 203.43,-433.59 203.43,-433.59 197.43,-433.59 191.43,-427.59 191.43,-421.59 191.43,-421.59 191.43,-395.59 191.43,-395.59 191.43,-389.59 197.43,-383.59 203.43,-383.59 203.43,-383.59 324.43,-383.59 324.43,-383.59 330.43,-383.59 336.43,-389.59 336.43,-395.59 336.43,-395.59 336.43,-421.59 336.43,-421.59 336.43,-427.59 330.43,-433.59 324.43,-433.59"/>
<text text-anchor="start" x="205.43" y="-410.99" font-family="Arial" font-weight="bold" font-size="12.00">QuanticsTransforms</text>
<text text-anchor="start" x="219.43" y="-400.59" font-family="Arial" font-size="10.00">Quantics transforms</text>
</g>
<!-- QuanticsTransforms&#45;&gt;TreeTensorNetworks -->
<g id="edge14" class="edge">
<title>QuanticsTransforms&#45;&gt;TreeTensorNetworks</title>
<path fill="none" stroke="black" d="M274.18,-383.5C287.5,-350.92 310.81,-293.88 325.81,-257.2"/>
<polygon fill="black" stroke="black" points="329.07,-258.47 329.61,-247.89 322.59,-255.82 329.07,-258.47"/>
</g>
<!-- QuanticsTransforms&#45;&gt;QuanticsGrids -->
<g id="edge15" class="edge">
<title>QuanticsTransforms&#45;&gt;QuanticsGrids</title>
<path fill="none" stroke="black" d="M282.28,-433.87C300.3,-458.7 327.91,-496.75 347.76,-524.09"/>
<polygon fill="black" stroke="black" points="344.94,-526.17 353.65,-532.21 350.61,-522.06 344.94,-526.17"/>
</g>
<!-- ProjMPSs -->
<g id="node12" class="node">
<title>ProjMPSs</title>
<path fill="none" stroke="black" d="M164,-549.02C164,-549.02 12,-549.02 12,-549.02 6,-549.02 0,-543.02 0,-537.02 0,-537.02 0,-511.02 0,-511.02 0,-505.02 6,-499.02 12,-499.02 12,-499.02 164,-499.02 164,-499.02 170,-499.02 176,-505.02 176,-511.02 176,-511.02 176,-537.02 176,-537.02 176,-543.02 170,-549.02 164,-549.02"/>
<text text-anchor="start" x="59.5" y="-526.42" font-family="Arial" font-weight="bold" font-size="12.00">ProjMPSs</text>
<text text-anchor="start" x="14" y="-516.02" font-family="Arial" font-size="10.00">Adaptive patching + multiplication</text>
</g>
<!-- ProjMPSs&#45;&gt;TreeTensorNetworks -->
<g id="edge16" class="edge">
<title>ProjMPSs&#45;&gt;TreeTensorNetworks</title>
<path fill="none" stroke="black" d="M103.9,-498.76C122.78,-469.38 155.81,-419.86 188.23,-380.39 225.96,-334.44 274.24,-285.72 306.08,-254.78"/>
<polygon fill="black" stroke="black" points="308.66,-257.16 313.41,-247.69 303.79,-252.13 308.66,-257.16"/>
</g>
</g>
</svg>
