<?xml version="1.0" encoding="UTF-8" standalone="no"?>
<!DOCTYPE svg PUBLIC "-//W3C//DTD SVG 1.1//EN"
 "http://www.w3.org/Graphics/SVG/1.1/DTD/svg11.dtd">
<!-- Generated by graphviz version 2.50.0 (20211204.2007)
 -->
<!-- Title: library_dependencies Pages: 1 -->
<svg width="576pt" height="374pt"
 viewBox="0.00 0.00 576.00 373.98" xmlns="http://www.w3.org/2000/svg" xmlns:xlink="http://www.w3.org/1999/xlink">
<g id="graph0" class="graph" transform="scale(0.57 0.57) rotate(0) translate(4 649.33)">
<title>library_dependencies</title>
<polygon fill="white" stroke="transparent" points="-4,4 -4,-649.33 1002.23,-649.33 1002.23,4 -4,4"/>
<!-- ParallelMPOContractions -->
<g id="node1" class="node">
<title>ParallelMPOContractions</title>
<path fill="none" stroke="black" d="M160,-336.7C160,-336.7 12,-336.7 12,-336.7 6,-336.7 0,-330.7 0,-324.7 0,-324.7 0,-298.7 0,-298.7 0,-292.7 6,-286.7 12,-286.7 12,-286.7 160,-286.7 160,-286.7 166,-286.7 172,-292.7 172,-298.7 172,-298.7 172,-324.7 172,-324.7 172,-330.7 166,-336.7 160,-336.7"/>
<text text-anchor="start" x="14" y="-314.1" font-family="Arial" font-weight="bold" font-size="12.00">ParallelMPOContractions</text>
<text text-anchor="start" x="19.5" y="-303.7" font-family="Arial" font-size="10.00">Parallelized MPO contractions</text>
</g>
<!-- MPI -->
<g id="node3" class="node">
<title>MPI</title>
<path fill="none" stroke="black" d="M126.16,-77.27C126.16,-77.27 96.16,-77.27 96.16,-77.27 90.16,-77.27 84.16,-71.27 84.16,-65.27 84.16,-65.27 84.16,-39.27 84.16,-39.27 84.16,-33.27 90.16,-27.27 96.16,-27.27 96.16,-27.27 126.16,-27.27 126.16,-27.27 132.16,-27.27 138.16,-33.27 138.16,-39.27 138.16,-39.27 138.16,-65.27 138.16,-65.27 138.16,-71.27 132.16,-77.27 126.16,-77.27"/>
<text text-anchor="start" x="100.16" y="-54.67" font-family="Arial" font-weight="bold" font-size="12.00">MPI</text>
<text text-anchor="start" x="101.66" y="-44.27" font-family="Arial" font-size="10.00">MPI</text>
</g>
<!-- ParallelMPOContractions&#45;&gt;MPI -->
<g id="edge1" class="edge">
<title>ParallelMPOContractions&#45;&gt;MPI</title>
<path fill="none" stroke="black" d="M88.46,-286.35C92.98,-239.74 102.62,-140.33 107.76,-87.3"/>
<polygon fill="black" stroke="black" points="111.25,-87.63 108.73,-77.34 104.28,-86.95 111.25,-87.63"/>
</g>
<!-- TensorNetworks -->
<g id="node10" class="node">
<title>TensorNetworks</title>
<path fill="none" stroke="black" d="M578.95,-441.45C578.95,-441.45 439.95,-441.45 439.95,-441.45 433.95,-441.45 427.95,-435.45 427.95,-429.45 427.95,-429.45 427.95,-403.45 427.95,-403.45 427.95,-397.45 433.95,-391.45 439.95,-391.45 439.95,-391.45 578.95,-391.45 578.95,-391.45 584.95,-391.45 590.95,-397.45 590.95,-403.45 590.95,-403.45 590.95,-429.45 590.95,-429.45 590.95,-435.45 584.95,-441.45 578.95,-441.45"/>
<text text-anchor="start" x="462.45" y="-418.85" font-family="Arial" font-weight="bold" font-size="12.00">TensorNetworks</text>
<text text-anchor="start" x="441.95" y="-408.45" font-family="Arial" font-size="10.00">ITensor&#45;based tensor networks</text>
</g>
<!-- ParallelMPOContractions&#45;&gt;TensorNetworks -->
<g id="edge2" class="edge">
<title>ParallelMPOContractions&#45;&gt;TensorNetworks</title>
<path fill="none" stroke="gray" stroke-dasharray="5,2" d="M172.29,-331.93C230.19,-345.63 308.11,-364.3 376.69,-381.56 389.99,-384.9 404.02,-388.5 417.77,-392.08"/>
<polygon fill="gray" stroke="gray" points="417.17,-395.54 427.72,-394.68 418.93,-388.77 417.17,-395.54"/>
</g>
<!-- TreeTCI -->
<g id="node2" class="node">
<title>TreeTCI</title>
<path fill="none" stroke="black" d="M931.2,-88.06C931.2,-88.06 841.2,-88.06 841.2,-88.06 835.2,-88.06 829.2,-82.06 829.2,-76.06 829.2,-76.06 829.2,-50.06 829.2,-50.06 829.2,-44.06 835.2,-38.06 841.2,-38.06 841.2,-38.06 931.2,-38.06 931.2,-38.06 937.2,-38.06 943.2,-44.06 943.2,-50.06 943.2,-50.06 943.2,-76.06 943.2,-76.06 943.2,-82.06 937.2,-88.06 931.2,-88.06"/>
<text text-anchor="start" x="863.7" y="-65.46" font-family="Arial" font-weight="bold" font-size="12.00">TreeTCI</text>
<text text-anchor="start" x="843.2" y="-55.06" font-family="Arial" font-size="10.00">TCI for tree tensors</text>
</g>
<!-- SimpleTensorNetworks -->
<g id="node5" class="node">
<title>SimpleTensorNetworks</title>
<path fill="none" stroke="black" d="M394.15,-240.77C394.15,-240.77 210.15,-240.77 210.15,-240.77 204.15,-240.77 198.15,-234.77 198.15,-228.77 198.15,-228.77 198.15,-202.77 198.15,-202.77 198.15,-196.77 204.15,-190.77 210.15,-190.77 210.15,-190.77 394.15,-190.77 394.15,-190.77 400.15,-190.77 406.15,-196.77 406.15,-202.77 406.15,-202.77 406.15,-228.77 406.15,-228.77 406.15,-234.77 400.15,-240.77 394.15,-240.77"/>
<text text-anchor="start" x="235.65" y="-218.17" font-family="Arial" font-weight="bold" font-size="12.00">SimpleTensorNetworks</text>
<text text-anchor="start" x="212.15" y="-207.77" font-family="Arial" font-size="10.00">Simple tensor trains/tree tensor networks</text>
</g>
<!-- TreeTCI&#45;&gt;SimpleTensorNetworks -->
<g id="edge3" class="edge">
<title>TreeTCI&#45;&gt;SimpleTensorNetworks</title>
<path fill="none" stroke="black" d="M829.13,-77.99C731.6,-103.49 531.41,-155.83 407.79,-188.15"/>
<polygon fill="black" stroke="black" points="406.7,-184.82 397.92,-190.73 408.48,-191.59 406.7,-184.82"/>
</g>
<!-- TCICore -->
<g id="node16" class="node">
<title>TCICore</title>
<path fill="none" stroke="black" d="M741.7,-71.92C741.7,-71.92 540.7,-71.92 540.7,-71.92 534.7,-71.92 528.7,-65.92 528.7,-59.92 528.7,-59.92 528.7,-33.92 528.7,-33.92 528.7,-27.92 534.7,-21.92 540.7,-21.92 540.7,-21.92 741.7,-21.92 741.7,-21.92 747.7,-21.92 753.7,-27.92 753.7,-33.92 753.7,-33.92 753.7,-59.92 753.7,-59.92 753.7,-65.92 747.7,-71.92 741.7,-71.92"/>
<text text-anchor="start" x="617.2" y="-49.32" font-family="Arial" font-weight="bold" font-size="12.00">TCICore</text>
<text text-anchor="start" x="542.7" y="-38.92" font-family="Arial" font-size="10.00">TCI core algorithms (LU decomposition, etc.)</text>
</g>
<!-- TreeTCI&#45;&gt;TCICore -->
<g id="edge4" class="edge">
<title>TreeTCI&#45;&gt;TCICore</title>
<path fill="none" stroke="black" d="M829.07,-59.3C809.48,-58.01 786.75,-56.51 764,-55.01"/>
<polygon fill="black" stroke="black" points="764.12,-51.51 753.91,-54.35 763.66,-58.5 764.12,-51.51"/>
</g>
<!-- QuanticsTCI -->
<g id="node4" class="node">
<title>QuanticsTCI</title>
<path fill="none" stroke="black" d="M364.07,-642.93C364.07,-642.93 235.07,-642.93 235.07,-642.93 229.07,-642.93 223.07,-636.93 223.07,-630.93 223.07,-630.93 223.07,-604.93 223.07,-604.93 223.07,-598.93 229.07,-592.93 235.07,-592.93 235.07,-592.93 364.07,-592.93 364.07,-592.93 370.07,-592.93 376.07,-598.93 376.07,-604.93 376.07,-604.93 376.07,-630.93 376.07,-630.93 376.07,-636.93 370.07,-642.93 364.07,-642.93"/>
<text text-anchor="start" x="264.07" y="-620.33" font-family="Arial" font-weight="bold" font-size="12.00">QuanticsTCI</text>
<text text-anchor="start" x="237.07" y="-609.93" font-family="Arial" font-size="10.00">Sugar coating for TCI + QTT</text>
</g>
<!-- TensorCrossInterpolation -->
<g id="node7" class="node">
<title>TensorCrossInterpolation</title>
<path fill="none" stroke="black" d="M585.17,-247.76C585.17,-247.76 434.17,-247.76 434.17,-247.76 428.17,-247.76 422.17,-241.76 422.17,-235.76 422.17,-235.76 422.17,-209.76 422.17,-209.76 422.17,-203.76 428.17,-197.76 434.17,-197.76 434.17,-197.76 585.17,-197.76 585.17,-197.76 591.17,-197.76 597.17,-203.76 597.17,-209.76 597.17,-209.76 597.17,-235.76 597.17,-235.76 597.17,-241.76 591.17,-247.76 585.17,-247.76"/>
<text text-anchor="start" x="436.17" y="-225.16" font-family="Arial" font-weight="bold" font-size="12.00">TensorCrossInterpolation</text>
<text text-anchor="start" x="486.67" y="-214.76" font-family="Arial" font-size="10.00">TCI for TT</text>
</g>
<!-- QuanticsTCI&#45;&gt;TensorCrossInterpolation -->
<g id="edge5" class="edge">
<title>QuanticsTCI&#45;&gt;TensorCrossInterpolation</title>
<path fill="none" stroke="black" d="M312.87,-592.91C349.19,-524.6 450.09,-334.82 491.54,-256.86"/>
<polygon fill="black" stroke="black" points="494.68,-258.4 496.29,-247.93 488.5,-255.11 494.68,-258.4"/>
</g>
<!-- QuanticsGrids -->
<g id="node12" class="node">
<title>QuanticsGrids</title>
<path fill="none" stroke="black" d="M129.72,-604.89C129.72,-604.89 43.72,-604.89 43.72,-604.89 37.72,-604.89 31.72,-598.89 31.72,-592.89 31.72,-592.89 31.72,-566.89 31.72,-566.89 31.72,-560.89 37.72,-554.89 43.72,-554.89 43.72,-554.89 129.72,-554.89 129.72,-554.89 135.72,-554.89 141.72,-560.89 141.72,-566.89 141.72,-566.89 141.72,-592.89 141.72,-592.89 141.72,-598.89 135.72,-604.89 129.72,-604.89"/>
<text text-anchor="start" x="45.72" y="-582.29" font-family="Arial" font-weight="bold" font-size="12.00">QuanticsGrids</text>
<text text-anchor="start" x="54.72" y="-571.89" font-family="Arial" font-size="10.00">Quantics grids</text>
</g>
<!-- QuanticsTCI&#45;&gt;QuanticsGrids -->
<g id="edge6" class="edge">
<title>QuanticsTCI&#45;&gt;QuanticsGrids</title>
<path fill="none" stroke="black" d="M223.03,-604.25C199.77,-600.1 174.44,-595.57 152,-591.56"/>
<polygon fill="black" stroke="black" points="152.37,-588.07 141.91,-589.76 151.14,-594.96 152.37,-588.07"/>
</g>
<!-- PatchedTCI -->
<g id="node6" class="node">
<title>PatchedTCI</title>
<path fill="none" stroke="black" d="M955.68,-609.32C955.68,-609.32 845.68,-609.32 845.68,-609.32 839.68,-609.32 833.68,-603.32 833.68,-597.32 833.68,-597.32 833.68,-571.32 833.68,-571.32 833.68,-565.32 839.68,-559.32 845.68,-559.32 845.68,-559.32 955.68,-559.32 955.68,-559.32 961.68,-559.32 967.68,-565.32 967.68,-571.32 967.68,-571.32 967.68,-597.32 967.68,-597.32 967.68,-603.32 961.68,-609.32 955.68,-609.32"/>
<text text-anchor="start" x="867.18" y="-586.72" font-family="Arial" font-weight="bold" font-size="12.00">PatchedTCI</text>
<text text-anchor="start" x="847.68" y="-576.32" font-family="Arial" font-size="10.00">Adaptive patching + TCI</text>
</g>
<!-- PatchedTCI&#45;&gt;TensorCrossInterpolation -->
<g id="edge7" class="edge">
<title>PatchedTCI&#45;&gt;TensorCrossInterpolation</title>
<path fill="none" stroke="black" d="M863.75,-559.24C804.77,-518.21 687.22,-432.46 601.64,-344.39 575.07,-317.04 549.29,-281.97 531.81,-256.52"/>
<polygon fill="black" stroke="black" points="534.51,-254.25 525.99,-247.95 528.71,-258.19 534.51,-254.25"/>
</g>
<!-- TensorNetworkOperations -->
<g id="node8" class="node">
<title>TensorNetworkOperations</title>
<path fill="none" stroke="black" d="M986.23,-346.47C986.23,-346.47 831.23,-346.47 831.23,-346.47 825.23,-346.47 819.23,-340.47 819.23,-334.47 819.23,-334.47 819.23,-308.47 819.23,-308.47 819.23,-302.47 825.23,-296.47 831.23,-296.47 831.23,-296.47 986.23,-296.47 986.23,-296.47 992.23,-296.47 998.23,-302.47 998.23,-308.47 998.23,-308.47 998.23,-334.47 998.23,-334.47 998.23,-340.47 992.23,-346.47 986.23,-346.47"/>
<text text-anchor="start" x="833.23" y="-323.87" font-family="Arial" font-weight="bold" font-size="12.00">TensorNetworkOperations</text>
<text text-anchor="start" x="834.23" y="-313.47" font-family="Arial" font-size="10.00">Quantics.jl &#45; QuanticsTransofms.jl</text>
</g>
<!-- PatchedTCI&#45;&gt;TensorNetworkOperations -->
<g id="edge8" class="edge">
<title>PatchedTCI&#45;&gt;TensorNetworkOperations</title>
<path fill="none" stroke="black" d="M901.45,-559.12C902.89,-512.02 906,-410.55 907.65,-356.7"/>
<polygon fill="black" stroke="black" points="911.15,-356.7 907.96,-346.6 904.16,-356.49 911.15,-356.7"/>
</g>
<!-- TensorCrossInterpolation&#45;&gt;SimpleTensorNetworks -->
<g id="edge9" class="edge">
<title>TensorCrossInterpolation&#45;&gt;SimpleTensorNetworks</title>
<path fill="none" stroke="black" d="M421.96,-219.81C420.17,-219.75 418.38,-219.69 416.58,-219.63"/>
<polygon fill="black" stroke="black" points="416.36,-216.12 406.25,-219.28 416.13,-223.11 416.36,-216.12"/>
</g>
<!-- TensorCrossInterpolation&#45;&gt;TensorNetworks -->
<g id="edge10" class="edge">
<title>TensorCrossInterpolation&#45;&gt;TensorNetworks</title>
<path fill="none" stroke="gray" stroke-dasharray="5,2" d="M509.64,-248.08C509.6,-282.11 509.53,-342.74 509.49,-381.21"/>
<polygon fill="gray" stroke="gray" points="505.99,-381.42 509.48,-391.43 512.99,-381.43 505.99,-381.42"/>
</g>
<!-- IndexedTensor -->
<g id="node15" class="node">
<title>IndexedTensor</title>
<path fill="none" stroke="black" d="M756.65,-610.31C756.65,-610.31 617.65,-610.31 617.65,-610.31 611.65,-610.31 605.65,-604.31 605.65,-598.31 605.65,-598.31 605.65,-572.31 605.65,-572.31 605.65,-566.31 611.65,-560.31 617.65,-560.31 617.65,-560.31 756.65,-560.31 756.65,-560.31 762.65,-560.31 768.65,-566.31 768.65,-572.31 768.65,-572.31 768.65,-598.31 768.65,-598.31 768.65,-604.31 762.65,-610.31 756.65,-610.31"/>
<text text-anchor="start" x="644.15" y="-587.71" font-family="Arial" font-weight="bold" font-size="12.00">IndexedTensor</text>
<text text-anchor="start" x="619.65" y="-577.31" font-family="Arial" font-size="10.00">Indexed tensor and contraction</text>
</g>
<!-- TensorCrossInterpolation&#45;&gt;IndexedTensor -->
<g id="edge11" class="edge">
<title>TensorCrossInterpolation&#45;&gt;IndexedTensor</title>
<path fill="none" stroke="gray" stroke-dasharray="5,2" d="M522.79,-247.87C539.62,-280.19 569.55,-338.16 594.15,-388.25 621.97,-444.91 653.03,-511.43 671.29,-550.88"/>
<polygon fill="gray" stroke="gray" points="668.28,-552.7 675.65,-560.31 674.63,-549.76 668.28,-552.7"/>
</g>
<!-- TensorCrossInterpolation&#45;&gt;TCICore -->
<g id="edge12" class="edge">
<title>TensorCrossInterpolation&#45;&gt;TCICore</title>
<path fill="none" stroke="black" d="M528.51,-197.57C551.56,-166.75 590.66,-114.48 616.21,-80.33"/>
<polygon fill="black" stroke="black" points="619.21,-82.17 622.39,-72.07 613.6,-77.98 619.21,-82.17"/>
</g>
<!-- TensorNetworkContractions -->
<g id="node11" class="node">
<title>TensorNetworkContractions</title>
<path fill="none" stroke="black" d="M782.84,-341.19C782.84,-341.19 616.84,-341.19 616.84,-341.19 610.84,-341.19 604.84,-335.19 604.84,-329.19 604.84,-329.19 604.84,-303.19 604.84,-303.19 604.84,-297.19 610.84,-291.19 616.84,-291.19 616.84,-291.19 782.84,-291.19 782.84,-291.19 788.84,-291.19 794.84,-297.19 794.84,-303.19 794.84,-303.19 794.84,-329.19 794.84,-329.19 794.84,-335.19 788.84,-341.19 782.84,-341.19"/>
<text text-anchor="start" x="618.84" y="-318.59" font-family="Arial" font-weight="bold" font-size="12.00">TensorNetworkContractions</text>
<text text-anchor="start" x="647.84" y="-308.19" font-family="Arial" font-size="10.00">Contractions algorithms</text>
</g>
<!-- TensorNetworkOperations&#45;&gt;TensorNetworkContractions -->
<g id="edge13" class="edge">
<title>TensorNetworkOperations&#45;&gt;TensorNetworkContractions</title>
<path fill="none" stroke="black" d="M818.93,-319.2C814.33,-319.08 809.69,-318.97 805.04,-318.85"/>
<polygon fill="black" stroke="black" points="804.97,-315.35 794.89,-318.59 804.8,-322.34 804.97,-315.35"/>
</g>
<!-- ParallelTCI -->
<g id="node9" class="node">
<title>ParallelTCI</title>
<path fill="none" stroke="black" d="M427.74,-50C427.74,-50 353.74,-50 353.74,-50 347.74,-50 341.74,-44 341.74,-38 341.74,-38 341.74,-12 341.74,-12 341.74,-6 347.74,0 353.74,0 353.74,0 427.74,0 427.74,0 433.74,0 439.74,-6 439.74,-12 439.74,-12 439.74,-38 439.74,-38 439.74,-44 433.74,-50 427.74,-50"/>
<text text-anchor="start" x="359.74" y="-27.4" font-family="Arial" font-weight="bold" font-size="12.00">ParallelTCI</text>
<text text-anchor="start" x="355.74" y="-17" font-family="Arial" font-size="10.00">Parallelized TCI</text>
</g>
<!-- ParallelTCI&#45;&gt;MPI -->
<g id="edge14" class="edge">
<title>ParallelTCI&#45;&gt;MPI</title>
<path fill="none" stroke="black" d="M341.72,-29.78C286.6,-35.16 198.31,-43.77 148.5,-48.63"/>
<polygon fill="black" stroke="black" points="148.09,-45.15 138.48,-49.61 148.77,-52.12 148.09,-45.15"/>
</g>
<!-- ParallelTCI&#45;&gt;SimpleTensorNetworks -->
<g id="edge15" class="edge">
<title>ParallelTCI&#45;&gt;SimpleTensorNetworks</title>
<path fill="none" stroke="black" d="M378.98,-50.33C363.31,-84.06 335.55,-143.84 318.04,-181.56"/>
<polygon fill="black" stroke="black" points="314.86,-180.1 313.82,-190.64 321.21,-183.04 314.86,-180.1"/>
</g>
<!-- ParallelTCI&#45;&gt;TCICore -->
<g id="edge16" class="edge">
<title>ParallelTCI&#45;&gt;TCICore</title>
<path fill="none" stroke="black" d="M439.93,-29.3C462.58,-31.29 490.56,-33.74 518.39,-36.17"/>
<polygon fill="black" stroke="black" points="518.36,-39.68 528.63,-37.07 518.97,-32.71 518.36,-39.68"/>
</g>
<!-- TensorNetworks&#45;&gt;IndexedTensor -->
<g id="edge17" class="edge">
<title>TensorNetworks&#45;&gt;IndexedTensor</title>
<path fill="none" stroke="black" d="M536.05,-441.73C567.29,-471.41 619.14,-520.69 653.24,-553.09"/>
<polygon fill="black" stroke="black" points="650.99,-555.78 660.65,-560.14 655.81,-550.71 650.99,-555.78"/>
</g>
<!-- TensorNetworkContractions&#45;&gt;TensorNetworks -->
<g id="edge18" class="edge">
<title>TensorNetworkContractions&#45;&gt;TensorNetworks</title>
<path fill="none" stroke="black" d="M652.29,-341.23C626.16,-354.99 593.59,-372.14 566.15,-386.59"/>
<polygon fill="black" stroke="black" points="564.27,-383.62 557.06,-391.38 567.54,-389.82 564.27,-383.62"/>
</g>
<!-- QuanticsTransforms -->
<g id="node13" class="node">
<title>QuanticsTransforms</title>
<path fill="none" stroke="black" d="M361.49,-434.76C361.49,-434.76 240.49,-434.76 240.49,-434.76 234.49,-434.76 228.49,-428.76 228.49,-422.76 228.49,-422.76 228.49,-396.76 228.49,-396.76 228.49,-390.76 234.49,-384.76 240.49,-384.76 240.49,-384.76 361.49,-384.76 361.49,-384.76 367.49,-384.76 373.49,-390.76 373.49,-396.76 373.49,-396.76 373.49,-422.76 373.49,-422.76 373.49,-428.76 367.49,-434.76 361.49,-434.76"/>
<text text-anchor="start" x="242.49" y="-412.16" font-family="Arial" font-weight="bold" font-size="12.00">QuanticsTransforms</text>
<text text-anchor="start" x="256.49" y="-401.76" font-family="Arial" font-size="10.00">Quantics transforms</text>
</g>
<!-- QuanticsTransforms&#45;&gt;SimpleTensorNetworks -->
<g id="edge19" class="edge">
<title>QuanticsTransforms&#45;&gt;SimpleTensorNetworks</title>
<path fill="none" stroke="black" d="M301.14,-384.4C301.35,-350.32 301.71,-289.59 301.94,-251.07"/>
<polygon fill="black" stroke="black" points="305.44,-250.85 302,-240.83 298.44,-250.81 305.44,-250.85"/>
</g>
<!-- QuanticsTransforms&#45;&gt;TensorNetworks -->
<g id="edge20" class="edge">
<title>QuanticsTransforms&#45;&gt;TensorNetworks</title>
<path fill="none" stroke="gray" stroke-dasharray="5,2" d="M373.61,-412.09C387.83,-412.54 402.93,-413.03 417.68,-413.5"/>
<polygon fill="gray" stroke="gray" points="417.72,-417 427.83,-413.83 417.94,-410.01 417.72,-417"/>
</g>
<!-- QuanticsTransforms&#45;&gt;QuanticsGrids -->
<g id="edge21" class="edge">
<title>QuanticsTransforms&#45;&gt;QuanticsGrids</title>
<path fill="none" stroke="black" d="M269.38,-434.86C231.39,-465.02 167.65,-515.63 126.4,-548.38"/>
<polygon fill="black" stroke="black" points="124.12,-545.73 118.46,-554.68 128.47,-551.21 124.12,-545.73"/>
</g>
<!-- ProjMPSs -->
<g id="node14" class="node">
<title>ProjMPSs</title>
<path fill="none" stroke="black" d="M570.67,-645.33C570.67,-645.33 418.67,-645.33 418.67,-645.33 412.67,-645.33 406.67,-639.33 406.67,-633.33 406.67,-633.33 406.67,-607.33 406.67,-607.33 406.67,-601.33 412.67,-595.33 418.67,-595.33 418.67,-595.33 570.67,-595.33 570.67,-595.33 576.67,-595.33 582.67,-601.33 582.67,-607.33 582.67,-607.33 582.67,-633.33 582.67,-633.33 582.67,-639.33 576.67,-645.33 570.67,-645.33"/>
<text text-anchor="start" x="466.17" y="-622.73" font-family="Arial" font-weight="bold" font-size="12.00">ProjMPSs</text>
<text text-anchor="start" x="420.67" y="-612.33" font-family="Arial" font-size="10.00">Adaptive patching + multiplication</text>
</g>
<!-- ProjMPSs&#45;&gt;TensorNetworks -->
<g id="edge22" class="edge">
<title>ProjMPSs&#45;&gt;TensorNetworks</title>
<path fill="none" stroke="black" d="M496.51,-594.92C499.13,-558.78 503.94,-492.41 506.9,-451.58"/>
<polygon fill="black" stroke="black" points="510.4,-451.76 507.63,-441.54 503.42,-451.26 510.4,-451.76"/>
</g>
</g>
</svg>
